<svg xmlns="http://www.w3.org/2000/svg" xmlns:xlink="http://www.w3.org/1999/xlink" viewBox="0 0 225 225" width="225"
    height="225" preserveAspectRatio="xMidYMid meet"
    style="width: 100%; height: 100%; transform: translate3d(0px, 0px, 0px); content-visibility: visible;"
    id="chico genial">
    <defs>
        <clipPath id="__lottie_element_4536">
            <rect width="225" height="225" x="0" y="0" />
        </clipPath>
        <g id="__lottie_element_4543">
            <g transform="matrix(1,0,0,1,112.26899719238281,112.08999633789062)" opacity="1" style="display: block;">
                <g opacity="1" transform="matrix(1,0,0,1,0,0)">
                    <path fill="rgb(232,232,232)" fill-opacity="1"
                        d=" M112.04100036621094,0 C112.04100036621094,61.87799835205078 61.87799835205078,112.04100036621094 0,112.04100036621094 C-61.87799835205078,112.04100036621094 -112.04100036621094,61.87799835205078 -112.04100036621094,0 C-112.04100036621094,-61.87799835205078 -61.87799835205078,-112.04100036621094 0,-112.04100036621094 C61.87799835205078,-112.04100036621094 112.04100036621094,-61.87799835205078 112.04100036621094,0z" />
                </g>
            </g>
        </g>
        <mask id="__lottie_element_4543_1" mask-type="alpha">
            <use xmlns:ns1="http://www.w3.org/1999/xlink" ns1:href="#__lottie_element_4543" />
        </mask>
    </defs>
    <g clip-path="url(#__lottie_element_4536)">
        <g transform="matrix(1,0,0,1,112.26899719238281,112.08999633789062)" opacity="1" style="display: block;">
            <g opacity="1" transform="matrix(1,0,0,1,0,0)">
                <path fill="rgb(232,232,232)" fill-opacity="1"
                    d=" M112.04100036621094,0 C112.04100036621094,61.87799835205078 61.87799835205078,112.04100036621094 0,112.04100036621094 C-61.87799835205078,112.04100036621094 -112.04100036621094,61.87799835205078 -112.04100036621094,0 C-112.04100036621094,-61.87799835205078 -61.87799835205078,-112.04100036621094 0,-112.04100036621094 C61.87799835205078,-112.04100036621094 112.04100036621094,-61.87799835205078 112.04100036621094,0z" />
            </g>
        </g>
        <g mask="url(#__lottie_element_4543_1)" style="display: block;">
            <g transform="matrix(1,0,0,1,-408.0000305175781,-424)" opacity="1">
                <g opacity="1" transform="matrix(1,0,0,1,516.2670288085938,634.2750244140625)">
                    <g opacity="1" transform="matrix(1,0,0,1,0,0)">
                        <path fill="rgb(236,156,131)" fill-opacity="1"
                            d=" M-31.2189998626709,-34.47700119018555 C-31.2189998626709,-34.47700119018555 -86.1500015258789,-13.319999694824219 -86.1500015258789,-13.319999694824219 C-86.1500015258789,-13.319999694824219 6.617000102996826,34.882999420166016 6.617000102996826,34.882999420166016 C6.617000102996826,34.882999420166016 86.1500015258789,-13.319999694824219 86.1500015258789,-13.319999694824219 C86.1500015258789,-13.319999694824219 29.468000411987305,-34.882999420166016 29.468000411987305,-34.882999420166016 C29.468000411987305,-34.882999420166016 2.497999906539917,-21.57200050354004 2.497999906539917,-21.57200050354004 C2.497999906539917,-21.57200050354004 -31.2189998626709,-34.47700119018555 -31.2189998626709,-34.47700119018555z" />
                    </g>
                </g>
                <g opacity="1" transform="matrix(1,0,0,1,496.0400085449219,586.1640014648438)">
                    <g opacity="1" transform="matrix(1,0,0,1,0,0)">
                        <path fill="rgb(0,0,0)" fill-opacity="1"
                            d=" M-3.1659998893737793,12.916999816894531 C-3.6419999599456787,12.916999816894531 -4.119999885559082,12.755000114440918 -4.51200008392334,12.425000190734863 C-5.394000053405762,11.680999755859375 -5.50600004196167,10.36299991607666 -4.76200008392334,9.480999946594238 C3.1549999713897705,0.09300000220537186 0.7749999761581421,-9.895999908447266 0.6700000166893005,-10.317000389099121 C0.39100000262260437,-11.432999610900879 1.065999984741211,-12.569000244140625 2.180999994277954,-12.85200023651123 C3.2960000038146973,-13.13599967956543 4.429999828338623,-12.467000007629395 4.7170000076293945,-11.352999687194824 C4.8470001220703125,-10.850000381469727 7.7820000648498535,1.0889999866485596 -1.5679999589920044,12.175000190734863 C-1.9809999465942383,12.664999961853027 -2.572000026702881,12.916999816894531 -3.1659998893737793,12.916999816894531z" />
                    </g>
                </g>
                <g opacity="1" transform="matrix(1,0,0,1,537.1749877929688,584.4299926757812)">
                    <g opacity="1" transform="matrix(1,0,0,1,0,0)">
                        <path fill="rgb(0,0,0)" fill-opacity="1"
                            d=" M2.8269999027252197,14.079999923706055 C2.187999963760376,14.079999923706055 1.5570000410079956,13.788999557495117 1.1469999551773071,13.236000061035156 C1.1469999551773071,13.236000061035156 0.9399999976158142,12.956000328063965 0.9399999976158142,12.956000328063965 C-4.982999801635742,4.9670000076293945 -6.539999961853027,2.0199999809265137 -3.1440000534057617,-12.467000007629395 C-2.88100004196167,-13.590999603271484 -1.753000020980835,-14.289999961853027 -0.6340000033378601,-14.02400016784668 C0.48899999260902405,-13.76099967956543 1.187000036239624,-12.63700008392334 0.9240000247955322,-11.513999938964844 C-2.180999994277954,1.7319999933242798 -0.9380000233650208,3.4089999198913574 4.296000003814697,10.468000411987305 C4.296000003814697,10.468000411987305 4.502999782562256,10.746999740600586 4.502999782562256,10.746999740600586 C5.190999984741211,11.673999786376953 4.997000217437744,12.982000350952148 4.070000171661377,13.668999671936035 C3.694999933242798,13.946000099182129 3.259999990463257,14.079999923706055 2.8269999027252197,14.079999923706055z" />
                    </g>
                </g>
                <g opacity="1" transform="matrix(1,0,0,1,516.8790283203125,617.0460205078125)">
                    <g opacity="1" transform="matrix(1,0,0,1,0,0)">
                        <path fill="rgb(0,0,0)" fill-opacity="1"
                            d=" M-12.765999794006348,10.720999717712402 C-13.12399959564209,10.720999717712402 -13.482000350952148,10.630000114440918 -13.803999900817871,10.444999694824219 C-13.803999900817871,10.444999694824219 -41.11899948120117,-5.195000171661377 -41.11899948120117,-5.195000171661377 C-42.119998931884766,-5.76800012588501 -42.465999603271484,-7.044000148773193 -41.893001556396484,-8.045000076293945 C-41.31999969482422,-9.04699993133545 -40.04499816894531,-9.394000053405762 -39.04199981689453,-8.819999694824219 C-39.04199981689453,-8.819999694824219 -12.776000022888184,6.21999979019165 -12.776000022888184,6.21999979019165 C-12.776000022888184,6.21999979019165 1.6150000095367432,-2.1740000247955322 1.6150000095367432,-2.1740000247955322 C2.240000009536743,-2.5380001068115234 3.009000062942505,-2.552000045776367 3.6480000019073486,-2.2130000591278076 C3.6480000019073486,-2.2130000591278076 17.26099967956543,5.033999919891357 17.26099967956543,5.033999919891357 C17.26099967956543,5.033999919891357 38.869998931884766,-10.333999633789062 38.869998931884766,-10.333999633789062 C39.808998107910156,-11.001999855041504 41.11399841308594,-10.782999992370605 41.78300094604492,-9.843000411987305 C42.45199966430664,-8.902999877929688 42.23099899291992,-7.598999977111816 41.29199981689453,-6.929999828338623 C41.29199981689453,-6.929999828338623 18.628999710083008,9.185999870300293 18.628999710083008,9.185999870300293 C17.983999252319336,9.642999649047852 17.13599967956543,9.699000358581543 16.437999725341797,9.32800006866455 C16.437999725341797,9.32800006866455 2.7130000591278076,2.0209999084472656 2.7130000591278076,2.0209999084472656 C2.7130000591278076,2.0209999084472656 -11.71399974822998,10.437000274658203 -11.71399974822998,10.437000274658203 C-12.038999557495117,10.62600040435791 -12.402000427246094,10.720999717712402 -12.765999794006348,10.720999717712402z" />
                    </g>
                </g>
            </g>
        </g>
        <g transform="matrix(0.9888874292373657,0.14866632223129272,-0.14866632223129272,0.9888874292373657,-317.26361083984375,-490.75830078125)"
            opacity="1" style="display: block;">
            <g opacity="1" transform="matrix(1,0,0,1,0,0)">
                <g opacity="1" transform="matrix(1,0,0,1,516.416015625,534.1669921875)">
                    <path fill="rgb(244,244,244)" fill-opacity="1"
                        d=" M17.78499984741211,39.11800003051758 C30.20800018310547,34.10499954223633 42.68000030517578,17.534000396728516 42.68000030517578,0.3100000023841858 C42.68000030517578,-23.26099967956543 23.570999145507812,-42.369998931884766 0,-42.369998931884766 C-23.570999145507812,-42.369998931884766 -42.68000030517578,-23.26099967956543 -42.68000030517578,0.3100000023841858 C-42.68000030517578,16.52899932861328 -33.632999420166016,30.634000778198242 -20.31100082397461,37.85599899291992 C-20.31100082397461,37.85599899291992 -2.0199999809265137,47.11000061035156 17.78499984741211,39.11800003051758z" />
                </g>
                <g opacity="1" transform="matrix(1,0,0,1,516.416015625,534.1790161132812)">
                    <path fill="rgb(0,0,0)" fill-opacity="1"
                        d=" M0.6790000200271606,44.47100067138672 C-11.638999938964844,44.47100067138672 -20.711999893188477,39.98099899291992 -21.253000259399414,39.707000732421875 C-35.77799987792969,31.834999084472656 -44.76900100708008,16.7450008392334 -44.76900100708008,0.2980000078678131 C-44.76900100708008,-24.38800048828125 -24.68600082397461,-44.47100067138672 0,-44.47100067138672 C24.68600082397461,-44.47100067138672 44.76900100708008,-24.38800048828125 44.76900100708008,0.2980000078678131 C44.76900100708008,18.93600082397461 31.16900062561035,35.95899963378906 18.566999435424805,41.042999267578125 C18.566999435424805,41.042999267578125 18.566999435424805,41.042999267578125 18.566999435424805,41.042999267578125 C12.27400016784668,43.58300018310547 6.15500020980835,44.47100067138672 0.6790000200271606,44.47100067138672z M0,-40.292999267578125 C-22.381999969482422,-40.292999267578125 -40.590999603271484,-22.083999633789062 -40.590999603271484,0.2980000078678131 C-40.590999603271484,15.211000442504883 -32.43899917602539,28.893999099731445 -19.315000534057617,36.007999420166016 C-19.19499969482422,36.06800079345703 -1.6410000324249268,44.69200134277344 17.003000259399414,37.16999816894531 C17.003000259399414,37.16999816894531 17.003000259399414,37.16999816894531 17.003000259399414,37.16999816894531 C28.347000122070312,32.59199905395508 40.590999603271484,17.194000244140625 40.590999603271484,0.2980000078678131 C40.590999603271484,-22.083999633789062 22.381999969482422,-40.292999267578125 0,-40.292999267578125z" />
                </g>
            </g>
            <g opacity="1" transform="matrix(1,0,0,1,513.885986328125,502.4859924316406)">
                <g opacity="1" transform="matrix(1,0,0,1,0,0)">
                    <path fill="rgb(0,0,0)" fill-opacity="1"
                        d=" M-36.68899917602539,-27.8439998626709 C-55.483001708984375,-15.52299976348877 -54.43899917602539,23.735000610351562 -27.08300018310547,12.041000366210938 C0.27300000190734863,0.34700000286102295 6.068999767303467,-7.2220001220703125 19.694000244140625,-1.7410000562667847 C33.319000244140625,3.740000009536743 40.159000396728516,14.54699993133545 43.917999267578125,26.659000396728516 C46.74100112915039,35.755001068115234 50.49300003051758,37.16400146484375 49.13800048828125,14.130000114440918 C48.512001037597656,3.4800000190734863 44.125999450683594,-23.25 10.71399974822998,-24.711999893188477 C-15.21399974822998,-25.84600067138672 -17.895000457763672,-40.165000915527344 -36.68899917602539,-27.8439998626709z" />
                </g>
            </g>
        </g>
        <g transform="matrix(0.9888874292373657,0.14866632223129272,-0.14866632223129272,0.9888874292373657,118.74588775634766,133.63119506835938)"
            opacity="1" style="display: block;">
            <g opacity="1" transform="matrix(1,0,0,1,0,0)">
                <path fill="rgb(0,0,0)" fill-opacity="1"
                    d=" M-3.428999900817871,3.9830000400543213 C-5.88100004196167,4.159999847412109 -7.0320000648498535,3.9660000801086426 -8.730999946594238,3.443000078201294 C-9.833999633789062,3.1040000915527344 -11.107999801635742,2.989000082015991 -10.769000053405762,1.8860000371932983 C-10.430000305175781,0.7839999794960022 -9.63700008392334,0.6039999723434448 -8.53600025177002,0.9419999718666077 C-8.043000221252441,1.0889999866485596 3.5220000743865967,4.480000019073486 7.2129998207092285,-4.564000129699707 C7.6479997634887695,-5.63100004196167 8.866999626159668,-6.146999835968018 9.935999870300293,-5.709000110626221 C11.003999710083008,-5.2729997634887695 10.161999702453613,-4.632999897003174 9.585000038146973,-3.634999990463257 C5.881999969482422,2.7699999809265137 0.335999995470047,3.7109999656677246 -3.428999900817871,3.9830000400543213z" />
            </g>
        </g>
        <g transform="matrix(0.9888874292373657,0.14866632223129272,-0.14866632223129272,0.9888874292373657,-317.26361083984375,-490.75830078125)"
            opacity="1" style="display: block;">
            <g opacity="1" transform="matrix(1,0,0,1,497.04400634765625,530.4420166015625)">
                <g opacity="1" transform="matrix(1,0,0,1,0,0)">
                    <path fill="rgb(0,0,0)" fill-opacity="1"
                        d=" M8.11299991607666,10.557999610900879 C8.11299991607666,10.557999610900879 -8.11299991607666,10.557999610900879 -8.11299991607666,10.557999610900879 C-11.496999740600586,10.557999610900879 -14.239999771118164,7.814000129699707 -14.239999771118164,4.429999828338623 C-14.239999771118164,4.429999828338623 -14.239999771118164,-4.429999828338623 -14.239999771118164,-4.429999828338623 C-14.239999771118164,-7.814000129699707 -11.496999740600586,-10.557999610900879 -8.11299991607666,-10.557999610900879 C-8.11299991607666,-10.557999610900879 8.11299991607666,-10.557999610900879 8.11299991607666,-10.557999610900879 C11.496999740600586,-10.557999610900879 14.239999771118164,-7.814000129699707 14.239999771118164,-4.429999828338623 C14.239999771118164,-4.429999828338623 14.239999771118164,4.429999828338623 14.239999771118164,4.429999828338623 C14.239999771118164,7.814000129699707 11.496999740600586,10.557999610900879 8.11299991607666,10.557999610900879z" />
                </g>
            </g>
            <g opacity="1" transform="matrix(1,0,0,1,537.125,530.4420166015625)">
                <g opacity="1" transform="matrix(1,0,0,1,0,0)">
                    <path fill="rgb(0,0,0)" fill-opacity="1"
                        d=" M8.11299991607666,10.557999610900879 C8.11299991607666,10.557999610900879 -8.11299991607666,10.557999610900879 -8.11299991607666,10.557999610900879 C-11.496999740600586,10.557999610900879 -14.239999771118164,7.814000129699707 -14.239999771118164,4.429999828338623 C-14.239999771118164,4.429999828338623 -14.239999771118164,-4.429999828338623 -14.239999771118164,-4.429999828338623 C-14.239999771118164,-7.814000129699707 -11.496999740600586,-10.557999610900879 -8.11299991607666,-10.557999610900879 C-8.11299991607666,-10.557999610900879 8.11299991607666,-10.557999610900879 8.11299991607666,-10.557999610900879 C11.496999740600586,-10.557999610900879 14.239999771118164,-7.814000129699707 14.239999771118164,-4.429999828338623 C14.239999771118164,-4.429999828338623 14.239999771118164,4.429999828338623 14.239999771118164,4.429999828338623 C14.239999771118164,7.814000129699707 11.496999740600586,10.557999610900879 8.11299991607666,10.557999610900879z" />
                </g>
            </g>
            <g opacity="1" transform="matrix(1,0,0,1,0,0)">
                <g opacity="1" transform="matrix(1,0,0,1,516.8790283203125,530.4420166015625)">
                    <g opacity="1" transform="matrix(1,0,0,1,0,0)">
                        <path fill="rgb(244,244,244)" fill-opacity="1"
                            d=" M-7.809999942779541,0 C-7.809999942779541,0 7.809999942779541,0 7.809999942779541,0 C7.809999942779541,0 -7.809999942779541,0 -7.809999942779541,0z" />
                    </g>
                </g>
                <g opacity="1" transform="matrix(1,0,0,1,516.8790283203125,530.4429931640625)">
                    <path fill="rgb(0,0,0)" fill-opacity="1"
                        d=" M7.809999942779541,2.0889999866485596 C7.809999942779541,2.0889999866485596 -7.809999942779541,2.0889999866485596 -7.809999942779541,2.0889999866485596 C-8.963000297546387,2.0889999866485596 -9.89799976348877,1.152999997138977 -9.89799976348877,0 C-9.89799976348877,-1.152999997138977 -8.963000297546387,-2.0889999866485596 -7.809999942779541,-2.0889999866485596 C-7.809999942779541,-2.0889999866485596 7.809999942779541,-2.0889999866485596 7.809999942779541,-2.0889999866485596 C8.963000297546387,-2.0889999866485596 9.89799976348877,-1.152999997138977 9.89799976348877,0 C9.89799976348877,1.152999997138977 8.963000297546387,2.0889999866485596 7.809999942779541,2.0889999866485596z" />
                </g>
            </g>
            <g opacity="1" transform="matrix(1,0,0,1,546.1110229492188,525.6409912109375)">
                <g opacity="1" transform="matrix(1,0,0,1,0,0)">
                    <path fill="rgb(244,244,244)" fill-opacity="1"
                        d=" M0,3.509999990463257 C-1.152999997138977,3.509999990463257 -2.0889999866485596,2.5739998817443848 -2.0889999866485596,1.4210000038146973 C-2.0889999866485596,1.4210000038146973 -2.0889999866485596,-1.4210000038146973 -2.0889999866485596,-1.4210000038146973 C-2.0889999866485596,-2.5739998817443848 -1.152999997138977,-3.509999990463257 0,-3.509999990463257 C1.152999997138977,-3.509999990463257 2.0889999866485596,-2.5739998817443848 2.0889999866485596,-1.4210000038146973 C2.0889999866485596,-1.4210000038146973 2.0889999866485596,1.4210000038146973 2.0889999866485596,1.4210000038146973 C2.0889999866485596,2.5739998817443848 1.152999997138977,3.509999990463257 0,3.509999990463257z" />
                </g>
            </g>
            <g opacity="1" transform="matrix(1,0,0,1,505.1759948730469,525.6409912109375)">
                <g opacity="1" transform="matrix(1,0,0,1,0,0)">
                    <path fill="rgb(244,244,244)" fill-opacity="1"
                        d=" M0,3.509999990463257 C-1.152999997138977,3.509999990463257 -2.0889999866485596,2.5739998817443848 -2.0889999866485596,1.4210000038146973 C-2.0889999866485596,1.4210000038146973 -2.0889999866485596,-1.4210000038146973 -2.0889999866485596,-1.4210000038146973 C-2.0889999866485596,-2.5739998817443848 -1.152999997138977,-3.509999990463257 0,-3.509999990463257 C1.152999997138977,-3.509999990463257 2.0889999866485596,-2.5739998817443848 2.0889999866485596,-1.4210000038146973 C2.0889999866485596,-1.4210000038146973 2.0889999866485596,1.4210000038146973 2.0889999866485596,1.4210000038146973 C2.0889999866485596,2.5739998817443848 1.152999997138977,3.509999990463257 0,3.509999990463257z" />
                </g>
            </g>
        </g>
        <g transform="matrix(0,0,0,0,38.96200180053711,140.63800048828125)" opacity="1" style="display: block;">
            <g opacity="1" transform="matrix(1,0,0,1,0,0)">
                <path fill="rgb(0,0,0)" fill-opacity="1"
                    d=" M5.291999816894531,0 C5.291999816894531,2.9230000972747803 2.9230000972747803,5.291999816894531 0,5.291999816894531 C-2.9230000972747803,5.291999816894531 -5.291999816894531,2.9230000972747803 -5.291999816894531,0 C-5.291999816894531,-2.9230000972747803 -2.9230000972747803,-5.291999816894531 0,-5.291999816894531 C2.9230000972747803,-5.291999816894531 5.291999816894531,-2.9230000972747803 5.291999816894531,0z" />
            </g>
        </g>
        <g transform="matrix(0.012726872228085995,0,0,0.012726872228085995,41.49300003051758,73.19400024414062)"
            opacity="1" style="display: block;">
            <g opacity="1" transform="matrix(1,0,0,1,0,0)">
                <path fill="rgb(0,0,0)" fill-opacity="1"
                    d=" M5.291999816894531,0 C5.291999816894531,2.9230000972747803 2.9230000972747803,5.291999816894531 0,5.291999816894531 C-2.9230000972747803,5.291999816894531 -5.291999816894531,2.9230000972747803 -5.291999816894531,0 C-5.291999816894531,-2.9230000972747803 -2.9230000972747803,-5.291999816894531 0,-5.291999816894531 C2.9230000972747803,-5.291999816894531 5.291999816894531,-2.9230000972747803 5.291999816894531,0z" />
            </g>
        </g>
        <g transform="matrix(0,0,0,0,111.88700103759766,32.71799850463867)" opacity="1" style="display: block;">
            <g opacity="1" transform="matrix(1,0,0,1,0,0)">
                <path fill="rgb(0,0,0)" fill-opacity="1"
                    d=" M5.291999816894531,0 C5.291999816894531,2.9230000972747803 2.9230000972747803,5.291999816894531 0,5.291999816894531 C-2.9230000972747803,5.291999816894531 -5.291999816894531,2.9230000972747803 -5.291999816894531,0 C-5.291999816894531,-2.9230000972747803 -2.9230000972747803,-5.291999816894531 0,-5.291999816894531 C2.9230000972747803,-5.291999816894531 5.291999816894531,-2.9230000972747803 5.291999816894531,0z" />
            </g>
        </g>
        <g transform="matrix(0.7087035179138184,0,0,0.7087035179138184,196.125,113.11499786376953)" opacity="1"
            style="display: block;">
            <g opacity="1" transform="matrix(1,0,0,1,0,0)">
                <path fill="rgb(0,0,0)" fill-opacity="1"
                    d=" M5.291999816894531,0 C5.291999816894531,2.9230000972747803 2.9230000972747803,5.291999816894531 0,5.291999816894531 C-2.9230000972747803,5.291999816894531 -5.291999816894531,2.9230000972747803 -5.291999816894531,0 C-5.291999816894531,-2.9230000972747803 -2.9230000972747803,-5.291999816894531 0,-5.291999816894531 C2.9230000972747803,-5.291999816894531 5.291999816894531,-2.9230000972747803 5.291999816894531,0z" />
            </g>
        </g>
        <g transform="matrix(0,0,0,0,155.30999755859375,159.04600524902344)" opacity="1" style="display: block;">
            <g opacity="1" transform="matrix(1,0,0,1,0,0)">
                <path fill="rgb(0,0,0)" fill-opacity="1"
                    d=" M5.291999816894531,0 C5.291999816894531,2.9230000972747803 2.9230000972747803,5.291999816894531 0,5.291999816894531 C-2.9230000972747803,5.291999816894531 -5.291999816894531,2.9230000972747803 -5.291999816894531,0 C-5.291999816894531,-2.9230000972747803 -2.9230000972747803,-5.291999816894531 0,-5.291999816894531 C2.9230000972747803,-5.291999816894531 5.291999816894531,-2.9230000972747803 5.291999816894531,0z" />
            </g>
        </g>
    </g>
</svg>