<svg xmlns="http://www.w3.org/2000/svg" xmlns:xlink="http://www.w3.org/1999/xlink" viewBox="0 0 225 225" width="225"
    height="225" preserveAspectRatio="xMidYMid meet"
    style="width: 100%; height: 100%; transform: translate3d(0px, 0px, 0px); content-visibility: visible;"
    id="chica de pelo rizado">
    <defs>
        <clipPath id="__lottie_element_4653">
            <rect width="225" height="225" x="0" y="0" />
        </clipPath>
        <g id="__lottie_element_4660">
            <g transform="matrix(1,0,0,1,112.30500030517578,112.08999633789062)" opacity="1" style="display: block;">
                <g opacity="1" transform="matrix(1,0,0,1,0,0)">
                    <path fill="rgb(232,232,232)" fill-opacity="1"
                        d=" M112.04100036621094,0 C112.04100036621094,61.87799835205078 61.87799835205078,112.04100036621094 0,112.04100036621094 C-61.87799835205078,112.04100036621094 -112.04100036621094,61.87799835205078 -112.04100036621094,0 C-112.04100036621094,-61.87799835205078 -61.87799835205078,-112.04100036621094 0,-112.04100036621094 C61.87799835205078,-112.04100036621094 112.04100036621094,-61.87799835205078 112.04100036621094,0z" />
                </g>
            </g>
        </g>
        <mask id="__lottie_element_4660_1" mask-type="alpha">
            <use xmlns:ns1="http://www.w3.org/1999/xlink" ns1:href="#__lottie_element_4660" />
        </mask>
    </defs>
    <g clip-path="url(#__lottie_element_4653)">
        <g transform="matrix(1,0,0,1,112.30500030517578,112.08999633789062)" opacity="1" style="display: block;">
            <g opacity="1" transform="matrix(1,0,0,1,0,0)">
                <path fill="rgb(232,232,232)" fill-opacity="1"
                    d=" M112.04100036621094,0 C112.04100036621094,61.87799835205078 61.87799835205078,112.04100036621094 0,112.04100036621094 C-61.87799835205078,112.04100036621094 -112.04100036621094,61.87799835205078 -112.04100036621094,0 C-112.04100036621094,-61.87799835205078 -61.87799835205078,-112.04100036621094 0,-112.04100036621094 C61.87799835205078,-112.04100036621094 112.04100036621094,-61.87799835205078 112.04100036621094,0z" />
            </g>
        </g>
        <g mask="url(#__lottie_element_4660_1)" style="display: block;">
            <g transform="matrix(0.9900186657905579,0.1409362256526947,-0.1409362256526947,0.9900186657905579,-620.6743774414062,-535.0850219726562)"
                opacity="1">
                <g opacity="1" transform="matrix(1,0,0,1,834.4229736328125,623.9920043945312)">
                    <g opacity="1" transform="matrix(1,0,0,1,0,0)">
                        <path fill="rgb(106,166,211)" fill-opacity="1"
                            d=" M-32.676998138427734,-23.84600067138672 C-32.676998138427734,-23.84600067138672 -89.65499877929688,14.041000366210938 -89.65499877929688,14.041000366210938 C-89.65499877929688,14.041000366210938 3.8469998836517334,35.3849983215332 45.8650016784668,26.673999786376953 C87.88300323486328,17.96299934387207 89.65499877929688,-0.5460000038146973 89.65499877929688,-0.5460000038146973 C89.65499877929688,-0.5460000038146973 33.84199905395508,-28.763999938964844 33.84199905395508,-28.763999938964844 C33.84199905395508,-28.763999938964844 9.230999946594238,-7.521999835968018 -32.676998138427734,-23.84600067138672z" />
                    </g>
                </g>
                <g opacity="1" transform="matrix(1,0,0,1,812.0960083007812,585.4429931640625)">
                    <g opacity="1" transform="matrix(1,0,0,1,0,0)">
                        <path fill="rgb(0,0,0)" fill-opacity="1"
                            d=" M-5.202000141143799,13.390000343322754 C-5.9770002365112305,13.390000343322754 -6.7230000495910645,12.956999778747559 -7.084000110626221,12.213000297546387 C-7.586999893188477,11.175000190734863 -7.1529998779296875,9.925999641418457 -6.114999771118164,9.42199993133545 C7.330999851226807,2.9030001163482666 2.2769999504089355,-9.96500015258789 2.055000066757202,-10.508999824523926 C1.6200000047683716,-11.574999809265137 2.128999948501587,-12.793999671936035 3.194000005722046,-13.232000350952148 C4.257999897003174,-13.67199993133545 5.47599983215332,-13.166000366210938 5.915999889373779,-12.102999687194824 C5.986000061035156,-11.932999610900879 12.734999656677246,4.926000118255615 -4.293000221252441,13.182000160217285 C-4.586999893188477,13.324000358581543 -4.895999908447266,13.390000343322754 -5.202000141143799,13.390000343322754z" />
                    </g>
                </g>
                <g opacity="1" transform="matrix(1,0,0,1,814.6209716796875,633.4860229492188)">
                    <g opacity="1" transform="matrix(1,0,0,1,0,0)">
                        <path fill="rgb(0,0,0)" fill-opacity="1"
                            d=" M6.8520002365112305,0 C6.8520002365112305,3.7839999198913574 3.7839999198913574,6.8520002365112305 0,6.8520002365112305 C-3.7839999198913574,6.8520002365112305 -6.8520002365112305,3.7839999198913574 -6.8520002365112305,0 C-6.8520002365112305,-3.7839999198913574 -3.7839999198913574,-6.8520002365112305 0,-6.8520002365112305 C3.7839999198913574,-6.8520002365112305 6.8520002365112305,-3.7839999198913574 6.8520002365112305,0z" />
                    </g>
                </g>
                <g opacity="1" transform="matrix(1,0,0,1,835.7009887695312,617.8259887695312)">
                    <g opacity="1" transform="matrix(1,0,0,1,0,0)">
                        <path fill="rgb(0,0,0)" fill-opacity="1"
                            d=" M6.8520002365112305,0 C6.8520002365112305,3.7839999198913574 3.7839999198913574,6.8520002365112305 0,6.8520002365112305 C-3.7839999198913574,6.8520002365112305 -6.8520002365112305,3.7839999198913574 -6.8520002365112305,0 C-6.8520002365112305,-3.7839999198913574 -3.7839999198913574,-6.8520002365112305 0,-6.8520002365112305 C3.7839999198913574,-6.8520002365112305 6.8520002365112305,-3.7839999198913574 6.8520002365112305,0z" />
                    </g>
                </g>
                <g opacity="1" transform="matrix(1,0,0,1,851.8209838867188,638.3820190429688)">
                    <g opacity="1" transform="matrix(1,0,0,1,0,0)">
                        <path fill="rgb(0,0,0)" fill-opacity="1"
                            d=" M6.8520002365112305,0 C6.8520002365112305,3.7839999198913574 3.7839999198913574,6.8520002365112305 0,6.8520002365112305 C-3.7839999198913574,6.8520002365112305 -6.8520002365112305,3.7839999198913574 -6.8520002365112305,0 C-6.8520002365112305,-3.7839999198913574 -3.7839999198913574,-6.8520002365112305 0,-6.8520002365112305 C3.7839999198913574,-6.8520002365112305 6.8520002365112305,-3.7839999198913574 6.8520002365112305,0z" />
                    </g>
                </g>
                <g opacity="1" transform="matrix(1,0,0,1,865.5250244140625,614.2650146484375)">
                    <g opacity="1" transform="matrix(1,0,0,1,0,0)">
                        <path fill="rgb(0,0,0)" fill-opacity="1"
                            d=" M6.8520002365112305,0 C6.8520002365112305,3.7839999198913574 3.7839999198913574,6.8520002365112305 0,6.8520002365112305 C-3.7839999198913574,6.8520002365112305 -6.8520002365112305,3.7839999198913574 -6.8520002365112305,0 C-6.8520002365112305,-3.7839999198913574 -3.7839999198913574,-6.8520002365112305 0,-6.8520002365112305 C3.7839999198913574,-6.8520002365112305 6.8520002365112305,-3.7839999198913574 6.8520002365112305,0z" />
                    </g>
                </g>
                <g opacity="1" transform="matrix(1,0,0,1,0,0)">
                    <g opacity="1" transform="matrix(1,0,0,1,888.1630249023438,629.625)">
                        <g opacity="1" transform="matrix(1,0,0,1,0,0)">
                            <path fill="rgb(0,0,0)" fill-opacity="1"
                                d=" M6.8520002365112305,0.4749999940395355 C6.8520002365112305,-3.309000015258789 3.7839999198913574,-6.376999855041504 0,-6.376999855041504 C-3.7839999198913574,-6.376999855041504 -6.8520002365112305,-3.309000015258789 -6.8520002365112305,0.4749999940395355 C-6.8520002365112305,2.986999988555908 -5.5,5.184000015258789 -3.4839999675750732,6.376999855041504 C-3.4839999675750732,6.376999855041504 6.8520002365112305,0.4749999940395355 6.8520002365112305,0.4749999940395355z" />
                        </g>
                    </g>
                </g>
                <g opacity="1" transform="matrix(1,0,0,1,0,0)">
                    <g opacity="1" transform="matrix(1,0,0,1,889.2349853515625,608.0150146484375)">
                        <g opacity="1" transform="matrix(1,0,0,1,0,0)">
                            <path fill="rgb(0,0,0)" fill-opacity="1"
                                d=" M-5.697000026702881,-5.065000057220459 C-6.228000164031982,-4.091000080108643 -6.53000020980835,-2.9739999771118164 -6.53000020980835,-1.7869999408721924 C-6.53000020980835,1.996999979019165 -3.4619998931884766,5.065000057220459 0.32199999690055847,5.065000057220459 C3.068000078201294,5.065000057220459 5.436999797821045,3.4489998817443848 6.53000020980835,1.1160000562667847 C6.53000020980835,1.1160000562667847 -5.697000026702881,-5.065000057220459 -5.697000026702881,-5.065000057220459z" />
                        </g>
                    </g>
                </g>
                <g opacity="1" transform="matrix(1,0,0,1,781.968017578125,624.677978515625)">
                    <g opacity="1" transform="matrix(1,0,0,1,0,0)">
                        <path fill="rgb(0,0,0)" fill-opacity="1"
                            d=" M6.8520002365112305,0 C6.8520002365112305,3.7839999198913574 3.7839999198913574,6.8520002365112305 0,6.8520002365112305 C-3.7839999198913574,6.8520002365112305 -6.8520002365112305,3.7839999198913574 -6.8520002365112305,0 C-6.8520002365112305,-3.7839999198913574 -3.7839999198913574,-6.8520002365112305 0,-6.8520002365112305 C3.7839999198913574,-6.8520002365112305 6.8520002365112305,-3.7839999198913574 6.8520002365112305,0z" />
                    </g>
                </g>
                <g opacity="1" transform="matrix(1,0,0,1,803.0479736328125,609.1939697265625)">
                    <g opacity="1" transform="matrix(1,0,0,1,0,0)">
                        <path fill="rgb(0,0,0)" fill-opacity="1"
                            d=" M6.8520002365112305,0 C6.8520002365112305,3.7839999198913574 3.7839999198913574,6.8520002365112305 0,6.8520002365112305 C-3.7839999198913574,6.8520002365112305 -6.8520002365112305,3.7839999198913574 -6.8520002365112305,0 C-6.8520002365112305,-3.7839999198913574 -3.7839999198913574,-6.8520002365112305 0,-6.8520002365112305 C3.7839999198913574,-6.8520002365112305 6.8520002365112305,-3.7839999198913574 6.8520002365112305,0z" />
                    </g>
                </g>
                <g opacity="1" transform="matrix(1,0,0,1,858.5900268554688,581.8499755859375)">
                    <g opacity="1" transform="matrix(1,0,0,1,0,0)">
                        <path fill="rgb(0,0,0)" fill-opacity="1"
                            d=" M6.584000110626221,13.289999961853027 C6.4029998779296875,13.289999961853027 6.21999979019165,13.265999794006348 6.0370001792907715,13.215999603271484 C0.0020000000949949026,11.581000328063965 -4.256999969482422,8.487000465393066 -6.619999885559082,4.01800012588501 C-10.491999626159668,-3.302000045776367 -7.716000080108643,-11.53600025177002 -7.5960001945495605,-11.883999824523926 C-7.218999862670898,-12.972999572753906 -6.031000137329102,-13.550999641418457 -4.939000129699707,-13.173999786376953 C-3.8510000705718994,-12.79699993133545 -3.2730000019073486,-11.611000061035156 -3.6470000743865967,-10.522000312805176 C-3.6470000743865967,-10.522000312805176 -3.6470000743865967,-10.522000312805176 -3.6470000743865967,-10.522000312805176 C-3.6700000762939453,-10.454000473022461 -5.943999767303467,-3.6029999256134033 -2.9130001068115234,2.0920000076293945 C-1.1089999675750732,5.48199987411499 2.2699999809265137,7.868000030517578 7.129000186920166,9.1850004196167 C8.241999626159668,9.486000061035156 8.899999618530273,10.633999824523926 8.597999572753906,11.746999740600586 C8.345999717712402,12.678000450134277 7.504000186920166,13.289999961853027 6.584000110626221,13.289999961853027z" />
                    </g>
                </g>
            </g>
        </g>
        <g transform="matrix(0.9822356104850769,0.18765178322792053,-0.18765178322792053,0.9822356104850769,135.10336303710938,87.48578643798828)"
            opacity="1" style="display: block;">
            <g opacity="1" transform="matrix(1,0,0,1,0,0)">
                <path fill="rgb(0,0,0)" fill-opacity="1"
                    d=" M-51.71500015258789,-21.538999557495117 C-51.71500015258789,-21.538999557495117 -66.177001953125,-56.59299850463867 -30.166000366210938,-43.0890007019043 C-33.54199981689453,-64.73899841308594 -5.556000232696533,-67.8949966430664 3.559000015258789,-47.638999938964844 C16.500999450683594,-74.64700317382812 43.70600128173828,-55.86000061035156 33.01499938964844,-40.667999267578125 C57.209999084472656,-46.29499816894531 65.4540023803711,-35.823001861572266 56.45100021362305,-18.3799991607666 C77.62699890136719,-19.5049991607666 89.05000305175781,3.484999895095825 65.25299835205078,12.217000007629395 C82.79399871826172,24.964000701904297 71.6719970703125,42.064998626708984 55.32500076293945,35.07400131225586 C69.39199829101562,50.37900161743164 55.95500183105469,61.8120002746582 21.069000244140625,47.744998931884766 C-13.817000389099121,33.678001403808594 -20.072999954223633,44.63999938964844 -35.26499938964844,57.01900100708008 C-50.457000732421875,69.39800262451172 -61.71099853515625,52.518001556396484 -52.145999908447266,37.88800048828125 C-90.40799713134766,36.20000076293945 -66.21299743652344,12.005000114440918 -66.21299743652344,12.005000114440918 C-66.21299743652344,12.005000114440918 -81.83899688720703,4.0320000648498535 -77.9000015258789,-8.90999984741211 C-73.96099853515625,-21.851999282836914 -51.71500015258789,-21.538999557495117 -51.71500015258789,-21.538999557495117z" />
            </g>
        </g>
        <g transform="matrix(0.9822356104850769,0.18765178322792053,-0.18765178322792053,0.9822356104850769,-584.1546020507812,-568.4750366210938)"
            opacity="1" style="display: block;">
            <g opacity="1" transform="matrix(1,0,0,1,830.4030151367188,534.0260009765625)">
                <path fill="rgb(244,244,244)" fill-opacity="1"
                    d=" M17.78499984741211,39.11800003051758 C30.20800018310547,34.10499954223633 42.68000030517578,17.534000396728516 42.68000030517578,0.3100000023841858 C42.68000030517578,-23.26099967956543 23.570999145507812,-42.369998931884766 0,-42.369998931884766 C-23.570999145507812,-42.369998931884766 -42.68000030517578,-23.26099967956543 -42.68000030517578,0.3100000023841858 C-42.68000030517578,16.52899932861328 -33.632999420166016,30.634000778198242 -20.31100082397461,37.85599899291992 C-20.31100082397461,37.85599899291992 -2.0199999809265137,47.11000061035156 17.78499984741211,39.11800003051758z" />
            </g>
            <g opacity="1" transform="matrix(1,0,0,1,830.4030151367188,534.0369873046875)">
                <path fill="rgb(0,0,0)" fill-opacity="1"
                    d=" M0.6800000071525574,44.470001220703125 C-11.637999534606934,44.470001220703125 -20.71299934387207,39.981998443603516 -21.253999710083008,39.70800018310547 C-35.77799987792969,31.836000442504883 -44.76900100708008,16.7450008392334 -44.76900100708008,0.2980000078678131 C-44.76900100708008,-24.38800048828125 -24.68600082397461,-44.470001220703125 0,-44.470001220703125 C24.68600082397461,-44.470001220703125 44.76900100708008,-24.38800048828125 44.76900100708008,0.2980000078678131 C44.76900100708008,18.93400001525879 31.167999267578125,35.95899963378906 18.56599998474121,41.04399871826172 C18.56599998474121,41.04399871826172 18.56599998474121,41.04399871826172 18.56599998474121,41.04399871826172 C12.27299976348877,43.58399963378906 6.156000137329102,44.470001220703125 0.6800000071525574,44.470001220703125z M0,-40.292999267578125 C-22.381999969482422,-40.292999267578125 -40.590999603271484,-22.083999633789062 -40.590999603271484,0.2980000078678131 C-40.590999603271484,15.211000442504883 -32.4379997253418,28.895000457763672 -19.315000534057617,36.00899887084961 C-19.194000244140625,36.069000244140625 -1.6460000276565552,44.694000244140625 17.003999710083008,37.17100143432617 C17.003999710083008,37.17100143432617 17.003999710083008,37.17100143432617 17.003999710083008,37.17100143432617 C28.347999572753906,32.59299850463867 40.590999603271484,17.19300079345703 40.590999603271484,0.2980000078678131 C40.590999603271484,-22.083999633789062 22.381999969482422,-40.292999267578125 0,-40.292999267578125z M17.78499984741211,39.106998443603516 C17.78499984741211,39.106998443603516 17.795000076293945,39.106998443603516 17.795000076293945,39.106998443603516 C17.795000076293945,39.106998443603516 17.78499984741211,39.106998443603516 17.78499984741211,39.106998443603516z" />
            </g>
        </g>
        <g transform="matrix(0.9822356104850769,0.18765178322792053,-0.18765178322792053,0.9822356104850769,127.40977478027344,127.34615325927734)"
            opacity="1" style="display: block;">
            <g opacity="1" transform="matrix(1,0,0,1,0,0)">
                <path fill="rgb(0,0,0)" fill-opacity="1"
                    d=" M0.44853052496910095,4.0340189933776855 C-10.20846939086914,4.0340189933776855 -17.548063278198242,-1.9901976585388184 -17.676063537597656,-2.1021976470947266 C-18.54306411743164,-2.8631975650787354 -19.21281623840332,-3.770345687866211 -18.95199966430664,-4.114999771118164 C-18.190000534057617,-4.980999946594238 -16.87299919128418,-5.066999912261963 -16.007999420166016,-4.309000015258789 C-16.007999420166016,-4.309000015258789 -16.007999420166016,-4.309000015258789 -16.007999420166016,-4.309000015258789 C-15.319999694824219,-3.7079999446868896 1.0019999742507935,10.1899995803833 15.869000434875488,-5.453999996185303 C16.663000106811523,-6.290999889373779 17.816938400268555,-6.6658430099487305 18.65393829345703,-5.869843006134033 C19.490938186645508,-5.07584285736084 18.467845916748047,-4.000594139099121 17.5941162109375,-3.248124599456787 C13.47650146484375,0.3189392387866974 6.256530284881592,4.0340189933776855 0.44853052496910095,4.0340189933776855z" />
            </g>
        </g>
        <g transform="matrix(0.9580581188201904,0.28657403588294983,-0.28657403588294983,0.9580581188201904,114.5708236694336,83.94084167480469)"
            opacity="1" style="display: block;">
            <g opacity="1" transform="matrix(1,0,0,1,0,0)">
                <path fill="rgb(0,0,0)" fill-opacity="1"
                    d=" M-15.829999923706055,-2.109999895095825 C-15.829999923706055,-2.109999895095825 -29.097999572753906,25.28499984741211 -17.264999389648438,24.316999435424805 C-5.432000160217285,23.349000930786133 -3.996999979019165,0.1599999964237213 -3.996999979019165,0.1599999964237213 C-3.996999979019165,0.1599999964237213 -3.9590001106262207,6.13700008392334 3.372999906539917,4.703000068664551 C10.704999923706055,3.2690000534057617 8.553000450134277,-7.488999843597412 8.553000450134277,-7.488999843597412 C8.553000450134277,-7.488999843597412 15.109000205993652,-2.8269999027252197 20.615999221801758,-7.488999843597412 C26.12299919128418,-12.151000022888184 15.276000022888184,-24.341999053955078 15.276000022888184,-24.341999053955078 C15.276000022888184,-24.341999053955078 -15.829999923706055,-2.109999895095825 -15.829999923706055,-2.109999895095825z" />
            </g>
        </g>
        <g transform="matrix(0.9822356104850769,0.18765178322792053,-0.18765178322792053,0.9822356104850769,-584.1546020507812,-568.4750366210938)"
            opacity="1" style="display: block;">
            <g opacity="1" transform="matrix(1,0,0,1,0,0)">
                <g opacity="1" transform="matrix(1,0,0,1,849.9249877929688,525.0269775390625)">
                    <path fill="rgb(244,244,244)" fill-opacity="1"
                        d=" M12.909000396728516,0 C12.909000396728516,7.129000186920166 7.129000186920166,12.909000396728516 0,12.909000396728516 C-7.129000186920166,12.909000396728516 -12.909000396728516,7.129000186920166 -12.909000396728516,0 C-12.909000396728516,-7.129000186920166 -7.129000186920166,-12.909000396728516 0,-12.909000396728516 C7.129000186920166,-12.909000396728516 12.909000396728516,-7.129000186920166 12.909000396728516,0z" />
                </g>
                <g opacity="1" transform="matrix(1,0,0,1,849.9249877929688,525.0269775390625)">
                    <path fill="rgb(0,0,0)" fill-opacity="1"
                        d=" M0,14.998000144958496 C-8.270000457763672,14.998000144958496 -14.998000144958496,8.270000457763672 -14.998000144958496,0 C-14.998000144958496,-8.270000457763672 -8.270000457763672,-14.998000144958496 0,-14.998000144958496 C8.270000457763672,-14.998000144958496 14.998000144958496,-8.270000457763672 14.998000144958496,0 C14.998000144958496,8.270000457763672 8.270000457763672,14.998000144958496 0,14.998000144958496z M0,-10.819999694824219 C-5.9670000076293945,-10.819999694824219 -10.819999694824219,-5.966000080108643 -10.819999694824219,0 C-10.819999694824219,5.966000080108643 -5.9670000076293945,10.819999694824219 0,10.819999694824219 C5.9670000076293945,10.819999694824219 10.819999694824219,5.966000080108643 10.819999694824219,0 C10.819999694824219,-5.966000080108643 5.9670000076293945,-10.819999694824219 0,-10.819999694824219z" />
                </g>
            </g>
            <g opacity="1" transform="matrix(1,0,0,1,0,0)">
                <g opacity="1" transform="matrix(1,0,0,1,812.1129760742188,525.0269775390625)">
                    <path fill="rgb(244,244,244)" fill-opacity="1"
                        d=" M12.909000396728516,0 C12.909000396728516,7.129000186920166 7.129000186920166,12.909000396728516 0,12.909000396728516 C-7.129000186920166,12.909000396728516 -12.909000396728516,7.129000186920166 -12.909000396728516,0 C-12.909000396728516,-7.129000186920166 -7.129000186920166,-12.909000396728516 0,-12.909000396728516 C7.129000186920166,-12.909000396728516 12.909000396728516,-7.129000186920166 12.909000396728516,0z" />
                </g>
                <g opacity="1" transform="matrix(1,0,0,1,812.1129760742188,525.0269775390625)">
                    <path fill="rgb(0,0,0)" fill-opacity="1"
                        d=" M0,14.998000144958496 C-8.270000457763672,14.998000144958496 -14.998000144958496,8.270000457763672 -14.998000144958496,0 C-14.998000144958496,-8.270000457763672 -8.270000457763672,-14.998000144958496 0,-14.998000144958496 C8.270000457763672,-14.998000144958496 14.998000144958496,-8.270000457763672 14.998000144958496,0 C14.998000144958496,8.270000457763672 8.270000457763672,14.998000144958496 0,14.998000144958496z M0,-10.819999694824219 C-5.9670000076293945,-10.819999694824219 -10.819999694824219,-5.966000080108643 -10.819999694824219,0 C-10.819999694824219,5.966000080108643 -5.9670000076293945,10.819999694824219 0,10.819999694824219 C5.9670000076293945,10.819999694824219 10.819999694824219,5.966000080108643 10.819999694824219,0 C10.819999694824219,-5.966000080108643 5.9670000076293945,-10.819999694824219 0,-10.819999694824219z" />
                </g>
            </g>
            <g opacity="1" transform="matrix(1,0,0,1,830.156982421875,525.0269775390625)">
                <g opacity="1" transform="matrix(1,0,0,1,0,0)">
                    <path fill="rgb(0,0,0)" fill-opacity="1"
                        d=" M5.133999824523926,2.0889999866485596 C5.133999824523926,2.0889999866485596 -5.133999824523926,2.0889999866485596 -5.133999824523926,2.0889999866485596 C-6.2870001792907715,2.0889999866485596 -7.2230000495910645,1.152999997138977 -7.2230000495910645,0 C-7.2230000495910645,-1.152999997138977 -6.2870001792907715,-2.0889999866485596 -5.133999824523926,-2.0889999866485596 C-5.133999824523926,-2.0889999866485596 5.133999824523926,-2.0889999866485596 5.133999824523926,-2.0889999866485596 C6.2870001792907715,-2.0889999866485596 7.2230000495910645,-1.152999997138977 7.2230000495910645,0 C7.2230000495910645,1.152999997138977 6.2870001792907715,2.0889999866485596 5.133999824523926,2.0889999866485596z" />
                </g>
            </g>
        </g>
    </g>
</svg>