<svg xmlns="http://www.w3.org/2000/svg" xmlns:xlink="http://www.w3.org/1999/xlink" viewBox="0 0 225 225" width="225"
    height="225" preserveAspectRatio="xMidYMid meet"
    style="width: 100%; height: 100%; transform: translate3d(0px, 0px, 0px); content-visibility: visible;" id="chica">
    <defs>
        <clipPath id="__lottie_element_4370">
            <rect width="225" height="225" x="0" y="0" />
        </clipPath>
        <g id="__lottie_element_4379">
            <g transform="matrix(1,0,0,1,112.88700103759766,112.52300262451172)" opacity="1" style="display: block;">
                <g opacity="1" transform="matrix(1,0,0,1,0,0)">
                    <path fill="rgb(232,232,232)" fill-opacity="1"
                        d=" M112.04100036621094,0 C112.04100036621094,61.87799835205078 61.87799835205078,112.04100036621094 0,112.04100036621094 C-61.87799835205078,112.04100036621094 -112.04100036621094,61.87799835205078 -112.04100036621094,0 C-112.04100036621094,-61.87799835205078 -61.87799835205078,-112.04100036621094 0,-112.04100036621094 C61.87799835205078,-112.04100036621094 112.04100036621094,-61.87799835205078 112.04100036621094,0z" />
                </g>
            </g>
        </g>
        <g id="__lottie_element_4386">
            <g transform="matrix(1,0,0,1,112.88700103759766,112.52300262451172)" opacity="1" style="display: block;">
                <g opacity="1" transform="matrix(1,0,0,1,0,0)">
                    <path fill="rgb(232,232,232)" fill-opacity="1"
                        d=" M112.04100036621094,0 C112.04100036621094,61.87799835205078 61.87799835205078,112.04100036621094 0,112.04100036621094 C-61.87799835205078,112.04100036621094 -112.04100036621094,61.87799835205078 -112.04100036621094,0 C-112.04100036621094,-61.87799835205078 -61.87799835205078,-112.04100036621094 0,-112.04100036621094 C61.87799835205078,-112.04100036621094 112.04100036621094,-61.87799835205078 112.04100036621094,0z" />
                </g>
            </g>
        </g>
        <mask id="__lottie_element_4386_1" mask-type="alpha">
            <use xmlns:ns1="http://www.w3.org/1999/xlink" ns1:href="#__lottie_element_4386" />
        </mask>
        <mask id="__lottie_element_4379_1" mask-type="alpha">
            <use xmlns:ns2="http://www.w3.org/1999/xlink" ns2:href="#__lottie_element_4379" />
        </mask>
    </defs>
    <g clip-path="url(#__lottie_element_4370)">
        <g transform="matrix(1,0,0,1,112.88700103759766,112.52300262451172)" opacity="1" style="display: block;">
            <g opacity="1" transform="matrix(1,0,0,1,0,0)">
                <path fill="rgb(232,232,232)" fill-opacity="1"
                    d=" M112.04100036621094,0 C112.04100036621094,61.87799835205078 61.87799835205078,112.04100036621094 0,112.04100036621094 C-61.87799835205078,112.04100036621094 -112.04100036621094,61.87799835205078 -112.04100036621094,0 C-112.04100036621094,-61.87799835205078 -61.87799835205078,-112.04100036621094 0,-112.04100036621094 C61.87799835205078,-112.04100036621094 112.04100036621094,-61.87799835205078 112.04100036621094,0z" />
            </g>
        </g>
        <g mask="url(#__lottie_element_4386_1)" style="display: block;">
            <g transform="matrix(0.9988812804222107,-0.04728901758790016,0.04728901758790016,0.9988812804222107,117.78168487548828,133.044921875)"
                opacity="1">
                <g opacity="1" transform="matrix(1,0,0,1,0,0)">
                    <path fill="rgb(0,0,0)" fill-opacity="1"
                        d=" M-8.10200023651123,-69.58200073242188 C-8.10200023651123,-69.58200073242188 -42.124000549316406,-77.56199645996094 -42.40800094604492,-43.69599914550781 C-42.4640007019043,-36.970001220703125 -52.96699905395508,-39.37200164794922 -52.10599899291992,-27.243999481201172 C-50.80799865722656,-8.954999923706055 -71.9729995727539,-10.739999771118164 -61.36399841308594,2.453000068664551 C-49.297000885009766,17.459999084472656 -80.06900024414062,17.760000228881836 -70.48500061035156,28.565000534057617 C-55.90999984741211,44.99700164794922 -82.13600158691406,41.93199920654297 -82.99400329589844,59.27299880981445 C-84.38400268554688,87.36000061035156 -36.167999267578125,74.88700103759766 -12.204999923706055,79.0510025024414 C11.758000373840332,83.21499633789062 77.83200073242188,69.64299774169922 79.56300354003906,68.47100067138672 C81.29399871826172,67.29900360107422 88.83200073242188,51.88600158691406 74.06600189208984,45.28900146484375 C51.14899826049805,35.04899978637695 78.58799743652344,27.895000457763672 68.12000274658203,19.066999435424805 C48.96699905395508,2.9140000343322754 75.56500244140625,0.6150000095367432 62.15800094604492,-8.98799991607666 C57.4739990234375,-12.343000411987305 54.07699966430664,-12.746999740600586 53.099998474121094,-15.697999954223633 C51.279998779296875,-21.19300079345703 56.617000579833984,-27.332000732421875 49.404998779296875,-32.867000579833984 C38.31999969482422,-41.375 53.321998596191406,-60.902000427246094 31.773000717163086,-74.96199798583984 C17.73900032043457,-84.11799621582031 3.263000011444092,-79.28199768066406 -8.10200023651123,-69.58200073242188z" />
                </g>
            </g>
        </g>
        <g mask="url(#__lottie_element_4379_1)" style="display: block;">
            <g transform="matrix(0.9980298280715942,0.06274127215147018,-0.06274127215147018,0.9980298280715942,-349.4770202636719,-700.1480102539062)"
                opacity="1">
                <g opacity="1" transform="matrix(1,0,0,1,0,0)">
                    <g opacity="1" transform="matrix(1,0,0,1,522.677978515625,829.573974609375)">
                        <path fill="rgb(244,244,244)" fill-opacity="1"
                            d=" M-28.097999572753906,21.520999908447266 C-20.466999053955078,7.995999813079834 -26.674999237060547,-26.774999618530273 -26.674999237060547,-26.774999618530273 C-26.674999237060547,-26.774999618530273 23.593000411987305,-33.09400177001953 23.593000411987305,-33.09400177001953 C23.593000411987305,-33.09400177001953 21.68000030517578,21.638999938964844 28.097999572753906,21 C28.097999572753906,21 -3.9860000610351562,47.86000061035156 -28.097999572753906,21.520999908447266z" />
                    </g>
                    <g opacity="1" transform="matrix(1,0,0,1,522.677978515625,829.5469970703125)">
                        <path fill="rgb(0,0,0)" fill-opacity="1"
                            d=" M-3.2850000858306885,35.154998779296875 C-11.979000091552734,35.154998779296875 -21.273000717163086,32.097999572753906 -29.638999938964844,22.95800018310547 C-30.249000549316406,22.29199981689453 -30.361000061035156,21.308000564575195 -29.91699981689453,20.520999908447266 C-22.738000869750977,7.796999931335449 -28.670000076293945,-26.041000366210938 -28.731000900268555,-26.381000518798828 C-28.832000732421875,-26.944000244140625 -28.695999145507812,-27.525999069213867 -28.35700035095215,-27.98699951171875 C-28.01799964904785,-28.447999954223633 -27.503999710083008,-28.75 -26.93600082397461,-28.820999145507812 C-26.93600082397461,-28.820999145507812 23.33300018310547,-35.138999938964844 23.33300018310547,-35.138999938964844 C23.937000274658203,-35.2140007019043 24.548999786376953,-35.02199935913086 25.00200080871582,-34.60900115966797 C25.452999114990234,-34.19599914550781 25.70199966430664,-33.60499954223633 25.680999755859375,-32.99300003051758 C24.889999389648438,-10.371999740600586 25.70800018310547,15.581999778747559 28.388999938964844,18.958999633789062 C29.106000900268555,19.059999465942383 29.733999252319336,19.527999877929688 30.02400016784668,20.216999053955078 C30.378000259399414,21.062000274658203 30.142000198364258,22.041000366210938 29.43899917602539,22.628999710083008 C29.214000701904297,22.816999435424805 14.175999641418457,35.154998779296875 -3.2850000858306885,35.154998779296875z M-25.56800079345703,21.18199920654297 C-6.302000045776367,40.84299850463867 17.749000549316406,26.038999557495117 24.783000946044922,20.94099998474121 C20.59000015258789,13.187000274658203 21.035999298095703,-17.70400047302246 21.426000595092773,-30.68899917602539 C21.426000595092773,-30.68899917602539 -24.261999130249023,-24.94700050354004 -24.261999130249023,-24.94700050354004 C-23.06599998474121,-17.266000747680664 -19.673999786376953,8.434000015258789 -25.56800079345703,21.18199920654297z" />
                    </g>
                </g>
                <g opacity="1" transform="matrix(1,0,0,1,524.7239990234375,871.8369750976562)">
                    <g opacity="1" transform="matrix(1,0,0,1,0,0)">
                        <path fill="rgb(243,210,105)" fill-opacity="1"
                            d=" M-25.65399932861328,-27.87700080871582 C-25.65399932861328,-27.87700080871582 -84.06700134277344,11.939000129699707 -84.06700134277344,11.939000129699707 C-84.06700134277344,11.939000129699707 -3.7360000610351562,33.58599853515625 38.72700119018555,27.402999877929688 C81.19000244140625,21.219999313354492 84.06700134277344,2.8499999046325684 84.06700134277344,2.8499999046325684 C84.06700134277344,2.8499999046325684 20.003999710083008,-28.513999938964844 20.003999710083008,-28.513999938964844 C20.003999710083008,-28.513999938964844 1.9630000591278076,-10.581999778747559 -25.65399932861328,-27.87700080871582z" />
                    </g>
                </g>
                <g opacity="1" transform="matrix(1,0,0,1,521.1229858398438,856.7839965820312)">
                    <g opacity="1" transform="matrix(1,0,0,1,0,0)">
                        <path fill="rgb(0,0,0)" fill-opacity="1"
                            d=" M3.065999984741211,5.613999843597412 C-11.196999549865723,5.613999843597412 -20.843000411987305,-1.4429999589920044 -21.392000198364258,-1.8539999723434448 C-22.315000534057617,-2.5450000762939453 -22.503000259399414,-3.8550000190734863 -21.812000274658203,-4.7779998779296875 C-21.121999740600586,-5.701000213623047 -19.812999725341797,-5.88700008392334 -18.889999389648438,-5.197999954223633 C-18.180999755859375,-4.672999858856201 -1.9539999961853027,7.073999881744385 19.320999145507812,-1.9880000352859497 C20.384000778198242,-2.437000036239624 21.607999801635742,-1.9450000524520874 22.06100082397461,-0.8840000033378601 C22.51300048828125,0.17800000309944153 22.020000457763672,1.4040000438690186 20.95800018310547,1.8559999465942383 C14.498000144958496,4.60699987411499 8.45199966430664,5.613999843597412 3.065999984741211,5.613999843597412z" />
                    </g>
                </g>
            </g>
        </g>
        <g transform="matrix(0.9988812804222107,-0.04728901758790016,0.04728901758790016,0.9988812804222107,-440.4720458984375,-643.5656127929688)"
            opacity="1" style="display: block;">
            <g opacity="1" transform="matrix(1,0,0,1,0,0)">
                <g opacity="1" transform="matrix(1,0,0,1,520.6110229492188,777.9520263671875)">
                    <g opacity="1" transform="matrix(1,0,0,1,0,0)">
                        <path fill="rgb(244,244,244)" fill-opacity="1"
                            d=" M22.64299964904785,38.388999938964844 C32.78099822998047,31.687000274658203 41.768001556396484,18.66900062561035 42.60300064086914,4.734000205993652 C44.01300048828125,-18.795000076293945 26.08099937438965,-39.01100158691406 2.552000045776367,-40.42100143432617 C-20.976999282836914,-41.83100128173828 -41.19300079345703,-23.89900016784668 -42.60300064086914,-0.3700000047683716 C-43.573001861572266,15.819999694824219 -35.38600158691406,30.44099998474121 -22.518999099731445,38.446998596191406 C-22.518999099731445,38.446998596191406 -20.92300033569336,39.37900161743164 -18.138999938964844,40.499000549316406 C-18.138999938964844,40.499000549316406 22.64299964904785,38.388999938964844 22.64299964904785,38.388999938964844z" />
                    </g>
                </g>
                <g opacity="1" transform="matrix(1,0,0,1,520.6119995117188,777.9520263671875)">
                    <path fill="rgb(0,0,0)" fill-opacity="1"
                        d=" M-18.138999938964844,42.5880012512207 C-18.39900016784668,42.5880012512207 -18.663000106811523,42.540000915527344 -18.91900062561035,42.43600082397461 C-21.81100082397461,41.27299880981445 -23.50200080871582,40.292999267578125 -23.57200050354004,40.25199890136719 C-37.599998474121094,31.52400016784668 -45.672000885009766,15.92300033569336 -44.68899917602539,-0.4950000047683716 C-43.9739990234375,-12.432000160217285 -38.65299987792969,-23.375999450683594 -29.707000732421875,-31.31100082397461 C-20.76099967956543,-39.24700164794922 -9.267000198364258,-43.220001220703125 2.677000045776367,-42.50600051879883 C27.31800079345703,-41.029998779296875 46.16400146484375,-19.783000946044922 44.6879997253418,4.859000205993652 C43.76300048828125,20.29599952697754 33.52799987792969,33.696998596191406 23.795000076293945,40.13100051879883 C22.83300018310547,40.766998291015625 21.535999298095703,40.50299835205078 20.900999069213867,39.540000915527344 C20.264999389648438,38.577999114990234 20.52899932861328,37.28200149536133 21.492000579833984,36.645999908447266 C30.357999801635742,30.78499984741211 39.67900085449219,18.606000900268555 40.518001556396484,4.609000205993652 C41.85599899291992,-17.732999801635742 24.76799964904785,-36.99800109863281 2.427000045776367,-38.33599853515625 C-8.395999908447266,-38.987998962402344 -18.822999954223633,-35.380001068115234 -26.934999465942383,-28.18600082397461 C-35.04600143432617,-20.992000579833984 -39.87099838256836,-11.067999839782715 -40.51900100708008,-0.24500000476837158 C-41.4109992980957,14.640999794006348 -34.09000015258789,28.78700065612793 -21.416000366210938,36.67399978637695 C-21.416000366210938,36.67399978637695 -21.41699981689453,36.67399978637695 -21.41699981689453,36.67399978637695 C-21.415000915527344,36.67399978637695 -19.908000946044922,37.53499984741211 -17.358999252319336,38.56100082397461 C-16.288999557495117,38.992000579833984 -15.770000457763672,40.20899963378906 -16.201000213623047,41.27799987792969 C-16.52899932861328,42.09299850463867 -17.312000274658203,42.5880012512207 -18.138999938964844,42.5880012512207z" />
                </g>
            </g>
            <g opacity="1" transform="matrix(1,0,0,1,524.7459716796875,820.1099853515625)">
                <g opacity="1" transform="matrix(1,0,0,1,0,0)">
                    <path fill="rgb(0,0,0)" fill-opacity="1"
                        d=" M-0.6489999890327454,2.8610000610351562 C-4.230000019073486,2.8610000610351562 -7.0980000495910645,2.1410000324249268 -7.302999973297119,2.0880000591278076 C-8.420000076293945,1.8009999990463257 -9.092000007629395,0.6620000004768372 -8.805000305175781,-0.45500001311302185 C-8.517000198364258,-1.5709999799728394 -7.380000114440918,-2.246999979019165 -6.264999866485596,-1.9579999446868896 C-6.264999866485596,-1.9579999446868896 -6.264999866485596,-1.9579999446868896 -6.264999866485596,-1.9579999446868896 C-6.192999839782715,-1.940000057220459 1.0399999618530273,-0.14499999582767487 5.820000171661377,-2.625 C6.84499979019165,-3.1579999923706055 8.104999542236328,-2.756999969482422 8.63599967956543,-1.7330000400543213 C9.166999816894531,-0.7099999785423279 8.767999649047852,0.5509999990463257 7.744999885559082,1.0820000171661377 C5.091000080108643,2.4600000381469727 2.0220000743865967,2.8610000610351562 -0.6489999890327454,2.8610000610351562z" />
                </g>
            </g>
            <g opacity="1" transform="matrix(1,0,0,1,497.7669982910156,754.9299926757812)">
                <g opacity="1" transform="matrix(1,0,0,1,0,0)">
                    <path fill="rgb(0,0,0)" fill-opacity="1"
                        d=" M-20.20800018310547,21.423999786376953 C-20.20800018310547,21.423999786376953 -3.6530001163482666,17.356000900268555 6.815000057220459,4.315000057220459 C17.283000946044922,-8.72599983215332 13.991000175476074,-14.229000091552734 19.790000915527344,-16.424999237060547 C25.589000701904297,-18.621000289916992 3.7990000247955322,-22.863000869750977 -2.9570000171661377,-20.93400001525879 C-6.877999782562256,-19.815000534057617 -12.588000297546387,-5.002999782562256 -18.232999801635742,6.705999851226807 C-22.31599998474121,15.173999786376953 -20.232999801635742,19.89299964904785 -20.20800018310547,21.423999786376953z" />
                </g>
            </g>
        </g>
        <g transform="matrix(0.9988812804222107,-0.04728901758790016,0.04728901758790016,0.9988812804222107,-440.4720458984375,-643.5656127929688)"
            opacity="1" style="display: block;">
            <g opacity="1" transform="matrix(1,0,0,1,539.5579833984375,773.625)">
                <g opacity="1" transform="matrix(1,0,0,1,0,0)">
                    <path fill="rgb(0,0,0)" fill-opacity="1"
                        d=" M0.25600001215934753,4.443999767303467 C-1.1119999885559082,4.443999767303467 -2.3949999809265137,4.203000068664551 -3.5880000591278076,3.7200000286102295 C-7.502999782562256,2.134999990463257 -8.836999893188477,-1.5 -8.892000198364258,-1.6540000438690186 C-9.279999732971191,-2.740999937057495 -8.713000297546387,-3.934999942779541 -7.625999927520752,-4.322999954223633 C-6.547999858856201,-4.706999778747559 -5.357999801635742,-4.150000095367432 -4.9629998207092285,-3.0739998817443848 C-4.918000221252441,-2.9560000896453857 -4.127999782562256,-0.9789999723434448 -1.968999981880188,-0.13099999725818634 C0.07100000232458115,0.6700000166893005 2.752000093460083,0.26100000739097595 5.999000072479248,-1.343999981880188 C7.035999774932861,-1.8539999723434448 8.286999702453613,-1.4290000200271606 8.79800033569336,-0.3959999978542328 C9.309000015258789,0.6389999985694885 8.883999824523926,1.8899999856948853 7.849999904632568,2.4019999504089355 C5.0960001945495605,3.76200008392334 2.556999921798706,4.443999767303467 0.25600001215934753,4.443999767303467z" />
                </g>
            </g>
            <g opacity="1" transform="matrix(1,0,0,1,504.0169982910156,774.7620239257812)">
                <g opacity="1" transform="matrix(1,0,0,1,0,0)">
                    <path fill="rgb(0,0,0)" fill-opacity="1"
                        d=" M0.19099999964237213,4.171999931335449 C-2.3369998931884766,4.171999931335449 -5.105999946594238,3.2880001068115234 -8.079000473022461,1.524999976158142 C-9.071000099182129,0.9369999766349792 -9.39900016784668,-0.3449999988079071 -8.810999870300293,-1.3380000591278076 C-8.222000122070312,-2.3299999237060547 -6.940000057220459,-2.6579999923706055 -5.948999881744385,-2.069000005722046 C-2.8320000171661377,-0.22100000083446503 -0.1889999955892563,0.3919999897480011 1.9040000438690186,-0.2549999952316284 C4.142000198364258,-0.9419999718666077 5.077000141143799,-2.88100004196167 5.116000175476074,-2.9630000591278076 C5.604000091552734,-4 6.839000225067139,-4.460999965667725 7.879000186920166,-3.9830000400543213 C8.920000076293945,-3.50600004196167 9.387999534606934,-2.2920000553131104 8.92300033569336,-1.246000051498413 C8.857000350952148,-1.097000002861023 7.25,2.4260001182556152 3.2260000705718994,3.7090001106262207 C2.257999897003174,4.01800012588501 1.246000051498413,4.171999931335449 0.19099999964237213,4.171999931335449z" />
                </g>
            </g>
        </g>
        <g transform="matrix(0.9988812804222107,-0.04728901758790016,0.04728901758790016,0.9988812804222107,118.84443664550781,125.97376251220703)"
            opacity="1" style="display: block;">
            <g opacity="1" transform="matrix(1,0,0,1,0,0)">
                <path fill="rgb(0,0,0)" fill-opacity="1"
                    d=" M4.926546096801758,0.42579635977745056 C4.926149845123291,1.9586009979248047 1.7125344276428223,3.7627506256103516 -0.15346552431583405,3.6917505264282227 C-2.019465446472168,3.620750665664673 -5.048564434051514,1.7356358766555786 -5.082702159881592,0.30893728137016296 C-5.194918155670166,-1.7108535766601562 -1.7150369882583618,-2.8243136405944824 0.15096302330493927,-2.7533135414123535 C2.016963005065918,-2.6823136806488037 4.748264312744141,-1.6135139465332031 4.926546096801758,0.42579635977745056z" />
            </g>
        </g>
    </g>
</svg>