<svg xmlns="http://www.w3.org/2000/svg" xmlns:xlink="http://www.w3.org/1999/xlink" viewBox="0 0 225 225" width="225"
    height="225" preserveAspectRatio="xMidYMid meet"
    style="width: 100%; height: 100%; transform: translate3d(0px, 0px, 0px); content-visibility: visible;"
    id="caballero">
    <defs>
        <clipPath id="__lottie_element_4615">
            <rect width="225" height="225" x="0" y="0" />
        </clipPath>
        <g id="__lottie_element_4625">
            <g transform="matrix(1,0,0,1,112.88700103759766,112.65599822998047)" opacity="1" style="display: block;">
                <g opacity="1" transform="matrix(1,0,0,1,0,0)">
                    <path fill="rgb(232,232,232)" fill-opacity="1"
                        d=" M112.04100036621094,0 C112.04100036621094,61.87799835205078 61.87799835205078,112.04100036621094 0,112.04100036621094 C-61.87799835205078,112.04100036621094 -112.04100036621094,61.87799835205078 -112.04100036621094,0 C-112.04100036621094,-61.87799835205078 -61.87799835205078,-112.04100036621094 0,-112.04100036621094 C61.87799835205078,-112.04100036621094 112.04100036621094,-61.87799835205078 112.04100036621094,0z" />
                </g>
            </g>
        </g>
        <mask id="__lottie_element_4625_1" mask-type="alpha">
            <use xmlns:ns1="http://www.w3.org/1999/xlink" ns1:href="#__lottie_element_4625" />
        </mask>
    </defs>
    <g clip-path="url(#__lottie_element_4615)">
        <g transform="matrix(1,0,0,1,112.88700103759766,112.65599822998047)" opacity="1" style="display: block;">
            <g opacity="1" transform="matrix(1,0,0,1,0,0)">
                <path fill="rgb(232,232,232)" fill-opacity="1"
                    d=" M112.04100036621094,0 C112.04100036621094,61.87799835205078 61.87799835205078,112.04100036621094 0,112.04100036621094 C-61.87799835205078,112.04100036621094 -112.04100036621094,61.87799835205078 -112.04100036621094,0 C-112.04100036621094,-61.87799835205078 -61.87799835205078,-112.04100036621094 0,-112.04100036621094 C61.87799835205078,-112.04100036621094 112.04100036621094,-61.87799835205078 112.04100036621094,0z" />
            </g>
        </g>
        <g transform="matrix(0.9729069471359253,-0.2311970591545105,0.2311970591545105,0.9729069471359253,-472.302001953125,-52.14715576171875)"
            opacity="1" style="display: block;">
            <g opacity="1" transform="matrix(1,0,0,1,541.3280029296875,298.552001953125)">
                <path fill="rgb(244,244,244)" fill-opacity="1"
                    d=" M-6.486000061035156,72.3290023803711 C-6.486000061035156,72.3290023803711 -1.284000039100647,20.714000701904297 -1.284000039100647,20.714000701904297 C-1.284000039100647,20.714000701904297 42.08700180053711,27.915000915527344 50.457000732421875,26.986000061035156 C58.82699966430664,26.05699920654297 66.91999816894531,2.683000087738037 66.91999816894531,2.683000087738037 C66.91999816894531,2.683000087738037 18.315000534057617,-17.698999404907227 18.315000534057617,-17.698999404907227 C18.315000534057617,-17.698999404907227 14.684000015258789,-20.503000259399414 12.039999961853027,-25.400999069213867 C9.395999908447266,-30.298999786376953 -19.966999053955078,-39.766998291015625 -19.966999053955078,-39.766998291015625 C-19.966999053955078,-39.766998291015625 -34.22100067138672,-72.3290023803711 -34.22100067138672,-72.3290023803711 C-34.22100067138672,-72.3290023803711 -51.457000732421875,-33.37799835205078 -51.457000732421875,-33.37799835205078 C-51.457000732421875,-33.37799835205078 -51.457000732421875,-22.672000885009766 -51.457000732421875,-22.672000885009766 C-51.457000732421875,-22.672000885009766 -66.91999816894531,21.81100082397461 -66.91999816894531,21.81100082397461 C-66.91999816894531,21.81100082397461 -50.33399963378906,62.85100173950195 -47.95600128173828,63.14899826049805 C-45.577999114990234,63.446998596191406 -6.486000061035156,72.3290023803711 -6.486000061035156,72.3290023803711z" />
            </g>
            <g opacity="1" transform="matrix(1,0,0,1,541.3280029296875,298.552001953125)">
                <path fill="rgb(0,0,0)" fill-opacity="1"
                    d=" M-6.482999801635742,74.19100189208984 C-6.546000003814697,74.19100189208984 -6.609000205993652,74.18800354003906 -6.671999931335449,74.18199920654297 C-7.695000171661377,74.0790023803711 -8.440999984741211,73.16600036621094 -8.338000297546387,72.14299774169922 C-8.338000297546387,72.14299774169922 -3.135999917984009,20.527999877929688 -3.135999917984009,20.527999877929688 C-3.0850000381469727,20.016000747680664 -2.8239998817443848,19.54800033569336 -2.4149999618530273,19.235000610351562 C-2.00600004196167,18.922000885009766 -1.4850000143051147,18.79400062561035 -0.9779999852180481,18.87700080871582 C13.9350004196167,21.35300064086914 43.823001861572266,25.843000411987305 50.25199890136719,25.135000228881836 C55.16899871826172,24.589000701904297 61.36000061035156,12.336999893188477 64.56900024414062,3.7170000076293945 C64.56900024414062,3.7170000076293945 17.59600067138672,-15.982000350952148 17.59600067138672,-15.982000350952148 C17.44700050354004,-16.045000076293945 17.305999755859375,-16.12700080871582 17.17799949645996,-16.22599983215332 C17.017000198364258,-16.350000381469727 13.199999809265137,-19.33099937438965 10.401000022888184,-24.517000198364258 C8.98799991607666,-27.134000778198242 -8.605999946594238,-34.04499816894531 -22.38599967956543,-38.48899841308594 C-22.893999099731445,-38.65299987792969 -23.43000030517578,-41.0369987487793 -23.64299964904785,-41.5260009765625 C-23.64299964904785,-41.5260009765625 -34.22999954223633,-67.70700073242188 -34.22999954223633,-67.70700073242188 C-34.22999954223633,-67.70700073242188 -49.59400177001953,-32.98500061035156 -49.59400177001953,-32.98500061035156 C-49.59400177001953,-32.98500061035156 -49.59400177001953,-22.67099952697754 -49.59400177001953,-22.67099952697754 C-49.59400177001953,-22.46299934387207 -49.630001068115234,-22.256000518798828 -49.698001861572266,-22.059999465942383 C-49.698001861572266,-22.059999465942383 -65.16100311279297,22.422000885009766 -65.16100311279297,22.422000885009766 C-65.49800109863281,23.39299964904785 -66.56099700927734,23.906999588012695 -67.53099822998047,23.56999969482422 C-68.50299835205078,23.232999801635742 -69.01699829101562,22.17099952697754 -68.67900085449219,21.200000762939453 C-68.67900085449219,21.200000762939453 -53.31800079345703,-22.986000061035156 -53.31800079345703,-22.986000061035156 C-53.31800079345703,-22.986000061035156 -53.31800079345703,-33.37799835205078 -53.31800079345703,-33.37799835205078 C-53.31800079345703,-33.637001037597656 -53.263999938964844,-33.89500045776367 -53.159000396728516,-34.13199996948242 C-53.159000396728516,-34.13199996948242 -35.92300033569336,-73.08300018310547 -35.92300033569336,-73.08300018310547 C-35.625,-73.75700378417969 -34.95800018310547,-74.19100189208984 -34.22100067138672,-74.19100189208984 C-34.220001220703125,-74.19100189208984 -34.21799850463867,-74.19100189208984 -34.21699905395508,-74.19100189208984 C-33.479000091552734,-74.19000244140625 -32.81100082397461,-73.75199890136719 -32.51499938964844,-73.07599639892578 C-32.51499938964844,-73.07599639892578 -18.597000122070312,-41.279998779296875 -18.597000122070312,-41.279998779296875 C-10.73900032043457,-38.71900177001953 10.993000030517578,-31.260000228881836 13.678999900817871,-26.28499984741211 C15.772000312805176,-22.408000946044922 18.566999435424805,-19.913999557495117 19.284000396728516,-19.312000274658203 C19.284000396728516,-19.312000274658203 67.63999938964844,0.9660000205039978 67.63999938964844,0.9660000205039978 C68.5459976196289,1.3459999561309814 69.0009994506836,2.365000009536743 68.68000030517578,3.2929999828338623 C67.81199645996094,5.798999786376953 59.93299865722656,27.80699920654297 50.6619987487793,28.836000442504883 C43.071998596191406,29.673999786376953 9.04699993133545,24.281999588012695 0.3700000047683716,22.87299919128418 C0.3700000047683716,22.87299919128418 -4.632999897003174,72.51599884033203 -4.632999897003174,72.51599884033203 C-4.730000019073486,73.47599792480469 -5.539000034332275,74.19100189208984 -6.482999801635742,74.19100189208984z" />
            </g>
            <g opacity="1" transform="matrix(1,0,0,1,0,0)">
                <g opacity="1" transform="matrix(1,0,0,1,580.7520141601562,321.80999755859375)">
                    <path fill="rgb(244,244,244)" fill-opacity="1"
                        d=" M-11.032999992370605,-3.7279999256134033 C-11.032999992370605,-3.7279999256134033 11.032999992370605,3.7279999256134033 11.032999992370605,3.7279999256134033 C11.032999992370605,3.7279999256134033 -11.032999992370605,-3.7279999256134033 -11.032999992370605,-3.7279999256134033z" />
                </g>
                <g opacity="1" transform="matrix(1,0,0,1,580.7520141601562,321.80999755859375)">
                    <path fill="rgb(0,0,0)" fill-opacity="1"
                        d=" M11.032999992370605,5.591000080108643 C10.836000442504883,5.591000080108643 10.635000228881836,5.559000015258789 10.437999725341797,5.492000102996826 C10.437999725341797,5.492000102996826 -11.628999710083008,-1.9639999866485596 -11.628999710083008,-1.9639999866485596 C-12.604000091552734,-2.2929999828338623 -13.126999855041504,-3.3489999771118164 -12.79699993133545,-4.323999881744385 C-12.468999862670898,-5.297999858856201 -11.411999702453613,-5.822000026702881 -10.437999725341797,-5.492000102996826 C-10.437999725341797,-5.492000102996826 11.628999710083008,1.9639999866485596 11.628999710083008,1.9639999866485596 C12.604000091552734,2.2929999828338623 13.126999855041504,3.3489999771118164 12.79699993133545,4.323999881744385 C12.53499984741211,5.099999904632568 11.8100004196167,5.591000080108643 11.032999992370605,5.591000080108643z" />
                </g>
            </g>
        </g>
        <g mask="url(#__lottie_element_4625_1)" style="display: block;">
            <g transform="matrix(1,0,0,1,-407,-177.99998474121094)" opacity="1">
                <g opacity="1" transform="matrix(1,0,0,1,501.2950134277344,369.1099853515625)">
                    <path fill="rgb(106,166,211)" fill-opacity="1"
                        d=" M-35.4640007019043,-47.29999923706055 C-35.4640007019043,-47.29999923706055 -58.46799850463867,9.439000129699707 -58.46799850463867,9.439000129699707 C-58.46799850463867,9.439000129699707 -9.105999946594238,47.29999923706055 -9.105999946594238,47.29999923706055 C-9.105999946594238,47.29999923706055 58.46799850463867,47.29999923706055 58.46799850463867,47.29999923706055 C58.46799850463867,47.29999923706055 40.60900115966797,13.482000350952148 40.60900115966797,13.482000350952148 C40.60900115966797,13.482000350952148 -35.4640007019043,-47.29999923706055 -35.4640007019043,-47.29999923706055z" />
                </g>
                <g opacity="1" transform="matrix(1,0,0,1,503.2560119628906,356.9159851074219)">
                    <g opacity="1" transform="matrix(1,0,0,1,0,0)">
                        <path fill="rgb(0,0,0)" fill-opacity="1"
                            d=" M38.073001861572266,33.2400016784668 C37.90399932861328,33.2400016784668 37.731998443603516,33.215999603271484 37.5620002746582,33.167999267578125 C37.5620002746582,33.167999267578125 -14.645999908447266,18.30699920654297 -14.645999908447266,18.30699920654297 C-15.475000381469727,18.070999145507812 -16.034000396728516,17.297000885009766 -15.996999740600586,16.43600082397461 C-15.996999740600586,16.43600082397461 -15.067000389099121,-5.269000053405762 -15.067000389099121,-5.269000053405762 C-15.067000389099121,-5.269000053405762 -37.62200164794922,0.3499999940395355 -37.62200164794922,0.3499999940395355 C-38.20600128173828,0.4950000047683716 -38.82099914550781,0.3499999940395355 -39.27899932861328,-0.039000000804662704 C-39.736000061035156,-0.42800000309944153 -39.97800064086914,-1.0140000581741333 -39.928001403808594,-1.6119999885559082 C-39.928001403808594,-1.6119999885559082 -37.42100143432617,-31.533000946044922 -37.42100143432617,-31.533000946044922 C-37.334999084472656,-32.55799865722656 -36.43000030517578,-33.31800079345703 -35.40999984741211,-33.233001708984375 C-34.3849983215332,-33.14699935913086 -33.624000549316406,-32.24599838256836 -33.709999084472656,-31.222000122070312 C-33.709999084472656,-31.222000122070312 -36,-3.8919999599456787 -36,-3.8919999599456787 C-36,-3.8919999599456787 -13.550000190734863,-9.484999656677246 -13.550000190734863,-9.484999656677246 C-12.979000091552734,-9.625 -12.376999855041504,-9.491000175476074 -11.92199993133545,-9.119999885559082 C-11.467000007629395,-8.748000144958496 -11.21500015258789,-8.184000015258789 -11.239999771118164,-7.5980000495910645 C-11.239999771118164,-7.5980000495910645 -12.213000297546387,15.126999855041504 -12.213000297546387,15.126999855041504 C-12.213000297546387,15.126999855041504 38.582000732421875,29.586000442504883 38.582000732421875,29.586000442504883 C39.57099914550781,29.868000030517578 40.14400100708008,30.898000717163086 39.862998962402344,31.886999130249023 C39.630001068115234,32.70600128173828 38.88399887084961,33.2400016784668 38.073001861572266,33.2400016784668z" />
                    </g>
                </g>
            </g>
        </g>
        <g transform="matrix(0.9247616529464722,-0.38054680824279785,0.38054680824279785,0.9247616529464722,-489.8146667480469,38.29813003540039)"
            opacity="1" style="display: block;">
            <g opacity="1" transform="matrix(1,0,0,1,508.9859924316406,253.63299560546875)">
                <path fill="rgb(244,244,244)" fill-opacity="1"
                    d=" M11.013999938964844,22.367000579833984 C16.33099937438965,18.645000457763672 13.234000205993652,17.992000579833984 14.701000213623047,12.343999862670898 C10.152000427246094,10.720999717712402 12.375,5.1519999504089355 12.375,5.1519999504089355 C12.375,5.1519999504089355 -1.878999948501587,-27.40999984741211 -1.878999948501587,-27.40999984741211 C-1.878999948501587,-27.40999984741211 -19.114999771118164,11.541000366210938 -19.114999771118164,11.541000366210938 C-19.114999771118164,11.541000366210938 -19.114999771118164,22.246999740600586 -19.114999771118164,22.246999740600586 C-19.114999771118164,22.246999740600586 -20.288000106811523,25.621000289916992 -20.288000106811523,25.621000289916992 C-9.293999671936035,28.06599998474121 1.6399999856948853,28.85700035095215 11.013999938964844,22.367000579833984z" />
            </g>
            <g opacity="1" transform="matrix(1,0,0,1,508.2950134277344,252.0030059814453)">
                <path fill="rgb(0,0,0)" fill-opacity="1"
                    d=" M14.435999870300293,5.269000053405762 C14.435999870300293,5.269000053405762 0.5180000066757202,-26.525999069213867 0.5180000066757202,-26.525999069213867 C0.22200000286102295,-27.20199966430664 -0.4449999928474426,-27.641000747680664 -1.1829999685287476,-27.642000198364258 C-1.184000015258789,-27.642000198364258 -1.1859999895095825,-27.642000198364258 -1.187000036239624,-27.642000198364258 C-1.9240000247955322,-27.642000198364258 -2.5920000076293945,-27.207000732421875 -2.890000104904175,-26.533000946044922 C-2.890000104904175,-26.533000946044922 -20.125999450683594,12.416999816894531 -20.125999450683594,12.416999816894531 C-20.231000900268555,12.654000282287598 -20.28499984741211,12.911999702453613 -20.28499984741211,13.170999526977539 C-20.28499984741211,13.170999526977539 -20.28499984741211,23.562999725341797 -20.28499984741211,23.562999725341797 C-20.28499984741211,23.562999725341797 -21.42099952697754,26.829999923706055 -21.42099952697754,26.829999923706055 C-20.200000762939453,27.1200008392334 -18.979999542236328,27.39299964904785 -17.76099967956543,27.642000198364258 C-17.76099967956543,27.642000198364258 -16.663999557495117,24.48900032043457 -16.663999557495117,24.48900032043457 C-16.59600067138672,24.292999267578125 -16.56100082397461,24.086000442504883 -16.56100082397461,23.878000259399414 C-16.56100082397461,23.878000259399414 -16.56100082397461,13.564000129699707 -16.56100082397461,13.564000129699707 C-16.56100082397461,13.564000129699707 -1.1970000267028809,-21.156999588012695 -1.1970000267028809,-21.156999588012695 C-1.1970000267028809,-21.156999588012695 11.359999656677246,7.5289998054504395 11.359999656677246,7.5289998054504395 C11.572999954223633,8.017999649047852 11.987000465393066,8.390000343322754 12.494999885559082,8.553999900817871 C15.121000289916992,9.401000022888184 16.599000930786133,9.906999588012695 19.86199951171875,7.849999904632568 C20.226999282836914,6.664999961853027 19.767000198364258,6.427999973297119 20.038000106811523,5.196000099182129 C17.261999130249023,4.216000080108643 16.19300079345703,5.841000080108643 14.435999870300293,5.269000053405762z" />
            </g>
            <g opacity="1" transform="matrix(1,0,0,1,0,0)">
                <g opacity="1" transform="matrix(1,0,0,1,502.14898681640625,258.7850036621094)">
                    <path fill="rgb(244,244,244)" fill-opacity="1"
                        d=" M1.4789999723434448,-11.597999572753906 C1.4789999723434448,-11.597999572753906 -4.318999767303467,3.7699999809265137 0.3199999928474426,11.597999572753906 C0.3199999928474426,11.597999572753906 1.4789999723434448,-11.597999572753906 1.4789999723434448,-11.597999572753906z" />
                </g>
                <g opacity="1" transform="matrix(1,0,0,1,502.1549987792969,258.7850036621094)">
                    <path fill="rgb(0,0,0)" fill-opacity="1"
                        d=" M0.3160000145435333,13.460000038146973 C-0.3199999928474426,13.460000038146973 -0.9399999976158142,13.133999824523926 -1.2879999876022339,12.54699993133545 C-6.324999809265137,4.046999931335449 -0.5180000066757202,-11.593000411987305 -0.2680000066757202,-12.255000114440918 C0.0949999988079071,-13.215999603271484 1.1690000295639038,-13.701000213623047 2.130000114440918,-13.34000015258789 C3.0920000076293945,-12.97700023651123 3.578000068664551,-11.902999877929688 3.2160000801086426,-10.940999984741211 C1.6929999589920044,-6.894999980926514 -1.5080000162124634,4.869999885559082 1.9160000085830688,10.64799976348877 C2.440000057220459,11.532999992370605 2.1480000019073486,12.675000190734863 1.2630000114440918,13.199000358581543 C0.9649999737739563,13.375 0.6389999985694885,13.460000038146973 0.3160000145435333,13.460000038146973z" />
                </g>
            </g>
        </g>
        <g transform="matrix(0.9729069471359253,-0.2311970591545105,0.2311970591545105,0.9729069471359253,-472.302001953125,-52.14715576171875)"
            opacity="1" style="display: block;">
            <g opacity="1" transform="matrix(1,0,0,1,541.8709716796875,284.0669860839844)">
                <path fill="rgb(244,244,244)" fill-opacity="1"
                    d=" M-9.765000343322754,-2.816999912261963 C-9.765000343322754,-2.816999912261963 2.484999895095825,10.215999603271484 9.765000343322754,-2.938999891281128 C9.765000343322754,-2.938999891281128 -9.765000343322754,-2.816999912261963 -9.765000343322754,-2.816999912261963z" />
            </g>
            <g opacity="1" transform="matrix(1,0,0,1,541.8709716796875,284.0660095214844)">
                <path fill="rgb(0,0,0)" fill-opacity="1"
                    d=" M1.4220000505447388,4.801000118255615 C-5.080999851226807,4.801000118255615 -10.864999771118164,-1.2669999599456787 -11.123000144958496,-1.5410000085830688 C-11.82699966430664,-2.2909998893737793 -11.789999961853027,-3.4690001010894775 -11.041000366210938,-4.173999786376953 C-10.291000366210938,-4.877999782562256 -9.114999771118164,-4.841000080108643 -8.40999984741211,-4.093999862670898 C-8.336000442504883,-4.014999866485596 -2.890000104904175,1.6710000038146973 2.2209999561309814,1.0269999504089355 C4.519999980926514,0.7360000014305115 6.510000228881836,-0.9020000100135803 8.13700008392334,-3.8410000801086426 C8.635000228881836,-4.739999771118164 9.769000053405762,-5.065000057220459 10.666999816894531,-4.567999839782715 C11.567000389099121,-4.070000171661377 11.892000198364258,-2.937000036239624 11.394000053405762,-2.0369999408721924 C9.157999992370605,2.005000114440918 6.223999977111816,4.28000020980835 2.674999952316284,4.723999977111816 C2.255000114440918,4.7769999504089355 1.8359999656677246,4.801000118255615 1.4220000505447388,4.801000118255615z" />
            </g>
        </g>
        <g transform="matrix(0.9729070663452148,-0.23119708895683289,0.23119708895683289,0.9729070663452148,184.15049743652344,105.32538604736328)"
            opacity="1" style="display: block;">
            <g opacity="1" transform="matrix(1,0,0,1,0,0)">
                <path fill="rgb(0,0,0)" fill-opacity="1"
                    d=" M-5.988999843597412,-7.359000205993652 C-5.988999843597412,-7.359000205993652 -0.550000011920929,7.359000205993652 -0.550000011920929,7.359000205993652 C-0.550000011920929,7.359000205993652 5.988999843597412,-3.740000009536743 5.988999843597412,-3.740000009536743 C5.988999843597412,-3.740000009536743 -5.988999843597412,-7.359000205993652 -5.988999843597412,-7.359000205993652z" />
            </g>
        </g>
        <g transform="matrix(0.9646428823471069,0,0,0.9646428823471069,33.015323638916016,96.62410736083984)"
            opacity="1" style="display: block;">
            <g opacity="1" transform="matrix(1,0,0,1,0,0)">
                <path stroke-linecap="round" stroke-linejoin="round" fill-opacity="0" stroke="rgb(0,0,0)"
                    stroke-opacity="1" stroke-width="3.724"
                    d=" M5.5229997634887695,0 C5.5229997634887695,3.049999952316284 3.049999952316284,5.5229997634887695 0,5.5229997634887695 C-3.049999952316284,5.5229997634887695 -5.5229997634887695,3.049999952316284 -5.5229997634887695,0 C-5.5229997634887695,-3.049999952316284 -3.049999952316284,-5.5229997634887695 0,-5.5229997634887695 C3.049999952316284,-5.5229997634887695 5.5229997634887695,-3.049999952316284 5.5229997634887695,0z" />
            </g>
        </g>
        <g transform="matrix(0.9646428823471069,0,0,0.9646428823471069,71.8177719116211,32.43299102783203)" opacity="1"
            style="display: block;">
            <g opacity="1" transform="matrix(1,0,0,1,0,0)">
                <path stroke-linecap="round" stroke-linejoin="round" fill-opacity="0" stroke="rgb(0,0,0)"
                    stroke-opacity="1" stroke-width="3.724"
                    d=" M5.5229997634887695,0 C5.5229997634887695,3.049999952316284 3.049999952316284,5.5229997634887695 0,5.5229997634887695 C-3.049999952316284,5.5229997634887695 -5.5229997634887695,3.049999952316284 -5.5229997634887695,0 C-5.5229997634887695,-3.049999952316284 -3.049999952316284,-5.5229997634887695 0,-5.5229997634887695 C3.049999952316284,-5.5229997634887695 5.5229997634887695,-3.049999952316284 5.5229997634887695,0z" />
            </g>
        </g>
        <g transform="matrix(0.9646428823471069,0,0,0.9646428823471069,151.10055541992188,33.087547302246094)"
            opacity="1" style="display: block;">
            <g opacity="1" transform="matrix(1,0,0,1,0,0)">
                <path stroke-linecap="round" stroke-linejoin="round" fill-opacity="0" stroke="rgb(0,0,0)"
                    stroke-opacity="1" stroke-width="3.724"
                    d=" M5.5229997634887695,0 C5.5229997634887695,3.049999952316284 3.049999952316284,5.5229997634887695 0,5.5229997634887695 C-3.049999952316284,5.5229997634887695 -5.5229997634887695,3.049999952316284 -5.5229997634887695,0 C-5.5229997634887695,-3.049999952316284 -3.049999952316284,-5.5229997634887695 0,-5.5229997634887695 C3.049999952316284,-5.5229997634887695 5.5229997634887695,-3.049999952316284 5.5229997634887695,0z" />
            </g>
        </g>
        <g transform="matrix(0.9646428823471069,0,0,0.9646428823471069,197.24122619628906,81.44466400146484)"
            opacity="1" style="display: block;">
            <g opacity="1" transform="matrix(1,0,0,1,0,0)">
                <path stroke-linecap="round" stroke-linejoin="round" fill-opacity="0" stroke="rgb(0,0,0)"
                    stroke-opacity="1" stroke-width="3.724"
                    d=" M5.5229997634887695,0 C5.5229997634887695,3.049999952316284 3.049999952316284,5.5229997634887695 0,5.5229997634887695 C-3.049999952316284,5.5229997634887695 -5.5229997634887695,3.049999952316284 -5.5229997634887695,0 C-5.5229997634887695,-3.049999952316284 -3.049999952316284,-5.5229997634887695 0,-5.5229997634887695 C3.049999952316284,-5.5229997634887695 5.5229997634887695,-3.049999952316284 5.5229997634887695,0z" />
            </g>
        </g>
        <g transform="matrix(0.9646428823471069,0,0,0.9646428823471069,167.92434692382812,184.828125)" opacity="1"
            style="display: block;">
            <g opacity="1" transform="matrix(1,0,0,1,0,0)">
                <path stroke-linecap="round" stroke-linejoin="round" fill-opacity="0" stroke="rgb(0,0,0)"
                    stroke-opacity="1" stroke-width="3.724"
                    d=" M5.5229997634887695,0 C5.5229997634887695,3.049999952316284 3.049999952316284,5.5229997634887695 0,5.5229997634887695 C-3.049999952316284,5.5229997634887695 -5.5229997634887695,3.049999952316284 -5.5229997634887695,0 C-5.5229997634887695,-3.049999952316284 -3.049999952316284,-5.5229997634887695 0,-5.5229997634887695 C3.049999952316284,-5.5229997634887695 5.5229997634887695,-3.049999952316284 5.5229997634887695,0z" />
            </g>
        </g>
    </g>
</svg>