<svg xmlns="http://www.w3.org/2000/svg" xmlns:xlink="http://www.w3.org/1999/xlink" viewBox="0 0 225 225" width="225"
    height="225" preserveAspectRatio="xMidYMid meet"
    style="width: 100%; height: 100%; transform: translate3d(0px, 0px, 0px); content-visibility: visible;"
    id="Guy In Headphones">
    <defs>
        <clipPath id="__lottie_element_1783">
            <rect width="225" height="225" x="0" y="0" />
        </clipPath>
        <g id="__lottie_element_1790">
            <g transform="matrix(1,0,0,1,112.9229965209961,112.65599822998047)" opacity="1" style="display: block;">
                <g opacity="1" transform="matrix(1,0,0,1,0,0)">
                    <path fill="rgb(232,232,232)" fill-opacity="1"
                        d=" M112.04100036621094,0 C112.04100036621094,61.87799835205078 61.87799835205078,112.04100036621094 0,112.04100036621094 C-61.87799835205078,112.04100036621094 -112.04100036621094,61.87799835205078 -112.04100036621094,0 C-112.04100036621094,-61.87799835205078 -61.87799835205078,-112.04100036621094 0,-112.04100036621094 C61.87799835205078,-112.04100036621094 112.04100036621094,-61.87799835205078 112.04100036621094,0z" />
                </g>
            </g>
        </g>
        <mask id="__lottie_element_1790_1" mask-type="alpha">
            <use xmlns:ns1="http://www.w3.org/1999/xlink" ns1:href="#__lottie_element_1790" />
        </mask>
    </defs>
    <g clip-path="url(#__lottie_element_1783)">
        <g transform="matrix(1,0,0,1,112.9229965209961,112.65599822998047)" opacity="1" style="display: block;">
            <g opacity="1" transform="matrix(1,0,0,1,0,0)">
                <path fill="rgb(232,232,232)" fill-opacity="1"
                    d=" M112.04100036621094,0 C112.04100036621094,61.87799835205078 61.87799835205078,112.04100036621094 0,112.04100036621094 C-61.87799835205078,112.04100036621094 -112.04100036621094,61.87799835205078 -112.04100036621094,0 C-112.04100036621094,-61.87799835205078 -61.87799835205078,-112.04100036621094 0,-112.04100036621094 C61.87799835205078,-112.04100036621094 112.04100036621094,-61.87799835205078 112.04100036621094,0z" />
            </g>
        </g>
        <g mask="url(#__lottie_element_1790_1)" style="display: block;">
            <g transform="matrix(1,0,0,1,-720,-178)" opacity="1">
                <g opacity="1" transform="matrix(1,0,0,1,838.8300170898438,384.156005859375)">
                    <g opacity="1" transform="matrix(1,0,0,1,0,0)">
                        <path fill="rgb(243,210,105)" fill-opacity="1"
                            d=" M-36.983001708984375,-26.54199981689453 C-36.983001708984375,-26.54199981689453 -85.74299621582031,9.63599967956543 -85.74299621582031,9.63599967956543 C-85.74299621582031,9.63599967956543 5.2769999504089355,33.810001373291016 47.29499816894531,25.099000930786133 C89.31300354003906,16.38800048828125 85.66300201416016,4.914999961853027 85.66300201416016,4.914999961853027 C85.66300201416016,4.914999961853027 35.16299819946289,-26.992000579833984 35.16299819946289,-26.992000579833984 C35.16299819946289,-26.992000579833984 -7.531000137329102,-5.020999908447266 -36.983001708984375,-26.54199981689453z" />
                    </g>
                </g>
                <g opacity="1" transform="matrix(1,0,0,1,810.5230102539062,338.64599609375)">
                    <g opacity="1" transform="matrix(1,0,0,1,0,0)">
                        <path fill="rgb(0,0,0)" fill-opacity="1"
                            d=" M-4.4730000495910645,17.388999938964844 C-4.875999927520752,17.388999938964844 -5.283999919891357,17.27199935913086 -5.642000198364258,17.02899932861328 C-6.5970001220703125,16.381999969482422 -6.8470001220703125,15.083000183105469 -6.201000213623047,14.128000259399414 C4.517000198364258,-1.6950000524520874 2.1429998874664307,-14.767999649047852 2.118000030517578,-14.89799976348877 C1.8980000019073486,-16.027000427246094 2.632999897003174,-17.125999450683594 3.763000011444092,-17.349000930786133 C4.894000053405762,-17.57200050354004 5.986999988555908,-16.841999053955078 6.214000225067139,-15.71399974822998 C6.334000110626221,-15.116999626159668 9.017000198364258,-0.8889999985694885 -2.742000102996826,16.47100067138672 C-3.1459999084472656,17.066999435424805 -3.802999973297119,17.388999938964844 -4.4730000495910645,17.388999938964844z" />
                    </g>
                </g>
                <g opacity="1" transform="matrix(1,0,0,1,864.718994140625,338.3479919433594)">
                    <g opacity="1" transform="matrix(1,0,0,1,0,0)">
                        <path fill="rgb(0,0,0)" fill-opacity="1"
                            d=" M4.625999927520752,17.99799919128418 C4.051000118255615,17.99799919128418 3.4800000190734863,17.761999130249023 3.066999912261963,17.299999237060547 C-9.496999740600586,3.2209999561309814 -6.422999858856201,-15.47700023651123 -6.284999847412109,-16.266000747680664 C-6.089000225067139,-17.402999877929688 -5.005000114440918,-18.165000915527344 -3.869999885559082,-17.966999053955078 C-2.7339999675750732,-17.768999099731445 -1.9739999771118164,-16.68899917602539 -2.1689999103546143,-15.553999900817871 C-2.1689999103546143,-15.553999900817871 -2.1689999103546143,-15.553999900817871 -2.1689999103546143,-15.553999900817871 C-2.1989998817443848,-15.380000114440918 -5.010000228881836,1.975000023841858 6.184000015258789,14.517999649047852 C6.952000141143799,15.378000259399414 6.875999927520752,16.698999404907227 6.015999794006348,17.468000411987305 C5.618000030517578,17.822999954223633 5.120999813079834,17.99799919128418 4.625999927520752,17.99799919128418z" />
                    </g>
                </g>
            </g>
        </g>
        <g transform="matrix(0.9984984993934631,-0.0547792986035347,0.0547792986035347,0.9984984993934631,-736.9591064453125,-128.63961791992188)"
            opacity="1" style="display: block;">
            <g opacity="1" transform="matrix(1,0,0,1,786.6669921875,284.06500244140625)">
                <g opacity="1" transform="matrix(1,0,0,1,0,0)">
                    <path fill="rgb(0,0,0)" fill-opacity="1"
                        d=" M12.385000228881836,-0.7730000019073486 C13.157999992370605,11.612000465393066 8.23900032043457,21.999000549316406 1.3990000486373901,22.426000595092773 C-5.440999984741211,22.85300064086914 -11.612000465393066,13.157999992370605 -12.385000228881836,0.7730000019073486 C-13.157999992370605,-11.612000465393066 -8.23900032043457,-21.999000549316406 -1.3990000486373901,-22.426000595092773 C5.440999984741211,-22.85300064086914 11.612000465393066,-13.157999992370605 12.385000228881836,-0.7730000019073486z" />
                </g>
            </g>
            <g opacity="1" transform="matrix(1,0,0,1,0,0)">
                <g opacity="1" transform="matrix(1,0,0,1,835.9920043945312,291.135009765625)">
                    <g opacity="1" transform="matrix(1,0,0,1,0,0)">
                        <path fill="rgb(244,244,244)" fill-opacity="1"
                            d=" M40.43000030517578,-21.784000396728516 C44.422000885009766,-17.194000244140625 42.9010009765625,-13.934000015258789 42.9010009765625,-7.447999954223633 C42.9010009765625,9.776000022888184 30.29800033569336,28.518999099731445 18.375999450683594,34.62900161743164 C4.376999855041504,41.80400085449219 -5.7729997634887695,39.52899932861328 -15.04800033569336,35.939998626708984 C-25.722999572753906,32.00400161743164 -40.417999267578125,12.187999725341797 -42.45800018310547,-7.447999954223633 C-42.45800018310547,-7.447999954223633 -44.09600067138672,-22.493999481201172 -42.45800018310547,-28.708999633789062 C-42.45800018310547,-28.708999633789062 10.055999755859375,-56.70500183105469 40.43000030517578,-21.784000396728516z" />
                    </g>
                </g>
                <g opacity="1" transform="matrix(1,0,0,1,835.8519897460938,296.43701171875)">
                    <path fill="rgb(0,0,0)" fill-opacity="1"
                        d=" M0.7639999985694885,36.10100173950195 C-5.298999786376953,36.10100173950195 -10.656999588012695,34.52299880981445 -15.66100025177002,32.58599853515625 C-27.207000732421875,28.32900047302246 -42.29399871826172,7.684999942779541 -44.39500045776367,-12.534000396728516 C-44.4630012512207,-13.154000282287598 -46.05400085449219,-28.02899932861328 -44.33700180053711,-34.542999267578125 C-44.042999267578125,-35.65800094604492 -42.90599822998047,-36.32699966430664 -41.78499984741211,-36.03099822998047 C-40.66999816894531,-35.73699951171875 -40.00400161743164,-34.595001220703125 -40.29800033569336,-33.479000091552734 C-41.560001373291016,-28.691999435424805 -40.683998107910156,-17.055999755859375 -40.24100112915039,-12.97599983215332 C-38.321998596191406,5.48799991607666 -24.41900062561035,24.905000686645508 -14.1850004196167,28.67799949645996 C-6.067999839782715,31.819000244140625 3.7179999351501465,34.5620002746582 17.56399917602539,27.468000411987305 C28.62700080871582,21.79800033569336 40.952999114990234,3.88700008392334 40.952999114990234,-12.75 C40.952999114990234,-12.75 40.95399856567383,-13.557999610900879 40.95399856567383,-13.557999610900879 C40.95800018310547,-19.386999130249023 40.959999084472656,-21.350000381469727 38.680999755859375,-26.197999954223633 C38.189998626708984,-27.240999221801758 38.63800048828125,-28.485000610351562 39.68199920654297,-28.97599983215332 C40.72600173950195,-29.468000411987305 41.970001220703125,-29.018999099731445 42.459999084472656,-27.975000381469727 C45.13800048828125,-22.281999588012695 45.13600158691406,-19.547000885009766 45.13100051879883,-13.555000305175781 C45.13100051879883,-13.555000305175781 45.13100051879883,-12.75 45.13100051879883,-12.75 C45.13100051879883,5.664000034332275 31.863000869750977,24.833999633789062 19.469999313354492,31.18600082397461 C12.46500015258789,34.775001525878906 6.318999767303467,36.10100173950195 0.7639999985694885,36.10100173950195z" />
                </g>
            </g>
            <g opacity="1" transform="matrix(1,0,0,1,783.0369873046875,246.56500244140625)">
                <g opacity="1" transform="matrix(1,0,0,1,0,0)">
                    <path fill="rgb(0,0,0)" fill-opacity="1"
                        d=" M6.363999843597412,24.875 C6.313000202178955,24.875 6.26200008392334,24.874000549316406 6.210000038146973,24.8700008392334 C5.888000011444092,24.847000122070312 -1.7430000305175781,24.216999053955078 -6.113999843597412,17.65999984741211 C-9.77400016784668,12.170000076293945 -9.96500015258789,4.388999938964844 -6.679999828338623,-5.465000152587891 C-2.875999927520752,-16.87700080871582 5.199999809265137,-24.055999755859375 5.541999816894531,-24.356000900268555 C6.408999919891357,-25.118000030517578 7.729000091552734,-25.031999588012695 8.489999771118164,-24.163999557495117 C9.25100040435791,-23.297000885009766 9.164999961853027,-21.976999282836914 8.29800033569336,-21.215999603271484 C8.223999977111816,-21.150999069213867 0.7179999947547913,-14.446000099182129 -2.7170000076293945,-4.144000053405762 C-5.564000129699707,4.3979997634887695 -5.546000003814697,10.940999984741211 -2.6640000343322754,15.303000450134277 C0.5460000038146973,20.163000106811523 6.464000225067139,20.698999404907227 6.52400016784668,20.70400047302246 C7.670000076293945,20.79800033569336 8.529999732971191,21.801000595092773 8.440999984741211,22.94700050354004 C8.355999946594238,24.04199981689453 7.445000171661377,24.875 6.363999843597412,24.875z" />
                </g>
            </g>
            <g opacity="1" transform="matrix(1,0,0,1,886.5759887695312,276.7969970703125)">
                <g opacity="1" transform="matrix(1,0,0,1,0,0)">
                    <path fill="rgb(0,0,0)" fill-opacity="1"
                        d=" M13.788999557495117,0 C13.788999557495117,12.427000045776367 7.616000175476074,22.5 0,22.5 C-7.616000175476074,22.5 -13.788999557495117,12.427000045776367 -13.788999557495117,0 C-13.788999557495117,-12.427000045776367 -7.616000175476074,-22.5 0,-22.5 C7.616000175476074,-22.5 13.788999557495117,-12.427000045776367 13.788999557495117,0z" />
                </g>
            </g>
            <g opacity="1" transform="matrix(1,0,0,1,861.3619995117188,239.15199279785156)">
                <g opacity="1" transform="matrix(1,0,0,1,0,0)">
                    <path fill="rgb(0,0,0)" fill-opacity="1"
                        d=" M20.35099983215332,19.594999313354492 C19.42099952697754,19.594999313354492 18.57200050354004,18.9689998626709 18.329999923706055,18.027000427246094 C18.01099967956543,16.798999786376953 10.300000190734863,-11.543999671936035 -20.61400032043457,-15.4350004196167 C-21.759000778198242,-15.579000473022461 -22.56999969482422,-16.62299919128418 -22.424999237060547,-17.76799964904785 C-22.2810001373291,-18.913000106811523 -21.23699951171875,-19.72100067138672 -20.091999053955078,-19.57900047302246 C13.70300006866455,-15.326000213623047 22.292999267578125,16.665000915527344 22.375999450683594,16.98699951171875 C22.66200065612793,18.104999542236328 21.98900032043457,19.242000579833984 20.871999740600586,19.52899932861328 C20.69700050354004,19.573999404907227 20.523000717163086,19.594999313354492 20.35099983215332,19.594999313354492z" />
                </g>
            </g>
            <g opacity="1" transform="matrix(1,0,0,1,864.8809814453125,239.15199279785156)">
                <g opacity="1" transform="matrix(1,0,0,1,0,0)">
                    <path fill="rgb(0,0,0)" fill-opacity="1"
                        d=" M20.350000381469727,19.594999313354492 C19.420000076293945,19.594999313354492 18.572999954223633,18.969999313354492 18.329999923706055,18.027999877929688 C18.329999923706055,18.027999877929688 18.329999923706055,18.027999877929688 18.329999923706055,18.027999877929688 C18.017000198364258,16.82200050354004 10.314000129699707,-11.541999816894531 -20.613000869750977,-15.4350004196167 C-21.757999420166016,-15.579000473022461 -22.56999969482422,-16.62299919128418 -22.424999237060547,-17.76799964904785 C-22.280000686645508,-18.913000106811523 -21.238000869750977,-19.72100067138672 -20.091999053955078,-19.57900047302246 C13.70199966430664,-15.326000213623047 22.292999267578125,16.665000915527344 22.375999450683594,16.98699951171875 C22.66200065612793,18.104999542236328 21.98900032043457,19.242000579833984 20.871999740600586,19.52899932861328 C20.69700050354004,19.573999404907227 20.52199935913086,19.594999313354492 20.350000381469727,19.594999313354492z" />
                </g>
            </g>
        </g>
        <g transform="matrix(0.9984984993934631,-0.0547792986035347,0.0547792986035347,0.9984984993934631,114.73187255859375,117.003173828125)"
            opacity="1" style="display: block;">
            <g opacity="1" transform="matrix(1,0,0,1,0,0)">
                <path fill="rgb(0,0,0)" fill-opacity="1"
                    d=" M-0.2070000022649765,1.5089999437332153 C-6.426000118255615,1.5089999437332153 -9.947999954223633,-0.6050000190734863 -10.180999755859375,-0.8130000233650208 C-11.041999816894531,-1.5800000429153442 -12.21500015258789,-1.7999999523162842 -11.447999954223633,-2.6619999408721924 C-10.682000160217285,-3.5220000743865967 -9.364999771118164,-3.5999999046325684 -8.503000259399414,-2.8359999656677246 C-8.503000259399414,-2.8359999656677246 -8.503000259399414,-2.8359999656677246 -8.503000259399414,-2.8359999656677246 C-8.454000473022461,-2.7939999103546143 -4.578000068664551,0.07199999690055847 0.4350000023841858,-0.5770000219345093 C3.009000062942505,-0.9139999747276306 6.23799991607666,-1.2050000429153442 8.14900016784668,-4.072000026702881 C8.791000366210938,-5.0320000648498535 10.086999893188477,-5.290999889373779 11.045000076293945,-4.651000022888184 C12.005000114440918,-4.011000156402588 11.25100040435791,-3.496000051498413 10.446999549865723,-2.6679999828338623 C7.743000030517578,0.11599999666213989 5.534999847412109,0.8169999718666077 1.7000000476837158,1.309999942779541 C1.1660000085830688,1.378999948501587 0.3140000104904175,1.5089999437332153 -0.2070000022649765,1.5089999437332153z" />
            </g>
        </g>
        <g transform="matrix(0.9767224788665771,-0.214507058262825,0.214507058262825,0.9767224788665771,69.3819580078125,64.16551208496094)"
            opacity="1" style="display: block;">
            <g opacity="1" transform="matrix(1,0,0,1,0,0)">
                <path fill="rgb(0,0,0)" fill-opacity="1"
                    d=" M1.8849999904632568,22.35099983215332 C1.3839999437332153,22.35099983215332 0.8809999823570251,22.17099952697754 0.48100000619888306,21.80699920654297 C-10.281000137329102,12.017999649047852 -14.901000022888184,3.2179999351501465 -13.253000259399414,-4.3460001945495605 C-10.887999534606934,-15.201000213623047 3.4649999141693115,-19.783000946044922 8.868000030517578,-21.507999420166016 C9.416000366210938,-21.683000564575195 10.027000427246094,-21.878000259399414 10.309000015258789,-21.983999252319336 C10.916999816894531,-22.402000427246094 11.729999542236328,-22.48200035095215 12.437000274658203,-22.12299919128418 C13.46500015258789,-21.600000381469727 13.87399959564209,-20.341999053955078 13.35099983215332,-19.31399917602539 C12.890000343322754,-18.406999588012695 12.25100040435791,-18.202999114990234 10.137999534606934,-17.527999877929688 C5.363999843597412,-16.003999710083008 -7.318999767303467,-11.956000328063965 -9.170999526977539,-3.4570000171661377 C-10.479000091552734,2.5439999103546143 -6.285999774932861,10.005000114440918 3.2909998893737793,18.716999053955078 C4.144999980926514,19.493000030517578 4.206999778747559,20.81399917602539 3.430999994277954,21.66699981689453 C3.0190000534057617,22.1200008392334 2.453000068664551,22.35099983215332 1.8849999904632568,22.35099983215332z M9.630000114440918,-21.211999893188477 C9.628999710083008,-21.211000442504883 9.628000259399414,-21.208999633789062 9.628000259399414,-21.20800018310547 C9.628000259399414,-21.208999633789062 9.628999710083008,-21.211000442504883 9.630000114440918,-21.211999893188477z M9.631999969482422,-21.215999603271484 C9.630999565124512,-21.215999603271484 9.630999565124512,-21.214000701904297 9.630999565124512,-21.214000701904297 C9.630999565124512,-21.214000701904297 9.630999565124512,-21.21500015258789 9.631999969482422,-21.215999603271484z M9.633000373840332,-21.2189998626709 C9.633000373840332,-21.2189998626709 9.633000373840332,-21.218000411987305 9.633000373840332,-21.218000411987305 C9.633000373840332,-21.218000411987305 9.633000373840332,-21.2189998626709 9.633000373840332,-21.2189998626709z" />
            </g>
        </g>
        <g transform="matrix(0.9734561443328857,-0.22887377440929413,0.22887377440929413,0.9734561443328857,87.54998779296875,59.75703430175781)"
            opacity="1" style="display: block;">
            <g opacity="1" transform="matrix(1,0,0,1,0,0)">
                <path fill="rgb(0,0,0)" fill-opacity="1"
                    d=" M-6.298999786376953,18.107999801635742 C-6.9730000495910645,18.107999801635742 -7.635000228881836,17.781999588012695 -8.036999702453613,17.18000030517578 C-15.201000213623047,6.466000080108643 -17.024999618530273,-2.130000114440918 -13.458000183105469,-8.368000030517578 C-7.309999942779541,-19.118999481201172 12.425999641418457,-18.11199951171875 13.26200008392334,-18.062000274658203 C14.413000106811523,-17.996000289916992 15.291999816894531,-17.009000778198242 15.22700023651123,-15.857999801635742 C15.16100025177002,-14.706000328063965 14.156000137329102,-13.835000038146973 13.02299976348877,-13.890999794006348 C12.845999717712402,-13.901000022888184 -4.9730000495910645,-14.802000045776367 -9.833999633789062,-6.289000034332275 C-12.545999526977539,-1.5399999618530273 -10.772000312805176,5.573999881744385 -4.564000129699707,14.857999801635742 C-3.921999931335449,15.817000389099121 -4.181000232696533,17.11400032043457 -5.139999866485596,17.7549991607666 C-5.495999813079834,17.993000030517578 -5.900000095367432,18.107999801635742 -6.298999786376953,18.107999801635742z" />
            </g>
        </g>
        <g transform="matrix(0.9767224788665771,-0.214507058262825,0.214507058262825,0.9767224788665771,110.0311279296875,55.549285888671875)"
            opacity="1" style="display: block;">
            <g opacity="1" transform="matrix(1,0,0,1,0,0)">
                <path fill="rgb(0,0,0)" fill-opacity="1"
                    d=" M-15.78499984741211,13.107000350952148 C-16.631000518798828,13.107000350952148 -17.427000045776367,12.59000015258789 -17.740999221801758,11.75100040435791 C-21.53700065612793,1.621000051498413 -21.27899932861328,-5.570000171661377 -16.975000381469727,-9.621999740600586 C-7.670000076293945,-18.381000518798828 16.447999954223633,-8.017000198364258 19.167999267578125,-6.807000160217285 C20.222000122070312,-6.3379998207092285 20.695999145507812,-5.104000091552734 20.226999282836914,-4.050000190734863 C19.759000778198242,-2.996999979019165 18.52400016784668,-2.5199999809265137 17.469999313354492,-2.990000009536743 C10.781000137329102,-5.9629998207092285 -7.931000232696533,-12.404000282287598 -14.11299991607666,-6.578999996185303 C-17.799999237060547,-3.1059999465942383 -15.994000434875488,4.508999824523926 -13.829000473022461,10.28499984741211 C-13.425000190734863,11.364999771118164 -13.972000122070312,12.569000244140625 -15.053000450134277,12.973999977111816 C-15.293999671936035,13.064000129699707 -15.541000366210938,13.107000350952148 -15.78499984741211,13.107000350952148z" />
            </g>
        </g>
        <g transform="matrix(0.9734561443328857,-0.22887377440929413,0.22887377440929413,0.9734561443328857,125.83465576171875,58.21368408203125)"
            opacity="1" style="display: block;">
            <g opacity="1" transform="matrix(1,0,0,1,0,0)">
                <path fill="rgb(0,0,0)" fill-opacity="1"
                    d=" M-17.767000198364258,8.550000190734863 C-18.82900047302246,8.550000190734863 -19.73699951171875,7.743000030517578 -19.843000411987305,6.664000034332275 C-20.540000915527344,-0.4560000002384186 -18.933000564575195,-5.163000106811523 -15.067999839782715,-7.328000068664551 C-4.9039998054504395,-13.02400016784668 16.738000869750977,2.9539999961853027 19.17300033569336,4.795000076293945 C20.093000411987305,5.489999771118164 20.27400016784668,6.800000190734863 19.57900047302246,7.71999979019165 C18.885000228881836,8.640000343322754 17.57200050354004,8.821000099182129 16.65399932861328,8.126999855041504 C8.29699993133545,1.8140000104904175 -7.151000022888184,-6.978000164031982 -13.027000427246094,-3.683000087738037 C-15.312000274658203,-2.4030001163482666 -16.20599937438965,0.9409999847412109 -15.6850004196167,6.256999969482422 C-15.572999954223633,7.40500020980835 -16.413000106811523,8.427000045776367 -17.56100082397461,8.538999557495117 C-17.628999710083008,8.545999526977539 -17.698999404907227,8.550000190734863 -17.767000198364258,8.550000190734863z" />
            </g>
        </g>
        <g transform="matrix(0.9786964058876038,-0.20531265437602997,0.20531265437602997,0.9786964058876038,138.337158203125,71.22607421875)"
            opacity="1" style="display: block;">
            <g opacity="1" transform="matrix(1,0,0,1,0,0)">
                <path fill="rgb(0,0,0)" fill-opacity="1"
                    d=" M15.656999588012695,10.520000457763672 C15.088000297546387,10.520000457763672 14.520000457763672,10.288999557495117 14.107999801635742,9.833999633789062 C7.821000099182129,2.8949999809265137 -4.343999862670898,-7.6020002365112305 -10.21500015258789,-6.232999801635742 C-10.805000305175781,-6.09499979019165 -12.60099983215332,-5.676000118255615 -13.645999908447266,-2.009000062942505 C-13.961999893188477,-0.8999999761581421 -15.116000175476074,-0.2549999952316284 -16.226999282836914,-0.5720000267028809 C-17.336000442504883,-0.8880000114440918 -17.979999542236328,-2.0439999103546143 -17.663999557495117,-3.1530001163482666 C-16.243000030517578,-8.138999938964844 -13.345999717712402,-9.793000221252441 -11.163999557495117,-10.302000045776367 C-1.0049999952316284,-12.675000190734863 15.371000289916992,5.00600004196167 17.20400047302246,7.03000020980835 C17.976999282836914,7.885000228881836 17.91200065612793,9.206000328063965 17.058000564575195,9.979999542236328 C16.658000946044922,10.342000007629395 16.156999588012695,10.520000457763672 15.656999588012695,10.520000457763672z" />
            </g>
        </g>
        <g transform="matrix(0.9984984993934631,-0.0547792986035347,0.04491902515292168,0.8187687397003174,-734.2994384765625,-80.15985870361328)"
            opacity="1" style="display: block;">
            <g opacity="1" transform="matrix(1,0,0,1,818.1309814453125,270.3039855957031)">
                <g opacity="1" transform="matrix(1,0,0,1,0,0)">
                    <path fill="rgb(0,0,0)" fill-opacity="1"
                        d=" M8.482999801635742,4.578999996185303 C7.85099983215332,4.578999996185303 7.22599983215332,4.293000221252441 6.815999984741211,3.750999927520752 C4.735000133514404,1.0019999742507935 2.553999900817871,-0.39500001072883606 0.3310000002384186,-0.4020000100135803 C0.32499998807907104,-0.4020000100135803 0.3190000057220459,-0.4020000100135803 0.3140000104904175,-0.4020000100135803 C-3.5889999866485596,-0.4020000100135803 -6.789000034332275,3.7139999866485596 -6.820000171661377,3.75600004196167 C-7.520999908447266,4.671000003814697 -8.829999923706055,4.8460001945495605 -9.744999885559082,4.14900016784668 C-10.66100025177002,3.4509999752044678 -10.842000007629395,2.1470000743865967 -10.147000312805176,1.2289999723434448 C-9.968000411987305,0.9919999837875366 -5.682000160217285,-4.578999996185303 0.3140000104904175,-4.578999996185303 C3.9210000038146973,-4.578999996185303 7.229000091552734,-2.625 10.145999908447266,1.2289999723434448 C10.842000007629395,2.1489999294281006 10.661999702453613,3.4600000381469727 9.741999626159668,4.156000137329102 C9.364999771118164,4.440999984741211 8.920999526977539,4.578999996185303 8.482999801635742,4.578999996185303z" />
                </g>
            </g>
            <g opacity="1" transform="matrix(1,0,0,1,852.6900024414062,269.35101318359375)">
                <g opacity="1" transform="matrix(1,0,0,1,0,0)">
                    <path fill="rgb(0,0,0)" fill-opacity="1"
                        d=" M8.482999801635742,4.760000228881836 C7.827000141143799,4.760000228881836 7.181000232696533,4.452000141143799 6.77400016784668,3.875 C4.691999912261963,0.9229999780654907 2.5230000019073486,-0.5770000219345093 0.328000009059906,-0.5830000042915344 C0.3230000138282776,-0.5830000042915344 0.3190000057220459,-0.5830000042915344 0.3140000104904175,-0.5830000042915344 C-3.546999931335449,-0.5830000042915344 -6.747000217437744,3.8350000381469727 -6.7789998054504395,3.880000114440918 C-7.448999881744385,4.816999912261963 -8.75100040435791,5.039000034332275 -9.689000129699707,4.372000217437744 C-10.628000259399414,3.7049999237060547 -10.85200023651123,2.4070000648498535 -10.187999725341797,1.4670000076293945 C-10.008999824523926,1.2130000591278076 -5.723999977111816,-4.760000228881836 0.3140000104904175,-4.760000228881836 C0.3149999976158142,-4.760000228881836 0.31299999356269836,-4.760000228881836 0.3140000104904175,-4.760000228881836 C3.950000047683716,-4.760000228881836 7.2729997634887695,-2.6649999618530273 10.189000129699707,1.4670000076293945 C10.854000091552734,2.4089999198913574 10.628000259399414,3.7119998931884766 9.685999870300293,4.376999855041504 C9.319999694824219,4.635000228881836 8.89900016784668,4.760000228881836 8.482999801635742,4.760000228881836z" />
                </g>
            </g>
        </g>
        <g transform="matrix(0.9944257736206055,0.8396013975143433,-0.8396013975143433,0.9944257736206055,-432.42633056640625,-828.6787109375)"
            opacity="1" style="display: block;">
            <g opacity="1" transform="matrix(1,0,0,1,777.10400390625,337.35198974609375)">
                <g opacity="1" transform="matrix(1,0,0,1,0,0)">
                    <path fill="rgb(0,0,0)" fill-opacity="1"
                        d=" M0,7.947999954223633 C-1.152999997138977,7.947999954223633 -2.0889999866485596,7.013000011444092 -2.0889999866485596,5.860000133514404 C-2.0889999866485596,5.860000133514404 -2.0889999866485596,-5.860000133514404 -2.0889999866485596,-5.860000133514404 C-2.0889999866485596,-7.013000011444092 -1.152999997138977,-7.947999954223633 0,-7.947999954223633 C1.152999997138977,-7.947999954223633 2.0889999866485596,-7.013000011444092 2.0889999866485596,-5.860000133514404 C2.0889999866485596,-5.860000133514404 2.0889999866485596,5.860000133514404 2.0889999866485596,5.860000133514404 C2.0889999866485596,7.013000011444092 1.152999997138977,7.947999954223633 0,7.947999954223633z" />
                </g>
            </g>
            <g opacity="1" transform="matrix(1,0,0,1,777.2249755859375,337.35198974609375)">
                <g opacity="1" transform="matrix(1,0,0,1,0,0)">
                    <path fill="rgb(0,0,0)" fill-opacity="1"
                        d=" M5.820000171661377,2.0889999866485596 C5.820000171661377,2.0889999866485596 -5.820000171661377,2.0889999866485596 -5.820000171661377,2.0889999866485596 C-6.9730000495910645,2.0889999866485596 -7.908999919891357,1.152999997138977 -7.908999919891357,0 C-7.908999919891357,-1.152999997138977 -6.9730000495910645,-2.0889999866485596 -5.820000171661377,-2.0889999866485596 C-5.820000171661377,-2.0889999866485596 5.820000171661377,-2.0889999866485596 5.820000171661377,-2.0889999866485596 C6.9730000495910645,-2.0889999866485596 7.908999919891357,-1.152999997138977 7.908999919891357,0 C7.908999919891357,1.152999997138977 6.9730000495910645,2.0889999866485596 5.820000171661377,2.0889999866485596z" />
                </g>
            </g>
        </g>
        <g transform="matrix(1.1386460065841675,0.49669286608695984,-0.49669286608695984,1.1386460065841675,-734.400390625,-646.8474731445312)"
            opacity="1" style="display: block;">
            <g opacity="1" transform="matrix(1,0,0,1,883.2130126953125,217.54600524902344)">
                <g opacity="1" transform="matrix(1,0,0,1,0,0)">
                    <path fill="rgb(0,0,0)" fill-opacity="1"
                        d=" M0,7.948999881744385 C-1.152999997138977,7.948999881744385 -2.0889999866485596,7.013000011444092 -2.0889999866485596,5.860000133514404 C-2.0889999866485596,5.860000133514404 -2.0889999866485596,-5.860000133514404 -2.0889999866485596,-5.860000133514404 C-2.0889999866485596,-7.013000011444092 -1.152999997138977,-7.948999881744385 0,-7.948999881744385 C1.152999997138977,-7.948999881744385 2.0889999866485596,-7.013000011444092 2.0889999866485596,-5.860000133514404 C2.0889999866485596,-5.860000133514404 2.0889999866485596,5.860000133514404 2.0889999866485596,5.860000133514404 C2.0889999866485596,7.013000011444092 1.152999997138977,7.948999881744385 0,7.948999881744385z" />
                </g>
            </g>
            <g opacity="1" transform="matrix(1,0,0,1,883.2130126953125,217.54600524902344)">
                <g opacity="1" transform="matrix(1,0,0,1,0,0)">
                    <path fill="rgb(0,0,0)" fill-opacity="1"
                        d=" M5.820000171661377,2.0889999866485596 C5.820000171661377,2.0889999866485596 -5.820000171661377,2.0889999866485596 -5.820000171661377,2.0889999866485596 C-6.9730000495910645,2.0889999866485596 -7.908999919891357,1.152999997138977 -7.908999919891357,0 C-7.908999919891357,-1.152999997138977 -6.9730000495910645,-2.0889999866485596 -5.820000171661377,-2.0889999866485596 C-5.820000171661377,-2.0889999866485596 5.820000171661377,-2.0889999866485596 5.820000171661377,-2.0889999866485596 C6.9730000495910645,-2.0889999866485596 7.908999919891357,-1.152999997138977 7.908999919891357,0 C7.908999919891357,1.152999997138977 6.9730000495910645,2.0889999866485596 5.820000171661377,2.0889999866485596z" />
                </g>
            </g>
        </g>
        <g transform="matrix(1.1037460565567017,-0.7385271191596985,0.7385271191596985,1.1037460565567017,-1050.6357421875,453.6161193847656)"
            opacity="1" style="display: block;">
            <g opacity="1" transform="matrix(1,0,0,1,900.3599853515625,321.21600341796875)">
                <g opacity="1" transform="matrix(1,0,0,1,0,0)">
                    <path fill="rgb(0,0,0)" fill-opacity="1"
                        d=" M0,7.947999954223633 C-1.152999997138977,7.947999954223633 -2.0889999866485596,7.013000011444092 -2.0889999866485596,5.860000133514404 C-2.0889999866485596,5.860000133514404 -2.0889999866485596,-5.860000133514404 -2.0889999866485596,-5.860000133514404 C-2.0889999866485596,-7.013000011444092 -1.152999997138977,-7.947999954223633 0,-7.947999954223633 C1.152999997138977,-7.947999954223633 2.0889999866485596,-7.013000011444092 2.0889999866485596,-5.860000133514404 C2.0889999866485596,-5.860000133514404 2.0889999866485596,5.860000133514404 2.0889999866485596,5.860000133514404 C2.0889999866485596,7.013000011444092 1.152999997138977,7.947999954223633 0,7.947999954223633z" />
                </g>
            </g>
            <g opacity="1" transform="matrix(1,0,0,1,900.3610229492188,321.21600341796875)">
                <g opacity="1" transform="matrix(1,0,0,1,0,0)">
                    <path fill="rgb(0,0,0)" fill-opacity="1"
                        d=" M5.820000171661377,2.0889999866485596 C5.820000171661377,2.0889999866485596 -5.820000171661377,2.0889999866485596 -5.820000171661377,2.0889999866485596 C-6.9730000495910645,2.0889999866485596 -7.908999919891357,1.152999997138977 -7.908999919891357,0 C-7.908999919891357,-1.152999997138977 -6.9730000495910645,-2.0889999866485596 -5.820000171661377,-2.0889999866485596 C-5.820000171661377,-2.0889999866485596 5.820000171661377,-2.0889999866485596 5.820000171661377,-2.0889999866485596 C6.9730000495910645,-2.0889999866485596 7.908999919891357,-1.152999997138977 7.908999919891357,0 C7.908999919891357,1.152999997138977 6.9730000495910645,2.0889999866485596 5.820000171661377,2.0889999866485596z" />
                </g>
            </g>
        </g>
    </g>
</svg>