<svg xmlns="http://www.w3.org/2000/svg" xmlns:xlink="http://www.w3.org/1999/xlink" viewBox="0 0 225 225" width="225"
    height="225" preserveAspectRatio="xMidYMid meet"
    style="width: 100%; height: 100%; transform: translate3d(0px, 0px, 0px); content-visibility: visible;" id="perro">
    <defs>
        <clipPath id="__lottie_element_4507">
            <rect width="225" height="225" x="0" y="0" />
        </clipPath>
        <g id="__lottie_element_4514">
            <g transform="matrix(1,0,0,1,112.4219970703125,112.197998046875)" opacity="1" style="display: block;">
                <g opacity="1" transform="matrix(1,0,0,1,0,0)">
                    <path fill="rgb(232,232,232)" fill-opacity="1"
                        d=" M112.04100036621094,0 C112.04100036621094,61.87799835205078 61.87799835205078,112.04100036621094 0,112.04100036621094 C-61.87799835205078,112.04100036621094 -112.04100036621094,61.87799835205078 -112.04100036621094,0 C-112.04100036621094,-61.87799835205078 -61.87799835205078,-112.04100036621094 0,-112.04100036621094 C61.87799835205078,-112.04100036621094 112.04100036621094,-61.87799835205078 112.04100036621094,0z" />
                </g>
            </g>
        </g>
        <mask id="__lottie_element_4514_1" mask-type="alpha">
            <use xmlns:ns1="http://www.w3.org/1999/xlink" ns1:href="#__lottie_element_4514" />
        </mask>
    </defs>
    <g clip-path="url(#__lottie_element_4507)">
        <g transform="matrix(1,0,0,1,112.4219970703125,112.197998046875)" opacity="1" style="display: block;">
            <g opacity="1" transform="matrix(1,0,0,1,0,0)">
                <path fill="rgb(232,232,232)" fill-opacity="1"
                    d=" M112.04100036621094,0 C112.04100036621094,61.87799835205078 61.87799835205078,112.04100036621094 0,112.04100036621094 C-61.87799835205078,112.04100036621094 -112.04100036621094,61.87799835205078 -112.04100036621094,0 C-112.04100036621094,-61.87799835205078 -61.87799835205078,-112.04100036621094 0,-112.04100036621094 C61.87799835205078,-112.04100036621094 112.04100036621094,-61.87799835205078 112.04100036621094,0z" />
            </g>
        </g>
        <g mask="url(#__lottie_element_4514_1)" style="display: block;">
            <g transform="matrix(1,0,0,1,-719,-668)" opacity="1">
                <g opacity="1" transform="matrix(1,0,0,1,821.8209838867188,864.552001953125)">
                    <g opacity="1" transform="matrix(1,0,0,1,0,0)">
                        <path fill="rgb(236,156,131)" fill-opacity="1"
                            d=" M-57.74100112915039,-37.582000732421875 C-57.74100112915039,-37.582000732421875 54.944000244140625,-8.0600004196167 54.944000244140625,-8.0600004196167 C54.944000244140625,-8.0600004196167 63.28499984741211,20.78700065612793 63.28499984741211,20.78700065612793 C63.28499984741211,20.78700065612793 9.60099983215332,37.582000732421875 9.60099983215332,37.582000732421875 C9.60099983215332,37.582000732421875 -63.28499984741211,25.7450008392334 -63.28499984741211,25.7450008392334 C-63.28499984741211,25.7450008392334 -57.74100112915039,-37.582000732421875 -57.74100112915039,-37.582000732421875z" />
                    </g>
                </g>
                <g opacity="1" transform="matrix(1,0,0,1,820.927978515625,853.27001953125)">
                    <g opacity="1" transform="matrix(1,0,0,1,0,0)">
                        <path fill="rgb(0,0,0)" fill-opacity="1"
                            d=" M40.17900085449219,21.378999710083008 C30.6299991607666,21.3799991607666 25.551000595092773,13.545999526977539 23.242000579833984,8.395000457763672 C19.59600067138672,13.409000396728516 12.74899959564209,18.72599983215332 2.944000005722046,16.767000198364258 C-7.866000175476074,14.605999946594238 -12.031000137329102,5.045000076293945 -13.593999862670898,-0.9139999747276306 C-17.108999252319336,3.2239999771118164 -23.45599937438965,9.197999954223633 -30.981000900268555,9.472999572753906 C-38.44900131225586,9.744000434875488 -44.42499923706055,7.614999771118164 -48.68299865722656,3.134999990463257 C-56.694000244140625,-5.294000148773193 -55.60200119018555,-18.89900016784668 -55.551998138427734,-19.474000930786133 C-55.45100021362305,-20.621999740600586 -54.452999114990234,-21.45800018310547 -53.28799819946289,-21.371999740600586 C-52.13999938964844,-21.270000457763672 -51.28799819946289,-20.257999420166016 -51.388999938964844,-19.110000610351562 C-51.40800094604492,-18.882999420166016 -52.32600021362305,-6.74399995803833 -45.64099884033203,0.2720000147819519 C-42.244998931884766,3.8350000381469727 -37.37099838256836,5.513000011444092 -31.134000778198242,5.298999786376953 C-22.009000778198242,4.965000152587891 -14.244000434875488,-6.942999839782715 -14.166999816894531,-7.063000202178955 C-13.680999755859375,-7.818999767303467 -12.76099967956543,-8.178999900817871 -11.890999794006348,-7.955999851226807 C-11.019000053405762,-7.73199987411499 -10.387999534606934,-6.9770002365112305 -10.324999809265137,-6.079999923706055 C-10.277000427246094,-5.422999858856201 -8.993000030517578,10.119999885559082 3.76200008392334,12.670999526977539 C16.222000122070312,15.159000396728516 21.53499984741211,3.184999942779541 21.756000518798828,2.6740000247955322 C22.110000610351562,1.8550000190734863 22.927000045776367,1.3519999980926514 23.839000701904297,1.4179999828338623 C24.729999542236328,1.4880000352859497 25.476999282836914,2.114000082015991 25.698999404907227,2.9790000915527344 C25.735000610351562,3.121000051498413 29.511999130249023,17.201000213623047 40.21699905395508,17.201000213623047 C40.3489990234375,17.201000213623047 40.47999954223633,17.198999404907227 40.61399841308594,17.194000244140625 C51.32699966430664,16.847999572753906 51.45000076293945,7.4079999923706055 51.45000076293945,7.006999969482422 C51.45000076293945,5.854000091552734 52.38600158691406,4.919000148773193 53.53900146484375,4.919000148773193 C54.69200134277344,4.919000148773193 55.62799835205078,5.854000091552734 55.62799835205078,7.006999969482422 C55.62799835205078,11.809000015258789 52.51900100708008,20.989999771118164 40.749000549316406,21.3700008392334 C40.55799865722656,21.375999450683594 40.367000579833984,21.378999710083008 40.17900085449219,21.378999710083008z" />
                    </g>
                </g>
            </g>
        </g>
        <g transform="matrix(0.9997184872627258,0.023727620020508766,-0.023727620020508766,0.9997184872627258,120.3084716796875,116.09375)"
            opacity="1" style="display: block;">
            <g opacity="1" transform="matrix(1,0,0,1,0,0)">
                <path fill="rgb(0,0,0)" fill-opacity="1"
                    d=" M25.77199935913086,63.54600143432617 C24.98699951171875,63.54600143432617 24.233999252319336,63.10200119018555 23.878999710083008,62.34400177001953 C20.465999603271484,55.064998626708984 3.571000099182129,18.30500030517578 6.146999835968018,9.491999626159668 C7.945000171661377,3.3389999866485596 19.194000244140625,2.819999933242798 36.14899826049805,2.7320001125335693 C43.189998626708984,2.696000099182129 51.17100143432617,2.6549999713897705 53.17499923706055,1.4589999914169312 C56.236000061035156,-0.367000013589859 59.939998626708984,-7.919000148773193 61.79199981689453,-16.107999801635742 C63.10900115966797,-21.93400001525879 62.939998626708984,-25.743000030517578 62.2239990234375,-26.81599998474121 C61.16299819946289,-28.406999588012695 55.965999603271484,-28.639999389648438 51.380001068115234,-28.84600067138672 C45.513999938964844,-29.110000610351562 38.86399841308594,-29.406999588012695 33.505001068115234,-31.979000091552734 C28.42300033569336,-34.417999267578125 27.160999298095703,-36.777000427246094 25.825000762939453,-39.275001525878906 C24.302000045776367,-42.125 22.40399932861328,-45.672000885009766 12.755000114440918,-51.709999084472656 C3.0759999752044678,-57.76499938964844 -13.289999961853027,-59.215999603271484 -25.31399917602539,-59.36600112915039 C-35.95600128173828,-59.50400161743164 -45.92399978637695,-53.79499816894531 -51.24599838256836,-44.472999572753906 C-56.638999938964844,-35.02799987792969 -60.05400085449219,-27.618999481201172 -61.119998931884766,-23.04800033569336 C-63.86000061035156,-11.305999755859375 -62.34199905395508,40.83000183105469 -62.32600021362305,41.35499954223633 C-62.29199981689453,42.507999420166016 -63.19900131225586,43.47200012207031 -64.35099792480469,43.50600051879883 C-65.54900360107422,43.5359992980957 -66.46800231933594,42.63199996948242 -66.50199890136719,41.47999954223633 C-66.56600189208984,39.3129997253418 -68.05000305175781,-11.727999687194824 -65.18800354003906,-23.996999740600586 C-64.01399993896484,-29.027000427246094 -60.54399871826172,-36.612998962402344 -54.87300109863281,-46.54399871826172 C-48.869998931884766,-57.060001373291016 -37.7130012512207,-63.54600143432617 -25.683000564575195,-63.54600143432617 C-25.54199981689453,-63.54600143432617 -25.402999877929688,-63.54499816894531 -25.26099967956543,-63.54399871826172 C-12.70199966430664,-63.38600158691406 4.4710001945495605,-61.819000244140625 14.970000267028809,-55.250999450683594 C25.56399917602539,-48.62300109863281 27.8439998626709,-44.358001708984375 29.509000778198242,-41.244998931884766 C30.726999282836914,-38.96799850463867 31.461999893188477,-37.59400177001953 35.31399917602539,-35.744998931884766 C39.90299987792969,-33.54199981689453 46.099998474121094,-33.26499938964844 51.56800079345703,-33.01900100708008 C58.21500015258789,-32.72100067138672 63.46500015258789,-32.486000061035156 65.6989974975586,-29.134000778198242 C67.85700225830078,-25.89900016784668 66.7300033569336,-19.006999969482422 65.86599731445312,-15.187999725341797 C64.0530014038086,-7.166999816894531 60.08700180053711,2.200000047683716 55.316001892089844,5.046999931335449 C52.47700119018555,6.739999771118164 46.191001892089844,6.857999801635742 36.16999816894531,6.909999847412109 C26.836000442504883,6.959000110626221 11.217000007629395,7.039000034332275 10.156999588012695,10.663999557495117 C8.508999824523926,16.304000854492188 20.01799964904785,44.268001556396484 27.66200065612793,60.56999969482422 C28.150999069213867,61.6150016784668 27.701000213623047,62.85900115966797 26.656999588012695,63.3489990234375 C26.3700008392334,63.483001708984375 26.069000244140625,63.54600143432617 25.77199935913086,63.54600143432617z" />
            </g>
        </g>
        <g transform="matrix(0.9997184872627258,0.023727620020508766,-0.023727620020508766,0.9997184872627258,136.76068115234375,82.05755615234375)"
            opacity="1" style="display: block;">
            <g opacity="1" transform="matrix(1,0,0,1,0,0)">
                <path fill="rgb(0,0,0)" fill-opacity="1"
                    d=" M-6.771999835968018,6.1519999504089355 C-6.895999908447266,6.1519999504089355 -7.021999835968018,6.140999794006348 -7.14900016784668,6.118000030517578 C-8.284000396728516,5.910999774932861 -9.03499984741211,4.823999881744385 -8.82800006866455,3.687999963760376 C-8.687000274658203,2.9159998893737793 -7.306000232696533,-3.9179999828338623 -2.2720000743865967,-5.730000019073486 C0.8029999732971191,-6.835999965667725 4.297999858856201,-5.763999938964844 8.119999885559082,-2.5460000038146973 C9.001999855041504,-1.8029999732971191 9.114999771118164,-0.4860000014305115 8.371999740600586,0.3970000147819519 C7.629000186920166,1.2799999713897705 6.311999797821045,1.3930000066757202 5.427999973297119,0.6489999890327454 C3.6410000324249268,-0.8560000061988831 1.100000023841858,-2.505000114440918 -0.8579999804496765,-1.7979999780654907 C-3.23799991607666,-0.9430000185966492 -4.473999977111816,3.0910000801086426 -4.718999862670898,4.438000202178955 C-4.9029998779296875,5.446000099182129 -5.7820000648498535,6.1519999504089355 -6.771999835968018,6.1519999504089355z" />
            </g>
        </g>
        <g transform="matrix(1.0049216747283936,0.023851115256547928,-0.023851115256547928,1.0049216747283936,155.81884765625,114.8255615234375)"
            opacity="1" style="display: block;">
            <g opacity="1" transform="matrix(1,0,0,1,0,0)">
                <path fill="rgb(0,0,0)" fill-opacity="1"
                    d=" M14.189000129699707,8.527999877929688 C14.133000373840332,8.527999877929688 14.07699966430664,8.526000022888184 14.019000053405762,8.520999908447266 C-7.761000156402588,6.763999938964844 -15.607999801635742,-4.798999786376953 -15.932000160217285,-5.289999961853027 C-16.56599998474121,-6.254000186920166 -16.298999786376953,-7.548999786376953 -15.335000038146973,-8.184000015258789 C-14.37399959564209,-8.817000389099121 -13.083000183105469,-8.550999641418457 -12.447999954223633,-7.59499979019165 C-12.335000038146973,-7.429999828338623 -5.192999839782715,2.7799999713897705 14.354999542236328,4.35699987411499 C15.503999710083008,4.449999809265137 16.36199951171875,5.458000183105469 16.268999099731445,6.60699987411499 C16.180999755859375,7.699999809265137 15.267000198364258,8.527999877929688 14.189000129699707,8.527999877929688z" />
            </g>
        </g>
        <g transform="matrix(1.0111653804779053,0.023999305441975594,-0.023999305441975594,1.0111653804779053,179.46380615234375,93.30694580078125)"
            opacity="1" style="display: block;">
            <g opacity="1" transform="matrix(1,0,0,1,0,0)">
                <path fill="rgb(0,0,0)" fill-opacity="1"
                    d=" M-6.260000228881836,-6.170000076293945 C-7.89300012588501,-0.7269999980926514 -0.7070000171661377,5.804999828338623 4.956999778747559,6.670000076293945 C8.472999572753906,7.206999778747559 7.4730000495910645,-1.7999999523162842 4.885000228881836,-4.4679999351501465 C1.965999960899353,-7.4770002365112305 -5.554999828338623,-8.519000053405762 -6.260000228881836,-6.170000076293945z" />
            </g>
        </g>
        <g transform="matrix(0.9988454580307007,-0.04803909361362457,0.04803909361362457,0.9988454580307007,97.43658447265625,111.0216064453125)"
            opacity="1" style="display: block;">
            <g opacity="1" transform="matrix(1,0,0,1,0,0)">
                <path fill="rgb(0,0,0)" fill-opacity="1"
                    d=" M24.35700035095215,0 C24.35700035095215,32.387001037597656 27.055999755859375,58.643001556396484 0,58.643001556396484 C-27.055999755859375,58.643001556396484 -24.35700035095215,32.387001037597656 -24.35700035095215,0 C-24.35700035095215,-32.387001037597656 -13.45199966430664,-58.643001556396484 0,-58.643001556396484 C13.45199966430664,-58.643001556396484 24.35700035095215,-32.387001037597656 24.35700035095215,0z" />
            </g>
        </g>
        <g transform="matrix(0.9997184872627258,0.023727620020508766,-0.023727620020508766,0.9997184872627258,-698.9297485351562,-687.2100219726562)"
            opacity="1" style="display: block;">
            <g opacity="1" transform="matrix(1,0,0,1,808.5430297851562,741.8690185546875)">
                <g opacity="1" transform="matrix(1,0,0,1,0,0)">
                    <path fill="rgb(236,156,131)" fill-opacity="1"
                        d=" M47.303001403808594,-13.045000076293945 C47.303001403808594,-13.045000076293945 -38.77000045776367,37.39400100708008 -38.77000045776367,37.39400100708008 C-38.77000045776367,37.39400100708008 -47.303001403808594,20.441999435424805 -47.303001403808594,20.441999435424805 C-47.303001403808594,20.441999435424805 -37.099998474121094,12.991000175476074 -37.099998474121094,12.991000175476074 C-37.099998474121094,12.991000175476074 -50.45100021362305,-15.621999740600586 -19.961000442504883,-32.00400161743164 C10.303000450134277,-48.263999938964844 25.05900001525879,-22.54400062561035 25.05900001525879,-22.54400062561035 C25.05900001525879,-22.54400062561035 40.29100036621094,-28.856000900268555 40.29100036621094,-28.856000900268555 C40.29100036621094,-28.856000900268555 47.303001403808594,-13.045000076293945 47.303001403808594,-13.045000076293945z" />
                </g>
            </g>
            <g opacity="1" transform="matrix(1,0,0,1,795.0170288085938,740.8660278320312)">
                <g opacity="1" transform="matrix(1,0,0,1,0,0)">
                    <path fill="rgb(0,0,0)" fill-opacity="1"
                        d=" M-21.361000061035156,14.508999824523926 C-22.132999420166016,14.508999824523926 -22.875999450683594,14.079000473022461 -23.238000869750977,13.33899974822998 C-23.746000289916992,12.303999900817871 -23.31800079345703,11.052000045776367 -22.281999588012695,10.545000076293945 C-22.000999450683594,10.406000137329102 6.041999816894531,-3.384999990463257 20.097999572753906,-14.083000183105469 C21.018999099731445,-14.781000137329102 22.327999114990234,-14.60200023651123 23.024999618530273,-13.685999870300293 C23.722999572753906,-12.769000053405762 23.54599952697754,-11.458000183105469 22.628000259399414,-10.758999824523926 C8.246000289916992,0.18799999356269836 -19.27899932861328,13.725000381469727 -20.444000244140625,14.295999526977539 C-20.73900032043457,14.440999984741211 -21.052000045776367,14.508999824523926 -21.361000061035156,14.508999824523926z" />
                </g>
            </g>
        </g>
    </g>
</svg>