<svg xmlns="http://www.w3.org/2000/svg" xmlns:xlink="http://www.w3.org/1999/xlink" viewBox="0 0 225 225" width="225"
    height="225" preserveAspectRatio="xMidYMid meet"
    style="width: 100%; height: 100%; transform: translate3d(0px, 0px, 0px); content-visibility: visible;" id="Mujer">
    <defs>
        <clipPath id="__lottie_element_4466">
            <rect width="225" height="225" x="0" y="0" />
        </clipPath>
        <g id="__lottie_element_4474">
            <g transform="matrix(1,0,0,1,112.57599639892578,112.52300262451172)" opacity="1" style="display: block;">
                <g opacity="1" transform="matrix(1,0,0,1,0,0)">
                    <path fill="rgb(232,232,232)" fill-opacity="1"
                        d=" M112.04100036621094,0 C112.04100036621094,61.87799835205078 61.87799835205078,112.04100036621094 0,112.04100036621094 C-61.87799835205078,112.04100036621094 -112.04100036621094,61.87799835205078 -112.04100036621094,0 C-112.04100036621094,-61.87799835205078 -61.87799835205078,-112.04100036621094 0,-112.04100036621094 C61.87799835205078,-112.04100036621094 112.04100036621094,-61.87799835205078 112.04100036621094,0z" />
                </g>
            </g>
        </g>
        <g id="__lottie_element_4491">
            <g transform="matrix(1,0,0,1,112.57599639892578,112.52300262451172)" opacity="1" style="display: block;">
                <g opacity="1" transform="matrix(1,0,0,1,0,0)">
                    <path fill="rgb(232,232,232)" fill-opacity="1"
                        d=" M112.04100036621094,0 C112.04100036621094,61.87799835205078 61.87799835205078,112.04100036621094 0,112.04100036621094 C-61.87799835205078,112.04100036621094 -112.04100036621094,61.87799835205078 -112.04100036621094,0 C-112.04100036621094,-61.87799835205078 -61.87799835205078,-112.04100036621094 0,-112.04100036621094 C61.87799835205078,-112.04100036621094 112.04100036621094,-61.87799835205078 112.04100036621094,0z" />
                </g>
            </g>
        </g>
        <mask id="__lottie_element_4491_1" mask-type="alpha">
            <use xmlns:ns1="http://www.w3.org/1999/xlink" ns1:href="#__lottie_element_4491" />
        </mask>
        <mask id="__lottie_element_4474_1" mask-type="alpha">
            <use xmlns:ns2="http://www.w3.org/1999/xlink" ns2:href="#__lottie_element_4474" />
        </mask>
    </defs>
    <g clip-path="url(#__lottie_element_4466)">
        <g transform="matrix(1,0,0,1,112.57599639892578,112.52300262451172)" opacity="1" style="display: block;">
            <g opacity="1" transform="matrix(1,0,0,1,0,0)">
                <path fill="rgb(232,232,232)" fill-opacity="1"
                    d=" M112.04100036621094,0 C112.04100036621094,61.87799835205078 61.87799835205078,112.04100036621094 0,112.04100036621094 C-61.87799835205078,112.04100036621094 -112.04100036621094,61.87799835205078 -112.04100036621094,0 C-112.04100036621094,-61.87799835205078 -61.87799835205078,-112.04100036621094 0,-112.04100036621094 C61.87799835205078,-112.04100036621094 112.04100036621094,-61.87799835205078 112.04100036621094,0z" />
            </g>
        </g>
        <g transform="matrix(0.9961947202682495,0.08715574443340302,-0.08715574443340302,0.9961947202682495,-19.403152465820312,-684.679443359375)"
            opacity="1" style="display: block;">
            <g opacity="1" transform="matrix(1,0,0,1,232.06300354003906,772.68701171875)">
                <path fill="rgb(244,244,244)" fill-opacity="1"
                    d=" M17.78499984741211,39.11800003051758 C30.20800018310547,34.10499954223633 42.68000030517578,17.534000396728516 42.68000030517578,0.3100000023841858 C42.68000030517578,-23.26099967956543 23.570999145507812,-42.369998931884766 0,-42.369998931884766 C-23.570999145507812,-42.369998931884766 -42.68000030517578,-23.26099967956543 -42.68000030517578,0.3100000023841858 C-42.68000030517578,16.52899932861328 -33.632999420166016,30.634000778198242 -20.31100082397461,37.85599899291992 C-20.31100082397461,37.85599899291992 -2.0199999809265137,47.11000061035156 17.78499984741211,39.11800003051758z" />
                <path stroke-linecap="round" stroke-linejoin="round" fill-opacity="0" stroke="rgb(0,0,0)"
                    stroke-opacity="1" stroke-width="4.177"
                    d=" M17.78499984741211,39.11800003051758 C30.20800018310547,34.10499954223633 42.68000030517578,17.534000396728516 42.68000030517578,0.3100000023841858 C42.68000030517578,-23.26099967956543 23.570999145507812,-42.369998931884766 0,-42.369998931884766 C-23.570999145507812,-42.369998931884766 -42.68000030517578,-23.26099967956543 -42.68000030517578,0.3100000023841858 C-42.68000030517578,16.52899932861328 -33.632999420166016,30.634000778198242 -20.31100082397461,37.85599899291992 C-20.31100082397461,37.85599899291992 -2.0199999809265137,47.11000061035156 17.78499984741211,39.11800003051758z" />
            </g>
            <g opacity="1" transform="matrix(1,0,0,1,242.4770050048828,753.1959838867188)">
                <path fill="rgb(0,0,0)" fill-opacity="1"
                    d=" M-19.679000854492188,-16.57900047302246 C-19.679000854492188,-16.57900047302246 2.0360000133514404,23.583999633789062 32.26599884033203,23.197999954223633 C32.26599884033203,-5.651000022888184 14.414999961853027,-20.875 -2.631999969482422,-22.878999710083008 C-19.679000854492188,-24.882999420166016 -32.26599884033203,-16.861000061035156 -32.26599884033203,-16.861000061035156 C-32.26599884033203,-16.861000061035156 -19.679000854492188,-16.57900047302246 -19.679000854492188,-16.57900047302246z" />
            </g>
        </g>
        <g transform="matrix(0.9961947202682495,0.08715574443340302,-0.08715574443340302,0.9961947202682495,-19.403152465820312,-684.679443359375)"
            opacity="1" style="display: block;">
            <g opacity="1" transform="matrix(1,0,0,1,0,0)">
                <g opacity="1" transform="matrix(1,0,0,1,212.4709930419922,770.6370239257812)">
                    <path fill="rgb(244,244,244)" fill-opacity="1"
                        d=" M-9.777000427246094,-1.9170000553131104 C-9.777000427246094,-1.9170000553131104 -1.6970000267028809,5.696000099182129 9.777000427246094,-0.5329999923706055 C9.777000427246094,-0.5329999923706055 -9.777000427246094,-1.9170000553131104 -9.777000427246094,-1.9170000553131104z" />
                </g>
                <g opacity="1" transform="matrix(1,0,0,1,212.4720001220703,770.6229858398438)">
                    <path fill="rgb(0,0,0)" fill-opacity="1"
                        d=" M0.7519999742507935,3.990999937057495 C-4.804999828338623,3.990999937057495 -9.157999992370605,1.5509999990463257 -11.210000038146973,-0.382999986410141 C-12.050000190734863,-1.1740000247955322 -12.08899974822998,-2.496000051498413 -11.29800033569336,-3.3359999656677246 C-10.508999824523926,-4.171999931335449 -9.190999984741211,-4.2129998207092285 -8.35200023651123,-3.430999994277954 C-8.057000160217285,-3.1579999923706055 -1.1540000438690186,3.0390000343322754 8.779999732971191,-2.3550000190734863 C9.795000076293945,-2.9049999713897705 11.062000274658203,-2.5290000438690186 11.61299991607666,-1.5149999856948853 C12.163000106811523,-0.5009999871253967 11.788000106811523,0.765999972820282 10.77400016784668,1.3170000314712524 C7.192999839782715,3.259999990463257 3.7920000553131104,3.990999937057495 0.7519999742507935,3.990999937057495z" />
                </g>
            </g>
            <g opacity="1" transform="matrix(1,0,0,1,0,0)">
                <g opacity="1" transform="matrix(1,0,0,1,247.58599853515625,770.9320068359375)">
                    <path fill="rgb(244,244,244)" fill-opacity="1"
                        d=" M-8.930000305175781,-1.2549999952316284 C-8.930000305175781,-1.2549999952316284 0,4.39300012588501 8.930000305175781,-1.2549999952316284 C8.930000305175781,-1.2549999952316284 -8.930000305175781,-1.2549999952316284 -8.930000305175781,-1.2549999952316284z" />
                </g>
                <g opacity="1" transform="matrix(1,0,0,1,247.58599853515625,770.9400024414062)">
                    <path fill="rgb(0,0,0)" fill-opacity="1"
                        d=" M0.3310000002384186,3.3529999256134033 C-5.440000057220459,3.3529999256134033 -9.776000022888184,0.6729999780654907 -10.04699993133545,0.5019999742507935 C-11.022000312805176,-0.11500000208616257 -11.312000274658203,-1.4049999713897705 -10.694999694824219,-2.380000114440918 C-10.079000473022461,-3.3540000915527344 -8.791999816894531,-3.6440000534057617 -7.817999839782715,-3.0320000648498535 C-7.474999904632568,-2.818000078201294 0.1599999964237213,1.815000057220459 7.813000202178955,-3.0290000438690186 C8.788999557495117,-3.6429998874664307 10.079000473022461,-3.3559999465942383 10.694999694824219,-2.380000114440918 C11.312000274658203,-1.4049999713897705 11.022000312805176,-0.11500000208616257 10.04699993133545,0.5019999742507935 C6.666999816894531,2.640000104904175 3.308000087738037,3.3529999256134033 0.3310000002384186,3.3529999256134033z" />
                </g>
            </g>
        </g>
        <g transform="matrix(0.9961947202682495,0.08715574443340302,-0.08715574443340302,0.9961947202682495,142.14256286621094,121.06230926513672)"
            opacity="1" style="display: block;">
            <g opacity="1" transform="matrix(1,0,0,1,0,0)">
                <path fill="rgb(0,0,0)" fill-opacity="1"
                    d=" M0.36500000953674316,6.105000019073486 C-10.291999816894531,6.105000019073486 -18.632999420166016,-1.055999994277954 -18.76099967956543,-1.1679999828338623 C-19.628000259399414,-1.9290000200271606 -19.71299934387207,-3.249000072479248 -18.95199966430664,-4.114999771118164 C-18.191999435424805,-4.98199987411499 -16.874000549316406,-5.066999912261963 -16.007999420166016,-4.309000015258789 C-16.007999420166016,-4.309000015258789 -16.007999420166016,-4.309000015258789 -16.007999420166016,-4.309000015258789 C-15.319999694824219,-3.7079999446868896 1.0010000467300415,10.192000389099121 15.869000434875488,-5.453999996185303 C16.663000106811523,-6.291999816894531 17.985000610351562,-6.326000213623047 18.82200050354004,-5.5289998054504395 C19.658000946044922,-4.735000133514404 19.69099998474121,-3.4130001068115234 18.89699935913086,-2.5769999027252197 C12.668999671936035,3.9769999980926514 6.172999858856201,6.105000019073486 0.36500000953674316,6.105000019073486z" />
            </g>
        </g>
        <g transform="matrix(0.9961947202682495,0.08715574443340302,-0.08715574443340302,0.9961947202682495,188.379638671875,72.99718475341797)"
            opacity="1" style="display: block;">
            <g opacity="1" transform="matrix(1,0,0,1,0,0)">
                <path fill="rgb(0,0,0)" fill-opacity="1"
                    d=" M16.511999130249023,0 C16.511999130249023,9.119000434875488 9.119000434875488,16.511999130249023 0,16.511999130249023 C-9.119000434875488,16.511999130249023 -16.511999130249023,9.119000434875488 -16.511999130249023,0 C-16.511999130249023,-9.119000434875488 -9.119000434875488,-16.511999130249023 0,-16.511999130249023 C9.119000434875488,-16.511999130249023 16.511999130249023,-9.119000434875488 16.511999130249023,0z" />
            </g>
        </g>
        <g mask="url(#__lottie_element_4474_1)" style="display: block;">
            <g transform="matrix(0.9961947202682495,0.08715574443340302,-0.08715574443340302,0.9961947202682495,-19.403152465820312,-684.679443359375)"
                opacity="1">
                <g opacity="1" transform="matrix(1,0,0,1,0,0)">
                    <g opacity="1" transform="matrix(1,0,0,1,0,0)">
                        <g opacity="1" transform="matrix(1,0,0,1,249.84800720214844,820.6099853515625)">
                            <path fill="rgb(244,244,244)" fill-opacity="1"
                                d=" M0,-8.803999900817871 C0,-8.803999900817871 0,8.803999900817871 0,8.803999900817871 C0,8.803999900817871 0,-8.803999900817871 0,-8.803999900817871z" />
                        </g>
                        <g opacity="1" transform="matrix(1,0,0,1,249.84800720214844,820.6099853515625)">
                            <path fill="rgb(0,0,0)" fill-opacity="1"
                                d=" M0,10.892999649047852 C-1.152999997138977,10.892999649047852 -2.0889999866485596,9.956999778747559 -2.0889999866485596,8.803999900817871 C-2.0889999866485596,8.803999900817871 -2.0889999866485596,-8.803999900817871 -2.0889999866485596,-8.803999900817871 C-2.0889999866485596,-9.956999778747559 -1.152999997138977,-10.892999649047852 0,-10.892999649047852 C1.152999997138977,-10.892999649047852 2.0889999866485596,-9.956999778747559 2.0889999866485596,-8.803999900817871 C2.0889999866485596,-8.803999900817871 2.0889999866485596,8.803999900817871 2.0889999866485596,8.803999900817871 C2.0889999866485596,9.956999778747559 1.152999997138977,10.892999649047852 0,10.892999649047852z" />
                        </g>
                    </g>
                    <g opacity="1" transform="matrix(1,0,0,1,0,0)">
                        <g opacity="1" transform="matrix(1,0,0,1,213.7729949951172,820.6099853515625)">
                            <path fill="rgb(244,244,244)" fill-opacity="1"
                                d=" M0,-8.803999900817871 C0,-8.803999900817871 0,8.803999900817871 0,8.803999900817871 C0,8.803999900817871 0,-8.803999900817871 0,-8.803999900817871z" />
                        </g>
                        <g opacity="1" transform="matrix(1,0,0,1,213.7729949951172,820.6099853515625)">
                            <path fill="rgb(0,0,0)" fill-opacity="1"
                                d=" M0,10.892999649047852 C-1.152999997138977,10.892999649047852 -2.0889999866485596,9.956999778747559 -2.0889999866485596,8.803999900817871 C-2.0889999866485596,8.803999900817871 -2.0889999866485596,-8.803999900817871 -2.0889999866485596,-8.803999900817871 C-2.0889999866485596,-9.956999778747559 -1.152999997138977,-10.892999649047852 0,-10.892999649047852 C1.152999997138977,-10.892999649047852 2.0889999866485596,-9.956999778747559 2.0889999866485596,-8.803999900817871 C2.0889999866485596,-8.803999900817871 2.0889999866485596,8.803999900817871 2.0889999866485596,8.803999900817871 C2.0889999866485596,9.956999778747559 1.152999997138977,10.892999649047852 0,10.892999649047852z" />
                        </g>
                    </g>
                </g>
                <g opacity="1" transform="matrix(1,0,0,1,219.35800170898438,865.1259765625)">
                    <path fill="rgb(236,156,131)" fill-opacity="1"
                        d=" M82.2750015258789,-14.024999618530273 C82.2750015258789,-14.024999618530273 37.48500061035156,-38.56800079345703 37.48500061035156,-38.56800079345703 C37.48500061035156,-38.56800079345703 -8.821000099182129,-38.56800079345703 -8.821000099182129,-38.56800079345703 C-8.821000099182129,-38.56800079345703 -49.88399887084961,-16.128999710083008 -49.88399887084961,-16.128999710083008 C-49.88399887084961,-16.128999710083008 -82.2750015258789,0.8529999852180481 -82.2750015258789,0.8529999852180481 C-82.2750015258789,0.8529999852180481 -28.32200050354004,38.56800079345703 -28.32200050354004,38.56800079345703 C-28.32200050354004,38.56800079345703 53.99700164794922,34.41999816894531 53.99700164794922,34.41999816894531 C53.99700164794922,34.41999816894531 82.2750015258789,-14.024999618530273 82.2750015258789,-14.024999618530273z" />
                </g>
                <g opacity="1" transform="matrix(1,0,0,1,231.81100463867188,842.1279907226562)">
                    <path fill="rgb(244,244,244)" fill-opacity="1"
                        d=" M-15.901000022888184,-16.368999481201172 C-15.901000022888184,-16.368999481201172 -1.6419999599456787,16.368999481201172 -1.6419999599456787,16.368999481201172 C-1.6419999599456787,16.368999481201172 15.901000022888184,-16.368999481201172 15.901000022888184,-16.368999481201172 C15.901000022888184,-16.368999481201172 -15.901000022888184,-16.368999481201172 -15.901000022888184,-16.368999481201172z" />
                </g>
                <g opacity="1" transform="matrix(1,0,0,1,201.5780029296875,852.906982421875)">
                    <g opacity="1" transform="matrix(1,0,0,1,0,0)">
                        <path fill="rgb(0,0,0)" fill-opacity="1"
                            d=" M7.959000110626221,21.108999252319336 C7.861000061035156,21.108999252319336 7.763000011444092,21.101999282836914 7.663000106811523,21.08799934387207 C6.520999908447266,20.924999237060547 5.72599983215332,19.868000030517578 5.888999938964844,18.72599983215332 C5.888999938964844,18.72599983215332 9.607000350952148,-7.416999816894531 9.607000350952148,-7.416999816894531 C9.607000350952148,-7.416999816894531 -11.380999565124512,1.4620000123977661 -11.380999565124512,1.4620000123977661 C-12.218000411987305,1.815999984741211 -13.189000129699707,1.5889999866485596 -13.781000137329102,0.8980000019073486 C-14.373000144958496,0.20800000429153442 -14.449999809265137,-0.7870000004768372 -13.970999717712402,-1.559999942779541 C-13.970999717712402,-1.559999942779541 -2.496999979019165,-20.118000030517578 -2.496999979019165,-20.118000030517578 C-1.8910000324249268,-21.099000930786133 -0.6039999723434448,-21.402999877929688 0.3779999911785126,-20.795000076293945 C1.3589999675750732,-20.18899917602539 1.6629999876022339,-18.900999069213867 1.055999994277954,-17.920000076293945 C1.055999994277954,-17.920000076293945 -6.96999979019165,-4.939000129699707 -6.96999979019165,-4.939000129699707 C-6.96999979019165,-4.939000129699707 11.380999565124512,-12.70300006866455 11.380999565124512,-12.70300006866455 C12.074999809265137,-12.996000289916992 12.871999740600586,-12.894000053405762 13.468999862670898,-12.434000015258789 C14.065999984741211,-11.975000381469727 14.369000434875488,-11.229999542236328 14.262999534606934,-10.484999656677246 C14.262999534606934,-10.484999656677246 10.02400016784668,19.31399917602539 10.02400016784668,19.31399917602539 C9.87600040435791,20.35700035095215 8.982000350952148,21.108999252319336 7.959000110626221,21.108999252319336z" />
                    </g>
                </g>
                <g opacity="1" transform="matrix(1,0,0,1,259.88299560546875,851.552978515625)">
                    <g opacity="1" transform="matrix(1,0,0,1,0,0)">
                        <path fill="rgb(0,0,0)" fill-opacity="1"
                            d=" M-6.611999988555908,22.46299934387207 C-7.619999885559082,22.46299934387207 -8.506999969482422,21.731000900268555 -8.67199993133545,20.70400047302246 C-8.67199993133545,20.70400047302246 -13.718999862670898,-10.833000183105469 -13.718999862670898,-10.833000183105469 C-13.829999923706055,-11.526000022888184 -13.586000442504883,-12.229000091552734 -13.067999839782715,-12.704000473022461 C-12.550999641418457,-13.178000450134277 -11.829999923706055,-13.361000061035156 -11.14900016784668,-13.1899995803833 C-11.14900016784668,-13.1899995803833 6.620999813079834,-8.734999656677246 6.620999813079834,-8.734999656677246 C6.620999813079834,-8.734999656677246 -0.8840000033378601,-19.152999877929688 -0.8840000033378601,-19.152999877929688 C-1.5579999685287476,-20.089000701904297 -1.3459999561309814,-21.393999099731445 -0.4099999964237213,-22.06800079345703 C0.5270000100135803,-22.743999481201172 1.8320000171661377,-22.530000686645508 2.50600004196167,-21.5939998626709 C2.50600004196167,-21.5939998626709 13.35099983215332,-6.539999961853027 13.35099983215332,-6.539999961853027 C13.86400032043457,-5.828999996185303 13.876999855041504,-4.874000072479248 13.385000228881836,-4.146999835968018 C12.892999649047852,-3.421999931335449 12.00100040435791,-3.0820000171661377 11.14900016784668,-3.2929999828338623 C11.14900016784668,-3.2929999828338623 -9.093999862670898,-8.368000030517578 -9.093999862670898,-8.368000030517578 C-9.093999862670898,-8.368000030517578 -4.546999931335449,20.04400062561035 -4.546999931335449,20.04400062561035 C-4.364999771118164,21.183000564575195 -5.140999794006348,22.253000259399414 -6.28000020980835,22.43600082397461 C-6.392000198364258,22.45400047302246 -6.502999782562256,22.46299934387207 -6.611999988555908,22.46299934387207z" />
                    </g>
                </g>
            </g>
        </g>
        <g mask="url(#__lottie_element_4491_1)" style="display: block;">
            <g transform="matrix(0.997104287147522,0.07604647427797318,-0.07604647427797318,0.997104287147522,-29.59455680847168,-674.71728515625)"
                opacity="1">
                <g opacity="1" transform="matrix(1,0,0,1,160.40699768066406,828.4940185546875)">
                    <path fill="rgb(244,244,244)" fill-opacity="1"
                        d=" M-27.611000061035156,19.917999267578125 C-27.611000061035156,19.917999267578125 -27.611000061035156,-13.697999954223633 -27.611000061035156,-13.697999954223633 C-27.611000061035156,-13.697999954223633 -27.611000061035156,-27.999000549316406 -18.19300079345703,-21.167999267578125 C-12.234000205993652,-35.861000061035156 -3.9549999237060547,-25.525999069213867 -3.9549999237060547,-25.525999069213867 C-3.9549999237060547,-25.525999069213867 2.568000078201294,-35.861000061035156 7.873000144958496,-25.525999069213867 C7.873000144958496,-25.525999069213867 7.368000030517578,-39.310001373291016 8.381999969482422,-52.09700012207031 C8.937999725341797,-59.11600112915039 8.380999565124512,-64.74500274658203 13.932999610900879,-64.74500274658203 C18.381000518798828,-64.74500274658203 18.273000717163086,-59.733001708984375 18.687000274658203,-52.98899841308594 C19.23900032043457,-44.005001068115234 19.402000427246094,-32.19900131225586 19.402000427246094,-26.510000228881836 C19.402000427246094,-16.549999237060547 20.9060001373291,-19.643999099731445 24.520000457763672,-18.367000579833984 C28.134000778198242,-17.09000015258789 29.222000122070312,3.4790000915527344 24.242000579833984,10.32699966430664 C19.261999130249023,17.174999237060547 10.984999656677246,19.917999267578125 10.984999656677246,19.917999267578125 C10.984999656677246,19.917999267578125 11.980999946594238,64.74500274658203 11.980999946594238,64.74500274658203 C11.980999946594238,64.74500274658203 -27.611000061035156,47.930999755859375 -27.611000061035156,47.930999755859375 C-27.611000061035156,47.930999755859375 -27.611000061035156,19.917999267578125 -27.611000061035156,19.917999267578125z" />
                    <path stroke-linecap="round" stroke-linejoin="round" fill-opacity="0" stroke="rgb(0,0,0)"
                        stroke-opacity="1" stroke-width="4.177"
                        d=" M-27.611000061035156,19.917999267578125 C-27.611000061035156,19.917999267578125 -27.611000061035156,-13.697999954223633 -27.611000061035156,-13.697999954223633 C-27.611000061035156,-13.697999954223633 -27.611000061035156,-27.999000549316406 -18.19300079345703,-21.167999267578125 C-12.234000205993652,-35.861000061035156 -3.9549999237060547,-25.525999069213867 -3.9549999237060547,-25.525999069213867 C-3.9549999237060547,-25.525999069213867 2.568000078201294,-35.861000061035156 7.873000144958496,-25.525999069213867 C7.873000144958496,-25.525999069213867 7.368000030517578,-39.310001373291016 8.381999969482422,-52.09700012207031 C8.937999725341797,-59.11600112915039 8.380999565124512,-64.74500274658203 13.932999610900879,-64.74500274658203 C18.381000518798828,-64.74500274658203 18.273000717163086,-59.733001708984375 18.687000274658203,-52.98899841308594 C19.23900032043457,-44.005001068115234 19.402000427246094,-32.19900131225586 19.402000427246094,-26.510000228881836 C19.402000427246094,-16.549999237060547 20.9060001373291,-19.643999099731445 24.520000457763672,-18.367000579833984 C28.134000778198242,-17.09000015258789 29.222000122070312,3.4790000915527344 24.242000579833984,10.32699966430664 C19.261999130249023,17.174999237060547 10.984999656677246,19.917999267578125 10.984999656677246,19.917999267578125 C10.984999656677246,19.917999267578125 11.980999946594238,64.74500274658203 11.980999946594238,64.74500274658203 C11.980999946594238,64.74500274658203 -27.611000061035156,47.930999755859375 -27.611000061035156,47.930999755859375 C-27.611000061035156,47.930999755859375 -27.611000061035156,19.917999267578125 -27.611000061035156,19.917999267578125z" />
                </g>
                <g opacity="1" transform="matrix(1,0,0,1,138.7259979248047,818.6220092773438)">
                    <g opacity="1" transform="matrix(1,0,0,1,0,0)">
                        <path fill="rgb(0,0,0)" fill-opacity="1"
                            d=" M-0.2980000078678131,15.638999938964844 C-3.7780001163482666,15.638999938964844 -6.421000003814697,12.472000122070312 -6.71999979019165,12.098999977111816 C-7.440999984741211,11.199000358581543 -7.296999931335449,9.883999824523926 -6.396999835968018,9.161999702453613 C-5.498000144958496,8.442999839782715 -4.189000129699707,8.585000038146973 -3.4660000801086426,9.477999687194824 C-3.4660000801086426,9.477999687194824 -3.4660000801086426,9.477999687194824 -3.4660000801086426,9.477999687194824 C-2.9089999198913574,10.16100025177002 -1.371000051498413,11.543000221252441 -0.1899999976158142,11.456999778747559 C0.48899999260902405,11.409000396728516 1.1729999780654907,10.821999549865723 1.843000054359436,9.711999893188477 C3.4000000953674316,7.133999824523926 3.128000020980835,-5.339000225067139 2.437999963760376,-13.371999740600586 C2.3389999866485596,-14.520999908447266 3.190999984741211,-15.532999992370605 4.340000152587891,-15.631999969482422 C5.492000102996826,-15.722999572753906 6.500999927520752,-14.878999710083008 6.599999904632568,-13.729999542236328 C6.896999835968018,-10.27400016784668 8.23799991607666,7.203999996185303 5.419000148773193,11.871999740600586 C3.6510000228881836,14.798999786376953 1.5399999618530273,15.529000282287598 0.07999999821186066,15.62600040435791 C-0.04699999839067459,15.635000228881836 -0.17299999296665192,15.638999938964844 -0.2980000078678131,15.638999938964844z" />
                    </g>
                </g>
                <g opacity="1" transform="matrix(1,0,0,1,150.13699340820312,816.8930053710938)">
                    <g opacity="1" transform="matrix(1,0,0,1,0,0)">
                        <path fill="rgb(0,0,0)" fill-opacity="1"
                            d=" M-0.31299999356269836,16.014999389648438 C-1.0479999780654907,16.014999389648438 -1.7829999923706055,15.89799976348877 -2.497999906539917,15.66100025177002 C-4.177000045776367,15.10200023651123 -7.199999809265137,13.32699966430664 -8.581000328063965,7.714000225067139 C-8.855999946594238,6.593999862670898 -8.17199993133545,5.460999965667725 -7.052000045776367,5.185999870300293 C-5.933000087738037,4.913000106811523 -4.800000190734863,5.59499979019165 -4.525000095367432,6.715000152587891 C-3.8570001125335693,9.432000160217285 -2.6689999103546143,11.20199966430664 -1.1799999475479126,11.696999549865723 C-0.17900000512599945,12.031000137329102 0.9789999723434448,11.741999626159668 1.996000051498413,10.906999588012695 C4.104000091552734,9.177000045776367 4.853000164031982,-3.2660000324249268 4.229000091552734,-13.800999641418457 C4.160999774932861,-14.95199966430664 5.039999961853027,-15.940999984741211 6.190999984741211,-16.009000778198242 C7.343999862670898,-16.099000930786133 8.331000328063965,-15.199000358581543 8.39900016784668,-14.04699993133545 C8.732000350952148,-8.432000160217285 9.444000244140625,10.196999549865723 4.646999835968018,14.135000228881836 C3.1410000324249268,15.371999740600586 1.409999966621399,16.014999389648438 -0.31299999356269836,16.014999389648438z" />
                    </g>
                </g>
                <g opacity="1" transform="matrix(1,0,0,1,162.76400756835938,816.8610229492188)">
                    <g opacity="1" transform="matrix(1,0,0,1,0,0)">
                        <path fill="rgb(0,0,0)" fill-opacity="1"
                            d=" M-0.7630000114440918,15.982000350952148 C-1.5269999504089355,15.982000350952148 -2.187000036239624,15.843999862670898 -2.7260000705718994,15.65999984741211 C-6.436999797821045,14.399999618530273 -7.909999847412109,10.019000053405762 -8.0649995803833,9.52400016784668 C-8.41100025177002,8.42300033569336 -7.797999858856201,7.250999927520752 -6.697999954223633,6.90500020980835 C-5.5960001945495605,6.559000015258789 -4.425000190734863,7.171999931335449 -4.078999996185303,8.27299976348877 C-3.8429999351501465,9.003000259399414 -2.8340001106262207,11.220000267028809 -1.3760000467300415,11.708000183105469 C-0.5669999718666077,11.97599983215332 0.45100000500679016,11.687999725341797 1.652999997138977,10.843000411987305 C3.9839999675750732,9.208000183105469 4.456999778747559,-3.1630001068115234 3.436000108718872,-13.6899995803833 C3.325000047683716,-14.838000297546387 4.165999889373779,-15.861000061035156 5.314000129699707,-15.972000122070312 C6.465000152587891,-16.08300018310547 7.482999801635742,-15.241999626159668 7.593999862670898,-14.095000267028809 C8.145999908447266,-8.411999702453613 9.520999908447266,10.425000190734863 4.052999973297119,14.262999534606934 C2.193000078201294,15.569000244140625 0.5590000152587891,15.982000350952148 -0.7630000114440918,15.982000350952148z" />
                    </g>
                </g>
            </g>
        </g>
        <g transform="matrix(0.9999379515647888,-0.011146270669996738,0.011146270669996738,0.9999379515647888,-100.64220428466797,-660.7974853515625)"
            opacity="1" style="display: block;">
            <g opacity="1" transform="matrix(1,0,0,1,167.94000244140625,817.8359985351562)">
                <path fill="rgb(244,244,244)" fill-opacity="1"
                    d=" M15.89900016784668,-6.955999851226807 C15.89900016784668,-6.955999851226807 -15.208000183105469,-4.60699987411499 -15.208000183105469,-4.60699987411499 C-15.208000183105469,-4.60699987411499 -17.96500015258789,1.871000051498413 -12.46399974822998,4.370999813079834 C-6.9629998207092285,6.870999813079834 5.586999893188477,6.955999851226807 5.586999893188477,6.955999851226807 C5.586999893188477,6.955999851226807 15.89900016784668,-6.955999851226807 15.89900016784668,-6.955999851226807z" />
            </g>
            <g opacity="1" transform="matrix(1,0,0,1,167.9320068359375,817.8359985351562)">
                <path fill="rgb(0,0,0)" fill-opacity="1"
                    d=" M5.754000186920166,9.038999557495117 C5.697000026702881,9.043000221252441 5.638999938964844,9.045000076293945 5.579999923706055,9.045000076293945 C5.048999786376953,9.041000366210938 -7.480999946594238,8.927000045776367 -13.321000099182129,6.2729997634887695 C-19.141000747680664,3.628999948501587 -18.35300064086914,-2.5350000858306885 -17.12299919128418,-5.423999786376953 C-16.816999435424805,-6.142000198364258 -16.136999130249023,-6.630000114440918 -15.359000205993652,-6.689000129699707 C-15.359000205993652,-6.689000129699707 15.74899959564209,-9.038999557495117 15.74899959564209,-9.038999557495117 C16.89900016784668,-9.12600040435791 17.902000427246094,-8.262999534606934 17.98900032043457,-7.11299991607666 C18.076000213623047,-5.9629998207092285 17.214000701904297,-4.960000038146973 16.06399917602539,-4.873000144958496 C16.06399917602539,-4.873000144958496 -13.640000343322754,-2.630000114440918 -13.640000343322754,-2.630000114440918 C-13.979999542236328,-1.1430000066757202 -14.095999717712402,1.3320000171661377 -11.593000411987305,2.4700000286102295 C-7.4120001792907715,4.369999885559082 2.240999937057495,4.84499979019165 5.607999801635742,4.867000102996826 C6.761000156402588,4.875 7.690999984741211,5.816999912261963 7.683000087738037,6.96999979019165 C7.676000118255615,8.0649995803833 6.827000141143799,8.958000183105469 5.754000186920166,9.038999557495117z" />
            </g>
        </g>
        <g style="display: none;">
            <g>
                <path />
            </g>
        </g>
        <g style="display: none;">
            <g>
                <path />
            </g>
        </g>
        <g style="display: none;">
            <g>
                <path />
            </g>
        </g>
    </g>
</svg>