<svg xmlns="http://www.w3.org/2000/svg" xmlns:xlink="http://www.w3.org/1999/xlink" viewBox="0 0 225 225" width="225"
    height="225" preserveAspectRatio="xMidYMid meet"
    style="width: 100%; height: 100%; transform: translate3d(0px, 0px, 0px); content-visibility: visible;"
    id="doguillo">
    <defs>
        <clipPath id="__lottie_element_4717">
            <rect width="225" height="225" x="0" y="0" />
        </clipPath>
        <g id="__lottie_element_4724">
            <g transform="matrix(1,0,0,1,112.95800018310547,112.08999633789062)" opacity="1" style="display: block;">
                <g opacity="1" transform="matrix(1,0,0,1,0,0)">
                    <path fill="rgb(232,232,232)" fill-opacity="1"
                        d=" M112.04100036621094,0 C112.04100036621094,61.87799835205078 61.87799835205078,112.04100036621094 0,112.04100036621094 C-61.87799835205078,112.04100036621094 -112.04100036621094,61.87799835205078 -112.04100036621094,0 C-112.04100036621094,-61.87799835205078 -61.87799835205078,-112.04100036621094 0,-112.04100036621094 C61.87799835205078,-112.04100036621094 112.04100036621094,-61.87799835205078 112.04100036621094,0z" />
                </g>
            </g>
        </g>
        <mask id="__lottie_element_4724_1" mask-type="alpha">
            <use xmlns:ns1="http://www.w3.org/1999/xlink" ns1:href="#__lottie_element_4724" />
        </mask>
    </defs>
    <g clip-path="url(#__lottie_element_4717)">
        <g transform="matrix(1,0,0,1,112.95800018310547,112.08999633789062)" opacity="1" style="display: block;">
            <g opacity="1" transform="matrix(1,0,0,1,0,0)">
                <path fill="rgb(232,232,232)" fill-opacity="1"
                    d=" M112.04100036621094,0 C112.04100036621094,61.87799835205078 61.87799835205078,112.04100036621094 0,112.04100036621094 C-61.87799835205078,112.04100036621094 -112.04100036621094,61.87799835205078 -112.04100036621094,0 C-112.04100036621094,-61.87799835205078 -61.87799835205078,-112.04100036621094 0,-112.04100036621094 C61.87799835205078,-112.04100036621094 112.04100036621094,-61.87799835205078 112.04100036621094,0z" />
            </g>
        </g>
        <g mask="url(#__lottie_element_4724_1)" style="display: block;">
            <g transform="matrix(0.9994502067565918,0.03315562754869461,-0.03315562754869461,0.9994502067565918,-76.93180847167969,-430.8204040527344)"
                opacity="1">
                <g opacity="1" transform="matrix(1,0,0,1,216.68800354003906,621.8389892578125)">
                    <path fill="rgb(106,166,211)" fill-opacity="1"
                        d=" M-46.30400085449219,-38.736000061035156 C-47.97100067138672,-39.198001861572266 -86.53399658203125,-2.246000051498413 -86.53399658203125,-2.246000051498413 C-86.53399658203125,-2.246000051498413 -58.404998779296875,35.62099838256836 -54.777000427246094,36.36399841308594 C-51.14899826049805,37.106998443603516 3.4059998989105225,40.1619987487793 3.4059998989105225,40.1619987487793 C3.4059998989105225,40.1619987487793 86.53399658203125,2.631999969482422 86.53399658203125,2.631999969482422 C86.53399658203125,2.631999969482422 39.632999420166016,-40.1619987487793 39.632999420166016,-40.1619987487793 C39.632999420166016,-40.1619987487793 -1.1770000457763672,-26.229999542236328 -46.30400085449219,-38.736000061035156z" />
                </g>
                <g opacity="1" transform="matrix(1,0,0,1,213.21800231933594,617.7670288085938)">
                    <path fill="rgb(244,244,244)" fill-opacity="1"
                        d=" M-27.781999588012695,-31.70199966430664 C-27.781999588012695,-31.70199966430664 -27.781999588012695,36.090999603271484 -27.781999588012695,36.090999603271484 C-27.781999588012695,36.090999603271484 27.781999588012695,36.090999603271484 27.781999588012695,36.090999603271484 C27.781999588012695,36.090999603271484 24.908000946044922,-36.090999603271484 24.908000946044922,-36.090999603271484 C24.908000946044922,-36.090999603271484 -27.781999588012695,-31.70199966430664 -27.781999588012695,-31.70199966430664z" />
                </g>
                <g opacity="1" transform="matrix(1,0,0,1,212.33200073242188,596.906982421875)">
                    <g opacity="1" transform="matrix(1,0,0,1,0,0)">
                        <path fill="rgb(0,0,0)" fill-opacity="1"
                            d=" M-17.621999740600586,10.418999671936035 C-17.79800033569336,10.418999671936035 -17.97599983215332,10.394000053405762 -18.148000717163086,10.340999603271484 C-18.694000244140625,10.173999786376953 -19.1299991607666,9.758999824523926 -19.320999145507812,9.222000122070312 C-19.320999145507812,9.222000122070312 -25.131999969482422,-7.091000080108643 -25.131999969482422,-7.091000080108643 C-25.465999603271484,-8.029000282287598 -24.976999282836914,-9.0600004196167 -24.038999557495117,-9.394000053405762 C-23.10099983215332,-9.727999687194824 -22.06999969482422,-9.239999771118164 -21.736000061035156,-8.302000045776367 C-21.736000061035156,-8.302000045776367 -16.739999771118164,5.7220001220703125 -16.739999771118164,5.7220001220703125 C-16.739999771118164,5.7220001220703125 -0.3409999907016754,-6.400000095367432 -0.3409999907016754,-6.400000095367432 C0.33500000834465027,-6.896999835968018 1.2649999856948853,-6.864999771118164 1.9040000438690186,-6.318999767303467 C1.9040000438690186,-6.318999767303467 14.656000137329102,4.609000205993652 14.656000137329102,4.609000205993652 C14.656000137329102,4.609000205993652 21.82900047302246,-9.4350004196167 21.82900047302246,-9.4350004196167 C22.2810001373291,-10.321999549865723 23.368999481201172,-10.675000190734863 24.253999710083008,-10.220000267028809 C25.141000747680664,-9.767000198364258 25.493000030517578,-8.682000160217285 25.040000915527344,-7.795000076293945 C25.040000915527344,-7.795000076293945 16.826000213623047,8.286999702453613 16.826000213623047,8.286999702453613 C16.575000762939453,8.779000282287598 16.11199951171875,9.130000114440918 15.569999694824219,9.236000061035156 C15.027000427246094,9.345000267028809 14.465999603271484,9.194000244140625 14.04699993133545,8.836000442504883 C14.04699993133545,8.836000442504883 0.6480000019073486,-2.6459999084472656 0.6480000019073486,-2.6459999084472656 C0.6480000019073486,-2.6459999084472656 -16.551000595092773,10.067000389099121 -16.551000595092773,10.067000389099121 C-16.864999771118164,10.29800033569336 -17.240999221801758,10.418999671936035 -17.621999740600586,10.418999671936035z" />
                    </g>
                </g>
                <g opacity="1" transform="matrix(1,0,0,1,212.0030059814453,607.073974609375)">
                    <path fill="rgb(0,0,0)" fill-opacity="1"
                        d=" M3.6080000400543213,0 C3.6080000400543213,1.9930000305175781 1.9930000305175781,3.6080000400543213 0,3.6080000400543213 C-1.9930000305175781,3.6080000400543213 -3.6080000400543213,1.9930000305175781 -3.6080000400543213,0 C-3.6080000400543213,-1.9930000305175781 -1.9930000305175781,-3.6080000400543213 0,-3.6080000400543213 C1.9930000305175781,-3.6080000400543213 3.6080000400543213,-1.9930000305175781 3.6080000400543213,0z" />
                </g>
                <g opacity="1" transform="matrix(1,0,0,1,212.33200073242188,620.7440185546875)">
                    <path fill="rgb(0,0,0)" fill-opacity="1"
                        d=" M3.6080000400543213,0 C3.6080000400543213,1.9930000305175781 1.9930000305175781,3.6080000400543213 0,3.6080000400543213 C-1.9930000305175781,3.6080000400543213 -3.6080000400543213,1.9930000305175781 -3.6080000400543213,0 C-3.6080000400543213,-1.9930000305175781 -1.9930000305175781,-3.6080000400543213 0,-3.6080000400543213 C1.9930000305175781,-3.6080000400543213 3.6080000400543213,-1.9930000305175781 3.6080000400543213,0z" />
                </g>
                <g opacity="1" transform="matrix(1,0,0,1,212.0030059814453,633.6669921875)">
                    <path fill="rgb(0,0,0)" fill-opacity="1"
                        d=" M3.6080000400543213,0 C3.6080000400543213,1.9930000305175781 1.9930000305175781,3.6080000400543213 0,3.6080000400543213 C-1.9930000305175781,3.6080000400543213 -3.6080000400543213,1.9930000305175781 -3.6080000400543213,0 C-3.6080000400543213,-1.9930000305175781 -1.9930000305175781,-3.6080000400543213 0,-3.6080000400543213 C1.9930000305175781,-3.6080000400543213 3.6080000400543213,-1.9930000305175781 3.6080000400543213,0z" />
                </g>
            </g>
        </g>
        <g transform="matrix(0.997671365737915,-0.06820472329854965,0.060359369963407516,0.8829126954078674,116.44478607177734,151.9072265625)"
            opacity="1" style="display: block;">
            <g opacity="1" transform="matrix(1,0,0,1,0,0)">
                <path fill="rgb(0,0,0)" fill-opacity="1"
                    d=" M0.41600000858306885,8.85099983215332 C0.38600000739097595,8.85099983215332 0.35499998927116394,8.850000381469727 0.3240000009536743,8.850000381469727 C-1.7339999675750732,8.829000473022461 -3.515000104904175,8.0600004196167 -4.9720001220703125,6.565999984741211 C-9.123000144958496,2.308000087738037 -9.038999557495117,-6.693999767303467 -9.034000396728516,-7.074999809265137 C-9.019000053405762,-8.060999870300293 -8.21500015258789,-8.85099983215332 -7.23199987411499,-8.85099983215332 C-7.223999977111816,-8.85099983215332 -7.216000080108643,-8.85099983215332 -7.206999778747559,-8.85099983215332 C-6.211999893188477,-8.836999893188477 -5.415999889373779,-8.019000053405762 -5.428999900817871,-7.025000095367432 C-5.456999778747559,-4.839000225067139 -4.966000080108643,1.4119999408721924 -2.38700008392334,4.052000045776367 C-1.6150000095367432,4.843999862670898 -0.7149999737739563,5.232999801635742 0.3619999885559082,5.244999885559082 C1.5800000429153442,5.269000053405762 2.4560000896453857,4.882999897003174 3.2019999027252197,4.066999912261963 C5.583000183105469,1.4639999866485596 5.544000148773193,-4.709000110626221 5.328000068664551,-6.868000030517578 C5.229000091552734,-7.857999801635742 5.951000213623047,-8.741999626159668 6.940999984741211,-8.842000007629395 C7.927000045776367,-8.944000244140625 8.8149995803833,-8.222000122070312 8.916000366210938,-7.23199987411499 C9.013999938964844,-6.275000095367432 9.755000114440918,2.239000082015991 5.868000030517578,6.495999813079834 C4.460000038146973,8.038000106811523 2.5769999027252197,8.85099983215332 0.41600000858306885,8.85099983215332z" />
            </g>
        </g>
        <g transform="matrix(0.997671365737915,-0.06820472329854965,0.06820472329854965,0.997671365737915,-135.2146453857422,-408.16253662109375)"
            opacity="1" style="display: block;">
            <g opacity="1" transform="matrix(1,0,0,1,240.23599243164062,534.1699829101562)">
                <path stroke-linecap="round" stroke-linejoin="round" fill-opacity="0" stroke="rgb(0,0,0)"
                    stroke-opacity="1" stroke-width="3.606"
                    d=" M10.79800033569336,0 C10.79800033569336,5.964000225067139 5.964000225067139,10.79800033569336 0,10.79800033569336 C-5.964000225067139,10.79800033569336 -10.79800033569336,5.964000225067139 -10.79800033569336,0 C-10.79800033569336,-5.964000225067139 -5.964000225067139,-10.79800033569336 0,-10.79800033569336 C5.964000225067139,-10.79800033569336 10.79800033569336,-5.964000225067139 10.79800033569336,0z" />
            </g>
            <g opacity="1" transform="matrix(1,0,0,1,184.16700744628906,535.6610107421875)">
                <path stroke-linecap="round" stroke-linejoin="round" fill-opacity="0" stroke="rgb(0,0,0)"
                    stroke-opacity="1" stroke-width="3.606"
                    d=" M10.79800033569336,0 C10.79800033569336,5.964000225067139 5.964000225067139,10.79800033569336 0,10.79800033569336 C-5.964000225067139,10.79800033569336 -10.79800033569336,5.964000225067139 -10.79800033569336,0 C-10.79800033569336,-5.964000225067139 -5.964000225067139,-10.79800033569336 0,-10.79800033569336 C5.964000225067139,-10.79800033569336 10.79800033569336,-5.964000225067139 10.79800033569336,0z" />
            </g>
        </g>
        <g transform="matrix(0.997671365737915,-0.06820472329854965,0.06820472329854965,0.997671365737915,-135.2146453857422,-408.16253662109375)"
            opacity="1" style="display: block;">
            <g opacity="1" transform="matrix(1,0,0,1,225.7050018310547,560.64599609375)">
                <path fill="rgb(0,0,0)" fill-opacity="1"
                    d=" M9.008999824523926,-7.131999969482422 C14.26200008392334,-0.4959999918937683 14.48799991607666,8.07699966430664 9.51200008392334,12.015999794006348 C4.535999774932861,15.954999923706055 -3.75600004196167,13.767999649047852 -9.008999824523926,7.131999969482422 C-14.26200008392334,0.4959999918937683 -14.48799991607666,-8.07699966430664 -9.51200008392334,-12.015999794006348 C-4.535999774932861,-15.954999923706055 3.75600004196167,-13.767999649047852 9.008999824523926,-7.131999969482422z" />
            </g>
            <g opacity="1" transform="matrix(1,0,0,1,201.2550048828125,560.64599609375)">
                <path fill="rgb(0,0,0)" fill-opacity="1"
                    d=" M8.869000434875488,7.306000232696533 C3.486999988555908,13.83899974822998 -4.8470001220703125,15.86299991607666 -9.744999885559082,11.82800006866455 C-14.642999649047852,7.793000221252441 -14.25100040435791,-0.7730000019073486 -8.869000434875488,-7.306000232696533 C-3.486999988555908,-13.83899974822998 4.8470001220703125,-15.86299991607666 9.744999885559082,-11.82800006866455 C14.642999649047852,-7.793000221252441 14.25100040435791,0.7730000019073486 8.869000434875488,7.306000232696533z" />
            </g>
            <g opacity="1" transform="matrix(1,0,0,1,213.21800231933594,549.2160034179688)">
                <path fill="rgb(244,244,244)" fill-opacity="1"
                    d=" M6.7789998054504395,-1.7610000371932983 C6.7789998054504395,1.559000015258789 3.74399995803833,4.250999927520752 0,4.250999927520752 C-3.74399995803833,4.250999927520752 -6.7789998054504395,1.559000015258789 -6.7789998054504395,-1.7610000371932983 C-6.7789998054504395,-5.080999851226807 6.7789998054504395,-5.080999851226807 6.7789998054504395,-1.7610000371932983z" />
                <path stroke-linecap="round" stroke-linejoin="round" fill-opacity="0" stroke="rgb(0,0,0)"
                    stroke-opacity="1" stroke-width="3.606"
                    d=" M6.7789998054504395,-1.7610000371932983 C6.7789998054504395,1.559000015258789 3.74399995803833,4.250999927520752 0,4.250999927520752 C-3.74399995803833,4.250999927520752 -6.7789998054504395,1.559000015258789 -6.7789998054504395,-1.7610000371932983 C-6.7789998054504395,-5.080999851226807 6.7789998054504395,-5.080999851226807 6.7789998054504395,-1.7610000371932983z" />
            </g>
        </g>
        <g transform="matrix(0.997671365737915,-0.06820472329854965,0.06820472329854965,0.997671365737915,57.62589645385742,102.95308685302734)"
            opacity="1" style="display: block;">
            <g opacity="1" transform="matrix(1,0,0,1,0,0)">
                <path fill="rgb(0,0,0)" fill-opacity="1"
                    d=" M-0.675000011920929,25.826000213623047 C-0.675000011920929,25.826000213623047 23.77199935913086,-16.80699920654297 12.442999839782715,-24.555999755859375 C1.1139999628067017,-32.30500030517578 -13.885000228881836,-2.378000020980835 -15.345999717712402,5.083000183105469 C-16.80699920654297,12.543999671936035 -0.675000011920929,25.826000213623047 -0.675000011920929,25.826000213623047z" />
            </g>
        </g>
        <g transform="matrix(0.997671365737915,-0.06820472329854965,0.06820472329854965,0.997671365737915,166.14202880859375,92.97447967529297)"
            opacity="1" style="display: block;">
            <g opacity="1" transform="matrix(1,0,0,1,0,0)">
                <path fill="rgb(0,0,0)" fill-opacity="1"
                    d=" M0.675000011920929,25.826000213623047 C0.675000011920929,25.826000213623047 -23.77199935913086,-16.80699920654297 -12.442999839782715,-24.555999755859375 C-1.1139999628067017,-32.30500030517578 13.885000228881836,-2.378000020980835 15.345999717712402,5.083000183105469 C16.80699920654297,12.543999671936035 0.675000011920929,25.826000213623047 0.675000011920929,25.826000213623047z" />
            </g>
        </g>
        <g transform="matrix(0.997671365737915,-0.06820472329854965,0.06820472329854965,0.997671365737915,-135.2146453857422,-408.16253662109375)"
            opacity="1" style="display: block;">
            <g opacity="1" transform="matrix(1,0,0,1,165.71299743652344,566.9140014648438)">
                <g opacity="1" transform="matrix(1,0,0,1,0,0)">
                    <path fill="rgb(0,0,0)" fill-opacity="1"
                        d=" M3.444999933242798,11.836999893188477 C2.8889999389648438,11.836999893188477 2.3399999141693115,11.581000328063965 1.9869999885559082,11.098999977111816 C-3.494999885559082,3.5989999771118164 -5.164000034332275,-9.267000198364258 -5.23199987411499,-9.810999870300293 C-5.355999946594238,-10.79800033569336 -4.656000137329102,-11.699000358581543 -3.6679999828338623,-11.822999954223633 C-2.684000015258789,-11.942999839782715 -1.7790000438690186,-11.248000144958496 -1.6540000438690186,-10.26099967956543 C-1.6380000114440918,-10.13700008392334 -0.028999999165534973,2.2300000190734863 4.89900016784668,8.970000267028809 C5.486000061035156,9.77400016784668 5.310999870300293,10.902000427246094 4.506999969482422,11.48900032043457 C4.185999870300293,11.723999977111816 3.813999891281128,11.836999893188477 3.444999933242798,11.836999893188477z" />
                </g>
            </g>
            <g opacity="1" transform="matrix(1,0,0,1,260.65301513671875,564.906982421875)">
                <g opacity="1" transform="matrix(1,0,0,1,0,0)">
                    <path fill="rgb(0,0,0)" fill-opacity="1"
                        d=" M-3.8410000801086426,13.244999885559082 C-4.239999771118164,13.244999885559082 -4.640999794006348,13.11400032043457 -4.974999904632568,12.843000411987305 C-5.748000144958496,12.215999603271484 -5.868000030517578,11.079999923706055 -5.241000175476074,10.305999755859375 C-0.12200000137090683,3.992000102996826 2.0320000648498535,-11.527000427246094 2.052999973297119,-11.682999610900879 C2.187000036239624,-12.670000076293945 3.1040000915527344,-13.369000434875488 4.081999778747559,-13.22700023651123 C5.068999767303467,-13.093000411987305 5.760000228881836,-12.184000015258789 5.625999927520752,-11.197999954223633 C5.533999919891357,-10.520000457763672 3.309000015258789,5.486000061035156 -2.438999891281128,12.57699966430664 C-2.7950000762939453,13.017000198364258 -3.315999984741211,13.244999885559082 -3.8410000801086426,13.244999885559082z" />
                </g>
            </g>
            <g opacity="1" transform="matrix(1,0,0,1,210.09800720214844,493.4620056152344)">
                <g opacity="1" transform="matrix(1,0,0,1,0,0)">
                    <path fill="rgb(0,0,0)" fill-opacity="1"
                        d=" M-27.270999908447266,3.234999895095825 C-28.06999969482422,3.234999895095825 -28.799999237060547,2.700000047683716 -29.01300048828125,1.8910000324249268 C-29.266000747680664,0.9279999732971191 -28.69300079345703,-0.057999998331069946 -27.729999542236328,-0.3109999895095825 C-26.7450008392334,-0.5720000267028809 -3.2249999046325684,-6.611000061035156 27.618000030517578,-0.5329999923706055 C28.594999313354492,-0.3409999907016754 29.231000900268555,0.6079999804496765 29.038999557495117,1.5850000381469727 C28.847000122070312,2.562000036239624 27.899999618530273,3.197999954223633 26.92099952697754,3.005000114440918 C-3.062999963760376,-2.9030001163482666 -26.576000213623047,3.11299991607666 -26.81100082397461,3.174999952316284 C-26.96500015258789,3.2149999141693115 -27.118999481201172,3.234999895095825 -27.270999908447266,3.234999895095825z" />
                </g>
            </g>
        </g>
    </g>
</svg>